SplineFontDB: 3.0
FontName: Inconsesi-Regular
FullName: Inconsesi
FamilyName: Inconsesi
Weight: Book
Copyright: Copyright (c) 2012, Alexei Vanyashin (a@cyreal.org). Based on Inconsolata by Raph Levien (firstname.lastname@gmail.com), Copyright (c) 2006-2012.
Version: 1.002
ItalicAngle: 0
UnderlinePosition: -50
UnderlineWidth: 50
Ascent: 1520
Descent: 528
sfntRevision: 0x00010083
LayerCount: 2
Layer: 0 1 "Back"  1
Layer: 1 1 "Fore"  0
XUID: [1021 126 202672079 12933940]
FSType: 0
OS2Version: 3
OS2_WeightWidthSlopeOnly: 0
OS2_UseTypoMetrics: 1
CreationTime: 1346730960
ModificationTime: 1354987190
PfmFamily: 81
TTFWeight: 400
TTFWidth: 5
LineGap: 350
VLineGap: 0
Panose: 0 0 5 0 0 0 0 0 0 0
OS2TypoAscent: 1520
OS2TypoAOffset: 0
OS2TypoDescent: -528
OS2TypoDOffset: 0
OS2TypoLinegap: 350
OS2WinAscent: 1520
OS2WinAOffset: 0
OS2WinDescent: 528
OS2WinDOffset: 0
HheadAscent: 1520
HheadAOffset: 0
HheadDescent: -528
HheadDOffset: 0
OS2SubXSize: 1331
OS2SubYSize: 1228
OS2SubXOff: 0
OS2SubYOff: 153
OS2SupXSize: 1331
OS2SupYSize: 1228
OS2SupXOff: 0
OS2SupYOff: 716
OS2StrikeYSize: 50
OS2StrikeYPos: 561
OS2Vendor: 'UKWN'
OS2CodePages: 20000093.00000000
OS2UnicodeRanges: a00000ef.500001fb.00000000.00000000
DEI: 91125
TtTable: prep
PUSHW_1
 511
SCANCTRL
PUSHB_1
 4
SCANTYPE
EndTTInstrs
ShortTable: maxp 16
  1
  0
  438
  83
  7
  0
  0
  2
  0
  1
  1
  0
  64
  0
  0
  0
EndShort
LangName: 1033 "" "" "" "Cyreal.org: Inconsesi: 2012" "" "Version 1.002" "" "Please refer to the Copyright section for the font trademark attribution notices." "Cyreal.org" "Alexei Vanyashin" "" "http://www.cyreal.org" "http://www.cyreal.org" "This Font Software is licensed under the SIL Open Font License,+AAoA-Version 1.1. This license is available with a FAQ at:+AAoA-http://scripts.sil.org/OFL" "http://scripts.sil.org/OFL" 
GaspTable: 1 65535 15 1
Encoding: UnicodeBmp
UnicodeInterp: none
NameList: AGL For New Fonts
DisplaySize: -24
AntiAlias: 1
FitToEm: 1
BeginChars: 65557 438

StartChar: exclam
Encoding: 33 33 4
Width: 1126
GlyphClass: 2
Flags: W
LayerCount: 2
Fore
SplineSet
491 397 m 1,0,-1
 440 1368 l 1,1,-1
 649 1368 l 1,2,-1
 594 397 l 1,3,-1
 491 397 l 1,0,-1
455 11.5 m 128,-1,5
 420 46 420 46 420 96.5 c 128,-1,6
 420 147 420 147 455 183 c 128,-1,7
 490 219 490 219 540 219 c 128,-1,8
 590 219 590 219 626.5 182.5 c 128,-1,9
 663 146 663 146 663 97.5 c 128,-1,10
 663 49 663 49 627 13 c 128,-1,11
 591 -23 591 -23 540.5 -23 c 128,-1,4
 490 -23 490 -23 455 11.5 c 128,-1,5
EndSplineSet
EndChar

StartChar: quotedbl
Encoding: 34 34 5
Width: 1126
GlyphClass: 2
Flags: W
LayerCount: 2
Fore
SplineSet
694 1007 m 1,0,-1
 655 1521 l 1,1,-1
 851 1521 l 1,2,-1
 812 1007 l 1,3,-1
 694 1007 l 1,0,-1
348 1007 m 1,4,-1
 309 1521 l 1,5,-1
 505 1521 l 1,6,-1
 466 1007 l 1,7,-1
 348 1007 l 1,4,-1
EndSplineSet
EndChar

StartChar: numbersign
Encoding: 35 35 6
Width: 1126
GlyphClass: 2
Flags: W
LayerCount: 2
Fore
SplineSet
258 27 m 1,0,-1
 299 375 l 1,1,-1
 94 375 l 1,2,-1
 113 494 l 1,3,-1
 313 494 l 1,4,-1
 351 813 l 1,5,-1
 133 813 l 1,6,-1
 154 936 l 1,7,-1
 366 936 l 1,8,-1
 406 1278 l 1,9,-1
 530 1282 l 1,10,-1
 488 936 l 1,11,-1
 714 936 l 1,12,-1
 754 1278 l 1,13,-1
 879 1282 l 1,14,-1
 837 936 l 1,15,-1
 1026 936 l 1,16,-1
 1006 813 l 1,17,-1
 822 813 l 1,18,-1
 783 494 l 1,19,-1
 987 494 l 1,20,-1
 969 375 l 1,21,-1
 769 375 l 1,22,-1
 727 27 l 1,23,-1
 606 27 l 1,24,-1
 647 375 l 1,25,-1
 421 375 l 1,26,-1
 379 27 l 1,27,-1
 258 27 l 1,0,-1
435 494 m 1,28,-1
 661 494 l 1,29,-1
 699 813 l 1,30,-1
 473 813 l 1,31,-1
 435 494 l 1,28,-1
EndSplineSet
EndChar

StartChar: dollar
Encoding: 36 36 7
Width: 1126
GlyphClass: 2
Flags: W
LayerCount: 2
Fore
SplineSet
291.5 727.5 m 128,-1,1
 213 803 213 803 213 914 c 128,-1,2
 213 1025 213 1025 302 1107.5 c 128,-1,3
 391 1190 391 1190 532 1210 c 1,4,-1
 532 1333 l 1,5,-1
 663 1333 l 1,6,7
 665 1331 665 1331 665 1328.5 c 128,-1,8
 665 1326 665 1326 659 1314 c 128,-1,9
 653 1302 653 1302 651 1290 c 1,10,-1
 651 1212 l 1,11,12
 844 1190 844 1190 956 1055 c 1,13,-1
 868 944 l 1,14,15
 862 947 862 947 856.5 964 c 128,-1,16
 851 981 851 981 846 987 c 0,17,18
 772 1072 772 1072 651 1092 c 1,19,-1
 651 696 l 1,20,21
 833 638 833 638 913 565.5 c 128,-1,22
 993 493 993 493 993 371 c 0,23,24
 993 293 993 293 953 221.5 c 128,-1,25
 913 150 913 150 833.5 98 c 128,-1,26
 754 46 754 46 651 33 c 1,27,-1
 651 -96 l 1,28,-1
 532 -96 l 1,29,-1
 532 29 l 1,30,31
 309 46 309 46 174 193 c 1,32,-1
 262 315 l 1,33,34
 268 311 268 311 270.5 294 c 128,-1,35
 273 277 273 277 276 272 c 1,36,37
 380 162 380 162 532 147 c 1,38,-1
 532 598 l 1,39,0
 370 652 370 652 291.5 727.5 c 128,-1,1
348 930 m 0,40,41
 348 812 348 812 532 739 c 1,42,-1
 532 1094 l 1,43,44
 443 1083 443 1083 395.5 1037.5 c 128,-1,45
 348 992 348 992 348 930 c 0,40,41
803 229.5 m 128,-1,47
 860 290 860 290 860 362.5 c 128,-1,48
 860 435 860 435 812 479 c 128,-1,49
 764 523 764 523 651 559 c 1,50,-1
 651 152 l 1,51,46
 746 169 746 169 803 229.5 c 128,-1,47
EndSplineSet
EndChar

StartChar: percent
Encoding: 37 37 8
Width: 1126
GlyphClass: 2
Flags: W
LayerCount: 2
Fore
SplineSet
155 0 m 1,0,-1
 862 1376 l 1,1,-1
 989 1376 l 1,2,-1
 276 0 l 1,3,-1
 155 0 l 1,0,-1
481.5 920 m 128,-1,5
 415 844 415 844 320.5 844 c 128,-1,6
 226 844 226 844 158.5 920.5 c 128,-1,7
 91 997 91 997 91 1108 c 128,-1,8
 91 1219 91 1219 159 1296.5 c 128,-1,9
 227 1374 227 1374 321.5 1374 c 128,-1,10
 416 1374 416 1374 482 1296 c 128,-1,11
 548 1218 548 1218 548 1107 c 128,-1,4
 548 996 548 996 481.5 920 c 128,-1,5
241.5 993 m 128,-1,13
 271 946 271 946 318.5 946 c 128,-1,14
 366 946 366 946 396.5 986.5 c 128,-1,15
 427 1027 427 1027 427 1101 c 128,-1,16
 427 1175 427 1175 397.5 1222.5 c 128,-1,17
 368 1270 368 1270 318.5 1270 c 128,-1,18
 269 1270 269 1270 240.5 1226 c 128,-1,19
 212 1182 212 1182 212 1111 c 128,-1,12
 212 1040 212 1040 241.5 993 c 128,-1,13
581 244 m 128,-1,21
 581 355 581 355 649 432.5 c 128,-1,22
 717 510 717 510 811.5 510 c 128,-1,23
 906 510 906 510 972 432 c 128,-1,24
 1038 354 1038 354 1038 243 c 128,-1,25
 1038 132 1038 132 971.5 56 c 128,-1,26
 905 -20 905 -20 810.5 -20 c 128,-1,27
 716 -20 716 -20 648.5 56.5 c 128,-1,20
 581 133 581 133 581 244 c 128,-1,21
730.5 362 m 128,-1,29
 702 318 702 318 702 247 c 128,-1,30
 702 176 702 176 731.5 129 c 128,-1,31
 761 82 761 82 808.5 82 c 128,-1,32
 856 82 856 82 886.5 122.5 c 128,-1,33
 917 163 917 163 917 237 c 128,-1,34
 917 311 917 311 887.5 358.5 c 128,-1,35
 858 406 858 406 808.5 406 c 128,-1,28
 759 406 759 406 730.5 362 c 128,-1,29
EndSplineSet
EndChar

StartChar: ampersand
Encoding: 38 38 9
Width: 1126
GlyphClass: 2
Flags: W
LayerCount: 2
Fore
SplineSet
216 70 m 128,-1,1
 125 160 125 160 125 288 c 128,-1,2
 125 416 125 416 195.5 526.5 c 128,-1,3
 266 637 266 637 383 702 c 1,4,5
 237 880 237 880 237 1020 c 0,6,7
 237 1134 237 1134 319.5 1211 c 128,-1,8
 402 1288 402 1288 520 1288 c 128,-1,9
 638 1288 638 1288 716 1207.5 c 128,-1,10
 794 1127 794 1127 794 1022.5 c 128,-1,11
 794 918 794 918 731.5 818.5 c 128,-1,12
 669 719 669 719 573 676 c 1,13,-1
 803 354 l 1,14,15
 834 392 834 392 862.5 445 c 128,-1,16
 891 498 891 498 897 537 c 1,17,-1
 895 561 l 2,18,19
 895 572 895 572 903 582 c 1,20,-1
 1036 489 l 1,21,22
 966 368 966 368 880 252 c 1,23,-1
 1024 66 l 1,24,-1
 903 -25 l 1,25,-1
 790 156 l 1,26,27
 726 74 726 74 635 27 c 128,-1,28
 544 -20 544 -20 444 -20 c 0,29,0
 307 -20 307 -20 216 70 c 128,-1,1
616.5 867.5 m 128,-1,31
 659 938 659 938 659 1005.5 c 128,-1,32
 659 1073 659 1073 617 1120 c 128,-1,33
 575 1167 575 1167 518.5 1167 c 128,-1,34
 462 1167 462 1167 420.5 1125.5 c 128,-1,35
 379 1084 379 1084 379 1018 c 0,36,37
 379 921 379 921 504 764 c 1,38,30
 574 797 574 797 616.5 867.5 c 128,-1,31
327.5 474 m 128,-1,40
 280 392 280 392 280 310 c 128,-1,41
 280 228 280 228 333 169.5 c 128,-1,42
 386 111 386 111 453.5 111 c 128,-1,43
 521 111 521 111 585.5 144.5 c 128,-1,44
 650 178 650 178 684 217 c 2,45,-1
 715 252 l 1,46,-1
 454 606 l 1,47,39
 375 556 375 556 327.5 474 c 128,-1,40
EndSplineSet
EndChar

StartChar: quotesingle
Encoding: 39 39 10
Width: 1126
GlyphClass: 2
Flags: W
LayerCount: 2
Fore
SplineSet
553 1007 m 1,0,-1
 514 1521 l 1,1,-1
 710 1521 l 1,2,-1
 671 1007 l 1,3,-1
 553 1007 l 1,0,-1
EndSplineSet
EndChar

StartChar: parenleft
Encoding: 40 40 11
Width: 1126
GlyphClass: 2
Flags: W
LayerCount: 2
Fore
SplineSet
845 1234 m 2,0,-1
 830 1236 l 1,1,2
 809 1234 809 1234 791 1223 c 0,3,4
 612 1110 612 1110 519 924.5 c 128,-1,5
 426 739 426 739 426 501.5 c 128,-1,6
 426 264 426 264 545 66 c 128,-1,7
 664 -132 664 -132 870 -246 c 1,8,-1
 805 -354 l 1,9,10
 560 -236 560 -236 422.5 -7 c 128,-1,11
 285 222 285 222 285 505 c 128,-1,12
 285 788 285 788 422 1018.5 c 128,-1,13
 559 1249 559 1249 803 1364 c 1,14,-1
 864 1239 l 1,15,16
 852 1234 852 1234 845 1234 c 2,0,-1
EndSplineSet
EndChar

StartChar: parenright
Encoding: 41 41 12
Width: 1126
GlyphClass: 2
Flags: W
LayerCount: 2
Fore
SplineSet
291 -229 m 1,0,1
 291 -229 291 -229 310 -225 c 1,2,-1
 325 -226 l 1,3,4
 343 -226 343 -226 364 -213 c 0,5,6
 543 -101 543 -101 636 84.5 c 128,-1,7
 729 270 729 270 729 508 c 128,-1,8
 729 746 729 746 610 944 c 128,-1,9
 491 1142 491 1142 285 1256 c 1,10,-1
 350 1364 l 1,11,12
 595 1246 595 1246 732.5 1017 c 128,-1,13
 870 788 870 788 870 505 c 128,-1,14
 870 222 870 222 733 -8.5 c 128,-1,15
 596 -239 596 -239 352 -354 c 1,16,-1
 291 -229 l 1,0,1
EndSplineSet
EndChar

StartChar: asterisk
Encoding: 42 42 13
Width: 1126
GlyphClass: 2
Flags: W
LayerCount: 2
Fore
SplineSet
335 530 m 1,0,-1
 224 620 l 1,1,-1
 490 927 l 1,2,-1
 136 1036 l 1,3,-1
 189 1169 l 1,4,-1
 521 1013 l 1,5,-1
 488 1376 l 1,6,-1
 666 1376 l 1,7,8
 664 1357 664 1357 654 1342 c 128,-1,9
 644 1327 644 1327 643 1311 c 2,10,-1
 611 1013 l 1,11,-1
 937 1161 l 1,12,-1
 990 1036 l 1,13,-1
 640 929 l 1,14,-1
 898 620 l 1,15,-1
 785 532 l 1,16,-1
 564 872 l 1,17,-1
 335 530 l 1,0,-1
EndSplineSet
EndChar

StartChar: plus
Encoding: 43 43 14
Width: 1126
GlyphClass: 2
Flags: W
LayerCount: 2
Fore
SplineSet
506 246 m 1,0,-1
 506 596 l 1,1,-1
 143 596 l 1,2,-1
 143 721 l 1,3,-1
 506 721 l 1,4,-1
 506 1071 l 1,5,-1
 635 1071 l 1,6,-1
 635 721 l 1,7,-1
 985 721 l 1,8,-1
 985 596 l 1,9,-1
 635 596 l 1,10,-1
 635 246 l 1,11,-1
 506 246 l 1,0,-1
EndSplineSet
EndChar

StartChar: comma
Encoding: 44 44 15
Width: 1126
GlyphClass: 2
Flags: W
LayerCount: 2
Fore
SplineSet
451.5 186.5 m 128,-1,1
 485 221 485 221 538 221 c 0,2,3
 609 221 609 221 643.5 179 c 128,-1,4
 678 137 678 137 678 71 c 0,5,6
 678 -35 678 -35 617 -142.5 c 128,-1,7
 556 -250 556 -250 405 -404 c 1,8,-1
 329 -334 l 1,9,10
 522 -146 522 -146 522 -68 c 0,11,12
 522 -40 522 -40 486 -8 c 0,13,14
 470 5 470 5 454 20 c 0,15,16
 418 55 418 55 418 103.5 c 128,-1,0
 418 152 418 152 451.5 186.5 c 128,-1,1
EndSplineSet
EndChar

StartChar: hyphen
Encoding: 45 45 16
Width: 1126
GlyphClass: 2
Flags: W
LayerCount: 2
Fore
SplineSet
196 575 m 1,0,-1
 196 713 l 1,1,-1
 934 713 l 1,2,-1
 934 575 l 1,3,-1
 196 575 l 1,0,-1
EndSplineSet
EndChar

StartChar: period
Encoding: 46 46 17
Width: 1126
GlyphClass: 2
Flags: W
LayerCount: 2
Fore
SplineSet
437.5 212.5 m 128,-1,1
 475 252 475 252 531 252 c 128,-1,2
 587 252 587 252 629.5 212 c 128,-1,3
 672 172 672 172 672 115.5 c 128,-1,4
 672 59 672 59 634 19.5 c 128,-1,5
 596 -20 596 -20 540 -20 c 128,-1,6
 484 -20 484 -20 442.5 20 c 128,-1,7
 401 60 401 60 400.5 116.5 c 128,-1,0
 400 173 400 173 437.5 212.5 c 128,-1,1
EndSplineSet
EndChar

StartChar: slash
Encoding: 47 47 18
Width: 1126
GlyphClass: 2
Flags: W
LayerCount: 2
Fore
SplineSet
182 -27 m 1,0,-1
 823 1362 l 1,1,-1
 946 1298 l 1,2,-1
 303 -86 l 1,3,-1
 182 -27 l 1,0,-1
EndSplineSet
EndChar

StartChar: zero
Encoding: 48 48 19
Width: 1126
GlyphClass: 2
Flags: W
LayerCount: 2
Fore
SplineSet
875 148 m 128,-1,1
 757 -23 757 -23 562 -23 c 128,-1,2
 367 -23 367 -23 250 150.5 c 128,-1,3
 133 324 133 324 133 628.5 c 128,-1,4
 133 933 133 933 250 1108.5 c 128,-1,5
 367 1284 367 1284 562 1284 c 128,-1,6
 757 1284 757 1284 875 1105.5 c 128,-1,7
 993 927 993 927 993 623 c 128,-1,0
 993 319 993 319 875 148 c 128,-1,1
563 1159 m 0,8,9
 430 1159 430 1159 348 1023.5 c 128,-1,10
 266 888 266 888 266 658.5 c 128,-1,11
 266 429 266 429 335 286 c 1,12,-1
 710 1102 l 1,13,14
 646 1159 646 1159 563 1159 c 0,8,9
573 109 m 0,15,16
 704 109 704 109 782 247 c 128,-1,17
 860 385 860 385 860 617 c 128,-1,18
 860 849 860 849 791 992 c 1,19,-1
 412 175 l 1,20,21
 483 109 483 109 573 109 c 0,15,16
EndSplineSet
EndChar

StartChar: one
Encoding: 49 49 20
Width: 1126
GlyphClass: 2
Flags: W
LayerCount: 2
Fore
SplineSet
522 0 m 1,0,-1
 522 1100 l 1,1,-1
 264 1024 l 1,2,-1
 231 1104 l 1,3,-1
 565 1278 l 1,4,-1
 666 1278 l 1,5,-1
 666 0 l 1,6,-1
 522 0 l 1,0,-1
EndSplineSet
EndChar

StartChar: two
Encoding: 50 50 21
Width: 1126
GlyphClass: 2
Flags: W
LayerCount: 2
Fore
SplineSet
200 0 m 1,0,-1
 200 90 l 1,1,2
 434 403 434 403 613 621 c 0,3,4
 661 679 661 679 681 706 c 128,-1,5
 701 733 701 733 728 776.5 c 128,-1,6
 755 820 755 820 765 859.5 c 128,-1,7
 775 899 775 899 775 946 c 0,8,9
 775 1051 775 1051 720 1108 c 128,-1,10
 665 1165 665 1165 560 1165 c 0,11,12
 485 1165 485 1165 428 1139 c 128,-1,13
 371 1113 371 1113 343.5 1084.5 c 128,-1,14
 316 1056 316 1056 305 1029.5 c 128,-1,15
 294 1003 294 1003 281 988 c 1,16,-1
 169 1069 l 1,17,18
 308 1290 308 1290 566 1290 c 0,19,20
 732 1290 732 1290 829 1199.5 c 128,-1,21
 926 1109 926 1109 926 947 c 0,22,23
 926 864 926 864 892 784 c 1,24,25
 869 726 869 726 790 628 c 0,26,27
 765 596 765 596 690.5 508 c 128,-1,28
 616 420 616 420 575.5 369.5 c 128,-1,29
 535 319 535 319 387 127 c 1,30,-1
 871 127 l 2,31,32
 892 127 892 127 911.5 134 c 128,-1,33
 931 141 931 141 940 141 c 1,34,-1
 940 0 l 1,35,-1
 200 0 l 1,0,-1
EndSplineSet
EndChar

StartChar: three
Encoding: 51 51 22
Width: 1126
GlyphClass: 2
Flags: W
LayerCount: 2
Fore
SplineSet
530 109 m 0,0,1
 642 109 642 109 708 174.5 c 128,-1,2
 774 240 774 240 774 347 c 0,3,4
 774 452 774 452 702 523 c 0,5,6
 622 602 622 602 439 602 c 2,7,-1
 412 602 l 1,8,-1
 412 725 l 1,9,10
 573 725 573 725 660.5 787 c 128,-1,11
 748 849 748 849 748 966 c 0,12,13
 748 1061 748 1061 691 1113 c 128,-1,14
 634 1165 634 1165 538 1165 c 0,15,16
 463 1165 463 1165 407.5 1135 c 128,-1,17
 352 1105 352 1105 296 1051 c 1,18,-1
 214 1143 l 1,19,20
 288 1217 288 1217 364.5 1253 c 128,-1,21
 441 1289 441 1289 540 1289 c 0,22,23
 699 1289 699 1289 797.5 1203 c 128,-1,24
 896 1117 896 1117 896 970 c 0,25,26
 896 860 896 860 839 787 c 128,-1,27
 782 714 782 714 685 677 c 1,28,29
 814 633 814 633 868 553.5 c 128,-1,30
 922 474 922 474 922 357 c 0,31,32
 922 177 922 177 813.5 77 c 128,-1,33
 705 -23 705 -23 520 -23 c 0,34,35
 408 -23 408 -23 315.5 14.5 c 128,-1,36
 223 52 223 52 164 123 c 1,37,-1
 272 252 l 1,38,39
 287 238 287 238 291 219 c 0,40,41
 300 175 300 175 372 142 c 128,-1,42
 444 109 444 109 530 109 c 0,0,1
EndSplineSet
EndChar

StartChar: four
Encoding: 52 52 23
Width: 1126
GlyphClass: 2
Flags: W
LayerCount: 2
Fore
SplineSet
111 296 m 1,0,-1
 111 399 l 1,1,-1
 676 1276 l 1,2,-1
 853 1276 l 1,3,-1
 853 419 l 1,4,-1
 1017 419 l 1,5,-1
 1017 296 l 1,6,-1
 851 296 l 1,7,-1
 851 0 l 1,8,-1
 707 0 l 1,9,-1
 707 296 l 1,10,-1
 111 296 l 1,0,-1
709 419 m 1,11,-1
 709 1112 l 1,12,-1
 278 419 l 1,13,-1
 709 419 l 1,11,-1
EndSplineSet
EndChar

StartChar: five
Encoding: 53 53 24
Width: 1126
GlyphClass: 2
Flags: W
LayerCount: 2
Fore
SplineSet
557 102 m 0,0,1
 685 102 685 102 745 179 c 128,-1,2
 805 256 805 256 805 399 c 128,-1,3
 805 542 805 542 734 626.5 c 128,-1,4
 663 711 663 711 543 711 c 0,5,6
 477 711 477 711 414 679 c 128,-1,7
 351 647 351 647 303 590 c 1,8,-1
 221 627 l 1,9,-1
 256 1276 l 1,10,-1
 903 1276 l 1,11,-1
 903 1153 l 1,12,-1
 377 1153 l 1,13,-1
 356 768 l 1,14,15
 444 829 444 829 565 829 c 0,16,17
 742 829 742 829 845 710.5 c 128,-1,18
 948 592 948 592 950 401 c 1,19,20
 950 209 950 209 839.5 93 c 128,-1,21
 729 -23 729 -23 549 -23 c 0,22,23
 302 -23 302 -23 170 174 c 1,24,-1
 297 268 l 1,25,26
 307 261 307 261 311 221 c 1,27,28
 331 186 331 186 385 148 c 0,29,30
 451 102 451 102 557 102 c 0,0,1
EndSplineSet
EndChar

StartChar: six
Encoding: 54 54 25
Width: 1126
GlyphClass: 2
Flags: W
LayerCount: 2
Fore
SplineSet
597 -20 m 0,0,1
 385 -20 385 -20 268.5 138.5 c 128,-1,2
 152 297 152 297 152 608 c 128,-1,3
 152 919 152 919 285 1104.5 c 128,-1,4
 418 1290 418 1290 656 1290 c 0,5,6
 754 1290 754 1290 824.5 1258 c 128,-1,7
 895 1226 895 1226 957 1166 c 1,8,-1
 856 1057 l 1,9,10
 838 1072 838 1072 834 1088 c 1,11,12
 830 1114 830 1114 772 1138.5 c 128,-1,13
 714 1163 714 1163 652 1163 c 0,14,15
 486 1163 486 1163 390 1033.5 c 128,-1,16
 294 904 294 904 293 670 c 1,17,18
 348 741 348 741 432 782 c 128,-1,19
 516 823 516 823 618 823 c 0,20,21
 786 823 786 823 883.5 712 c 128,-1,22
 981 601 981 601 981 402.5 c 128,-1,23
 981 204 981 204 879.5 92 c 128,-1,24
 778 -20 778 -20 597 -20 c 0,0,1
595 106 m 0,25,26
 715 106 715 106 778.5 184 c 128,-1,27
 842 262 842 262 842 403 c 128,-1,28
 842 544 842 544 778 621 c 128,-1,29
 714 698 714 698 596 698 c 0,30,31
 420 698 420 698 301 526 c 1,32,-1
 299 477 l 1,33,34
 299 304 299 304 379 205 c 128,-1,35
 459 106 459 106 595 106 c 0,25,26
EndSplineSet
EndChar

StartChar: seven
Encoding: 55 55 26
Width: 1126
GlyphClass: 2
Flags: W
LayerCount: 2
Fore
SplineSet
182 1153 m 1,0,-1
 182 1276 l 1,1,-1
 987 1276 l 1,2,-1
 987 1196 l 1,3,4
 681 528 681 528 520 0 c 1,5,-1
 347 0 l 1,6,7
 527 538 527 538 798 1153 c 1,8,-1
 182 1153 l 1,0,-1
EndSplineSet
EndChar

StartChar: eight
Encoding: 56 56 27
Width: 1126
GlyphClass: 2
Flags: W
LayerCount: 2
Fore
SplineSet
168 322 m 0,0,1
 168 434 168 434 235 527 c 128,-1,2
 302 620 302 620 424 677 c 1,3,4
 229 795 229 795 229 977 c 0,5,6
 229 1126 229 1126 319 1207 c 128,-1,7
 409 1288 409 1288 569 1288 c 128,-1,8
 729 1288 729 1288 817 1210 c 128,-1,9
 905 1132 905 1132 905 989 c 0,10,11
 905 895 905 895 851.5 813.5 c 128,-1,12
 798 732 798 732 703 681 c 1,13,14
 878 586 878 586 914 470 c 0,15,16
 931 414 931 414 931 326 c 128,-1,17
 931 238 931 238 890 160 c 128,-1,18
 849 82 849 82 762 31 c 128,-1,19
 675 -20 675 -20 557 -20 c 0,20,21
 374 -20 374 -20 271 70 c 128,-1,22
 168 160 168 160 168 322 c 0,0,1
717 846.5 m 128,-1,24
 760 912 760 912 760 992.5 c 128,-1,25
 760 1073 760 1073 709 1121.5 c 128,-1,26
 658 1170 658 1170 564.5 1170 c 128,-1,27
 471 1170 471 1170 419 1123 c 128,-1,28
 367 1076 367 1076 367 995.5 c 128,-1,29
 367 915 367 915 416.5 860 c 128,-1,30
 466 805 466 805 597 736 c 1,31,23
 674 781 674 781 717 846.5 c 128,-1,24
372.5 503.5 m 128,-1,33
 315 429 315 429 315 329 c 128,-1,34
 315 229 315 229 380.5 169 c 128,-1,35
 446 109 446 109 553.5 109 c 128,-1,36
 661 109 661 109 723 178.5 c 128,-1,37
 785 248 785 248 785 338 c 128,-1,38
 785 428 785 428 732 491.5 c 128,-1,39
 679 555 679 555 534 622 c 1,40,32
 430 578 430 578 372.5 503.5 c 128,-1,33
EndSplineSet
EndChar

StartChar: nine
Encoding: 57 57 28
Width: 1126
GlyphClass: 2
Flags: W
LayerCount: 2
Fore
SplineSet
474 107 m 0,0,1
 640 107 640 107 736 236.5 c 128,-1,2
 832 366 832 366 833 600 c 1,3,4
 778 529 778 529 694 488 c 128,-1,5
 610 447 610 447 508 447 c 0,6,7
 340 447 340 447 242.5 558 c 128,-1,8
 145 669 145 669 145 867.5 c 128,-1,9
 145 1066 145 1066 246.5 1178 c 128,-1,10
 348 1290 348 1290 529 1290 c 0,11,12
 741 1290 741 1290 857.5 1131.5 c 128,-1,13
 974 973 974 973 974 662 c 128,-1,14
 974 351 974 351 841 165.5 c 128,-1,15
 708 -20 708 -20 470 -20 c 0,16,17
 372 -20 372 -20 301.5 12 c 128,-1,18
 231 44 231 44 169 104 c 1,19,-1
 270 213 l 1,20,21
 288 198 288 198 292 182 c 1,22,23
 296 156 296 156 354 131.5 c 128,-1,24
 412 107 412 107 474 107 c 0,0,1
530 572 m 0,25,26
 706 572 706 572 825 744 c 1,27,-1
 827 793 l 1,28,29
 827 966 827 966 747 1065 c 128,-1,30
 667 1164 667 1164 531 1164 c 0,31,32
 411 1164 411 1164 347.5 1086 c 128,-1,33
 284 1008 284 1008 284 867 c 128,-1,34
 284 726 284 726 348 649 c 128,-1,35
 412 572 412 572 530 572 c 0,25,26
EndSplineSet
EndChar

StartChar: colon
Encoding: 58 58 29
Width: 1126
GlyphClass: 2
Flags: W
LayerCount: 2
Fore
SplineSet
625 665 m 128,-1,1
 589 631 589 631 538.5 631 c 128,-1,2
 488 631 488 631 453 665 c 128,-1,3
 418 699 418 699 418 747.5 c 128,-1,4
 418 796 418 796 454 831 c 128,-1,5
 490 866 490 866 539 866 c 128,-1,6
 588 866 588 866 624.5 831.5 c 128,-1,7
 661 797 661 797 661 748 c 128,-1,0
 661 699 661 699 625 665 c 128,-1,1
452.5 11 m 128,-1,9
 418 45 418 45 418 93.5 c 128,-1,10
 418 142 418 142 453 177.5 c 128,-1,11
 488 213 488 213 538 213 c 128,-1,12
 588 213 588 213 624.5 178 c 128,-1,13
 661 143 661 143 661 95 c 128,-1,14
 661 47 661 47 625.5 12 c 128,-1,15
 590 -23 590 -23 538.5 -23 c 128,-1,8
 487 -23 487 -23 452.5 11 c 128,-1,9
EndSplineSet
EndChar

StartChar: semicolon
Encoding: 59 59 30
Width: 1126
GlyphClass: 2
Flags: W
LayerCount: 2
Fore
SplineSet
625 665 m 128,-1,1
 589 631 589 631 538.5 631 c 128,-1,2
 488 631 488 631 453 665 c 128,-1,3
 418 699 418 699 418 747.5 c 128,-1,4
 418 796 418 796 454 831 c 128,-1,5
 490 866 490 866 539 866 c 128,-1,6
 588 866 588 866 624.5 831.5 c 128,-1,7
 661 797 661 797 661 748 c 128,-1,0
 661 699 661 699 625 665 c 128,-1,1
451.5 186.5 m 128,-1,9
 485 221 485 221 538 221 c 0,10,11
 609 221 609 221 643.5 179 c 128,-1,12
 678 137 678 137 678 71 c 0,13,14
 678 -35 678 -35 617 -142.5 c 128,-1,15
 556 -250 556 -250 405 -404 c 1,16,-1
 329 -334 l 1,17,18
 522 -146 522 -146 522 -68 c 0,19,20
 522 -40 522 -40 486 -8 c 0,21,22
 470 5 470 5 454 20 c 0,23,24
 418 55 418 55 418 103.5 c 128,-1,8
 418 152 418 152 451.5 186.5 c 128,-1,9
EndSplineSet
EndChar

StartChar: less
Encoding: 60 60 31
Width: 1126
GlyphClass: 2
Flags: W
LayerCount: 2
Fore
SplineSet
124 606 m 1,0,-1
 124 705 l 1,1,-1
 990 1161 l 1,2,-1
 990 1016 l 1,3,-1
 279 653 l 1,4,-1
 996 252 l 1,5,-1
 996 96 l 1,6,-1
 124 606 l 1,0,-1
EndSplineSet
EndChar

StartChar: equal
Encoding: 61 61 32
Width: 1126
GlyphClass: 2
Flags: W
LayerCount: 2
Fore
SplineSet
143 771 m 1,0,-1
 143 896 l 1,1,-1
 985 896 l 1,2,-1
 985 771 l 1,3,-1
 143 771 l 1,0,-1
143 421 m 1,4,-1
 143 546 l 1,5,-1
 985 546 l 1,6,-1
 985 421 l 1,7,-1
 143 421 l 1,4,-1
EndSplineSet
EndChar

StartChar: greater
Encoding: 62 62 33
Width: 1126
GlyphClass: 2
Flags: W
LayerCount: 2
Fore
SplineSet
133 96 m 1,0,-1
 133 252 l 1,1,-1
 848 653 l 1,2,-1
 137 1016 l 1,3,-1
 137 1161 l 1,4,-1
 1005 705 l 1,5,-1
 1005 606 l 1,6,-1
 133 96 l 1,0,-1
EndSplineSet
EndChar

StartChar: question
Encoding: 63 63 34
Width: 1126
GlyphClass: 2
Flags: W
LayerCount: 2
Fore
SplineSet
510 379 m 1,0,-1
 510 463 l 1,1,2
 509 543 509 543 544 618 c 128,-1,3
 579 693 579 693 664 778 c 0,4,5
 720 834 720 834 752 900.5 c 128,-1,6
 784 967 784 967 784 1028 c 0,7,8
 784 1120 784 1120 732 1172.5 c 128,-1,9
 680 1225 680 1225 586.5 1225 c 128,-1,10
 493 1225 493 1225 413.5 1178.5 c 128,-1,11
 334 1132 334 1132 287 1051 c 1,12,-1
 182 1149 l 1,13,14
 248 1249 248 1249 354.5 1305.5 c 128,-1,15
 461 1362 461 1362 584 1362 c 0,16,17
 754 1362 754 1362 849 1277.5 c 128,-1,18
 944 1193 944 1193 944 1042 c 0,19,20
 944 964 944 964 903 880 c 128,-1,21
 862 796 862 796 787 718 c 128,-1,22
 712 640 712 640 682.5 580.5 c 128,-1,23
 653 521 653 521 653 463 c 2,24,-1
 653 379 l 1,25,-1
 510 379 l 1,0,-1
497 4 m 128,-1,27
 465 35 465 35 465 90.5 c 128,-1,28
 465 146 465 146 497 177.5 c 128,-1,29
 529 209 529 209 586 209 c 128,-1,30
 643 209 643 209 675 177.5 c 128,-1,31
 707 146 707 146 707 90.5 c 128,-1,32
 707 35 707 35 675 4 c 128,-1,33
 643 -27 643 -27 586 -27 c 128,-1,26
 529 -27 529 -27 497 4 c 128,-1,27
EndSplineSet
EndChar

StartChar: at
Encoding: 64 64 35
Width: 1126
GlyphClass: 2
Flags: W
LayerCount: 2
Fore
SplineSet
144 397 m 0,0,1
 114 508 114 508 114 640.5 c 128,-1,2
 114 773 114 773 143 883 c 128,-1,3
 172 993 172 993 220.5 1068 c 128,-1,4
 269 1143 269 1143 333 1196 c 0,5,6
 456 1296 456 1296 606 1296 c 0,7,8
 1003 1296 1003 1296 1003 774 c 2,9,-1
 1003 358 l 1,10,-1
 880 358 l 1,11,-1
 880 436 l 1,12,13
 801 342 801 342 684 342 c 128,-1,14
 567 342 567 342 488 419.5 c 128,-1,15
 409 497 409 497 409 596 c 0,16,17
 409 909 409 909 844 909 c 2,18,-1
 874 909 l 1,19,20
 874 1028 874 1028 799.5 1107 c 128,-1,21
 725 1186 725 1186 600 1186 c 0,22,23
 460 1186 460 1186 352 1058 c 0,24,25
 298 995 298 995 265.5 887.5 c 128,-1,26
 233 780 233 780 233 657.5 c 128,-1,27
 233 535 233 535 258 444 c 128,-1,28
 283 353 283 353 325 289.5 c 128,-1,29
 367 226 367 226 423 181 c 0,30,31
 531 94 531 94 667 94 c 0,32,33
 783 94 783 94 887 162 c 1,34,-1
 942 61 l 1,35,36
 808 -23 808 -23 655 -23 c 0,37,38
 482 -23 482 -23 348 80 c 0,39,40
 201 192 201 192 144 397 c 0,0,1
688 455 m 0,41,42
 801 455 801 455 840.5 527.5 c 128,-1,43
 880 600 880 600 880 768 c 2,44,-1
 880 807 l 1,45,-1
 846 807 l 2,46,47
 692 807 692 807 614 758 c 128,-1,48
 536 709 536 709 536 628.5 c 128,-1,49
 536 548 536 548 583 501.5 c 128,-1,50
 630 455 630 455 688 455 c 0,41,42
EndSplineSet
EndChar

StartChar: A
Encoding: 65 65 36
Width: 1126
GlyphClass: 2
Flags: W
LayerCount: 2
Fore
SplineSet
57 0 m 1,0,-1
 530 1298 l 1,1,-1
 602 1298 l 1,2,-1
 1075 0 l 1,3,-1
 915 0 l 1,4,-1
 786 373 l 1,5,-1
 334 373 l 1,6,-1
 203 0 l 1,7,-1
 57 0 l 1,0,-1
377 496 m 1,8,-1
 743 496 l 1,9,-1
 561 1021 l 1,10,-1
 377 496 l 1,8,-1
EndSplineSet
EndChar

StartChar: B
Encoding: 66 66 37
Width: 1126
GlyphClass: 2
Flags: W
LayerCount: 2
Fore
SplineSet
139 0 m 1,0,-1
 139 1276 l 1,1,-1
 547 1276 l 2,2,3
 722 1276 722 1276 834 1197.5 c 128,-1,4
 946 1119 946 1119 946 967 c 0,5,6
 946 873 946 873 896 794 c 128,-1,7
 846 715 846 715 758 684 c 1,8,9
 862 649 862 649 929.5 559.5 c 128,-1,10
 997 470 997 470 997 358 c 0,11,12
 997 191 997 191 878.5 95.5 c 128,-1,13
 760 0 760 0 520 0 c 2,14,-1
 139 0 l 1,0,-1
283 748 m 1,15,-1
 502 748 l 2,16,17
 654 748 654 748 725.5 797.5 c 128,-1,18
 797 847 797 847 797 948 c 128,-1,19
 797 1049 797 1049 724 1101 c 128,-1,20
 651 1153 651 1153 524 1153 c 2,21,-1
 283 1153 l 1,22,-1
 283 748 l 1,15,-1
283 123 m 1,23,-1
 545 123 l 2,24,25
 846 123 846 123 846 352 c 0,26,27
 846 469 846 469 761 547 c 128,-1,28
 676 625 676 625 530 625 c 2,29,-1
 283 625 l 1,30,-1
 283 123 l 1,23,-1
EndSplineSet
EndChar

StartChar: C
Encoding: 67 67 38
Width: 1126
GlyphClass: 2
Flags: W
LayerCount: 2
Fore
SplineSet
606 -20 m 0,0,1
 371 -20 371 -20 237.5 152 c 128,-1,2
 104 324 104 324 104 632 c 128,-1,3
 104 940 104 940 239 1115 c 128,-1,4
 374 1290 374 1290 608 1290 c 0,5,6
 888 1290 888 1290 1006 1026 c 1,7,-1
 862 956 l 1,8,9
 861 958 861 958 853.5 978.5 c 128,-1,10
 846 999 846 999 836.5 1020.5 c 128,-1,11
 827 1042 827 1042 806.5 1070 c 128,-1,12
 786 1098 786 1098 759.5 1119 c 128,-1,13
 733 1140 733 1140 690.5 1155 c 128,-1,14
 648 1170 648 1170 596 1170 c 0,15,16
 438 1170 438 1170 345 1025 c 128,-1,17
 252 880 252 880 252 631 c 128,-1,18
 252 382 252 382 348 241 c 128,-1,19
 444 100 444 100 615.5 100 c 128,-1,20
 787 100 787 100 885 260 c 1,21,-1
 991 188 l 1,22,23
 857 -20 857 -20 606 -20 c 0,0,1
EndSplineSet
EndChar

StartChar: D
Encoding: 68 68 39
Width: 1126
GlyphClass: 2
Flags: W
LayerCount: 2
Fore
SplineSet
154 -2 m 1,0,-1
 154 1276 l 1,1,-1
 453 1276 l 2,2,3
 610 1276 610 1276 703.5 1233.5 c 128,-1,4
 797 1191 797 1191 864 1102 c 0,5,6
 991 931 991 931 991 640.5 c 128,-1,7
 991 350 991 350 850 168 c 0,8,9
 718 -2 718 -2 428 -2 c 2,10,-1
 154 -2 l 1,0,-1
297 121 m 1,11,-1
 422 121 l 2,12,13
 639 121 639 121 741.5 246.5 c 128,-1,14
 844 372 844 372 844 626.5 c 128,-1,15
 844 881 844 881 748 1017 c 128,-1,16
 652 1153 652 1153 444 1153 c 2,17,-1
 297 1153 l 1,18,-1
 297 121 l 1,11,-1
EndSplineSet
EndChar

StartChar: E
Encoding: 69 69 40
Width: 1126
GlyphClass: 2
Flags: W
LayerCount: 2
Fore
SplineSet
182 0 m 1,0,-1
 182 1276 l 1,1,-1
 965 1276 l 1,2,-1
 965 1153 l 1,3,-1
 326 1153 l 1,4,-1
 326 727 l 1,5,-1
 852 727 l 1,6,-1
 852 604 l 1,7,-1
 326 604 l 1,8,-1
 326 123 l 1,9,-1
 958 123 l 1,10,-1
 958 0 l 1,11,-1
 182 0 l 1,0,-1
EndSplineSet
EndChar

StartChar: F
Encoding: 70 70 41
Width: 1126
GlyphClass: 2
Flags: W
LayerCount: 2
Fore
SplineSet
200 0 m 1,0,-1
 200 1276 l 1,1,-1
 956 1276 l 1,2,-1
 956 1153 l 1,3,-1
 344 1153 l 1,4,-1
 344 752 l 1,5,-1
 842 752 l 1,6,-1
 842 629 l 1,7,-1
 344 629 l 1,8,-1
 344 0 l 1,9,-1
 200 0 l 1,0,-1
EndSplineSet
EndChar

StartChar: G
Encoding: 71 71 42
Width: 1126
GlyphClass: 2
Flags: W
LayerCount: 2
Fore
SplineSet
586 -20 m 0,0,1
 358 -20 358 -20 229 152 c 128,-1,2
 100 324 100 324 100 632 c 128,-1,3
 100 940 100 940 237.5 1115 c 128,-1,4
 375 1290 375 1290 618 1290 c 0,5,6
 745 1290 745 1290 846.5 1220.5 c 128,-1,7
 948 1151 948 1151 1001 1026 c 1,8,-1
 860 958 l 1,9,10
 857 961 857 961 849.5 989 c 128,-1,11
 842 1017 842 1017 829 1034 c 1,12,13
 739 1170 739 1170 600 1170 c 0,14,15
 435 1170 435 1170 341.5 1027 c 128,-1,16
 248 884 248 884 248 637.5 c 128,-1,17
 248 391 248 391 343.5 246 c 128,-1,18
 439 101 439 101 606 101 c 0,19,20
 720 101 720 101 829 184 c 1,21,-1
 829 487 l 1,22,-1
 598 487 l 1,23,-1
 598 610 l 1,24,-1
 973 610 l 1,25,-1
 973 109 l 1,26,27
 907 52 907 52 797.5 16 c 128,-1,28
 688 -20 688 -20 586 -20 c 0,0,1
EndSplineSet
EndChar

StartChar: H
Encoding: 72 72 43
Width: 1126
GlyphClass: 2
Flags: W
LayerCount: 2
Fore
SplineSet
139 0 m 1,0,-1
 139 1276 l 1,1,-1
 297 1276 l 1,2,3
 297 1266 297 1266 290 1247 c 128,-1,4
 283 1228 283 1228 283 1206 c 2,5,-1
 283 731 l 1,6,-1
 844 731 l 1,7,-1
 844 1276 l 1,8,-1
 1002 1276 l 1,9,10
 1002 1266 1002 1266 995 1247 c 128,-1,11
 988 1228 988 1228 988 1206 c 2,12,-1
 988 0 l 1,13,-1
 842 0 l 1,14,-1
 842 608 l 1,15,-1
 283 608 l 1,16,-1
 283 0 l 1,17,-1
 139 0 l 1,0,-1
EndSplineSet
EndChar

StartChar: I
Encoding: 73 73 44
Width: 1126
GlyphClass: 2
Flags: W
LayerCount: 2
Fore
SplineSet
213 0 m 1,0,-1
 213 125 l 1,1,-1
 485 125 l 1,2,-1
 485 1153 l 1,3,-1
 227 1153 l 1,4,-1
 227 1276 l 1,5,-1
 901 1276 l 1,6,-1
 901 1153 l 1,7,-1
 629 1153 l 1,8,-1
 629 123 l 1,9,-1
 913 123 l 1,10,-1
 913 0 l 1,11,-1
 213 0 l 1,0,-1
EndSplineSet
EndChar

StartChar: J
Encoding: 74 74 45
Width: 1126
GlyphClass: 2
Flags: W
LayerCount: 2
Fore
SplineSet
274 184 m 0,0,1
 329 115 329 115 442.5 115 c 128,-1,2
 556 115 556 115 602 186 c 128,-1,3
 648 257 648 257 648 426 c 2,4,-1
 648 1153 l 1,5,-1
 292 1153 l 1,6,-1
 292 1276 l 1,7,-1
 997 1276 l 1,8,-1
 997 1153 l 1,9,-1
 792 1153 l 1,10,-1
 792 408 l 2,11,12
 792 211 792 211 702.5 94 c 128,-1,13
 613 -23 613 -23 452 -23 c 0,14,15
 272 -23 272 -23 151 119 c 1,16,-1
 247 236 l 1,17,18
 252 231 252 231 261 210 c 128,-1,19
 270 189 270 189 274 184 c 0,0,1
EndSplineSet
EndChar

StartChar: K
Encoding: 75 75 46
Width: 1126
GlyphClass: 2
Flags: W
LayerCount: 2
Fore
SplineSet
156 0 m 1,0,-1
 156 1276 l 1,1,-1
 314 1276 l 1,2,3
 314 1266 314 1266 307 1247 c 128,-1,4
 300 1228 300 1228 300 1206 c 2,5,-1
 300 689 l 1,6,-1
 831 1286 l 1,7,8
 883 1276 883 1276 938 1276 c 2,9,-1
 991 1276 l 1,10,-1
 559 796 l 1,11,-1
 1024 0 l 1,12,-1
 872 -20 l 1,13,-1
 465 692 l 1,14,-1
 300 509 l 1,15,-1
 300 0 l 1,16,-1
 156 0 l 1,0,-1
EndSplineSet
EndChar

StartChar: L
Encoding: 76 76 47
Width: 1126
GlyphClass: 2
Flags: W
LayerCount: 2
Fore
SplineSet
209 0 m 1,0,-1
 209 1276 l 1,1,-1
 367 1276 l 1,2,3
 367 1266 367 1266 360 1247 c 128,-1,4
 353 1228 353 1228 353 1206 c 2,5,-1
 353 123 l 1,6,-1
 967 123 l 1,7,-1
 967 0 l 1,8,-1
 209 0 l 1,0,-1
EndSplineSet
EndChar

StartChar: M
Encoding: 77 77 48
Width: 1126
GlyphClass: 2
Flags: W
LayerCount: 2
Fore
SplineSet
104 0 m 1,0,-1
 104 1276 l 1,1,-1
 292 1276 l 1,2,-1
 494 817 l 1,3,-1
 570 627 l 1,4,-1
 650 815 l 1,5,-1
 866 1276 l 1,6,-1
 1021 1276 l 1,7,-1
 1021 0 l 1,8,-1
 877 0 l 1,9,-1
 877 744 l 1,10,-1
 888 1031 l 1,11,-1
 591 397 l 1,12,-1
 529 397 l 1,13,-1
 358 804 l 1,14,-1
 238 1061 l 1,15,-1
 248 793 l 1,16,-1
 248 0 l 1,17,-1
 104 0 l 1,0,-1
EndSplineSet
EndChar

StartChar: N
Encoding: 78 78 49
Width: 1126
GlyphClass: 2
Flags: W
LayerCount: 2
Fore
SplineSet
139 0 m 1,0,-1
 139 1276 l 1,1,-1
 305 1276 l 1,2,-1
 852 270 l 1,3,-1
 842 547 l 1,4,-1
 842 1276 l 1,5,-1
 1000 1276 l 1,6,7
 1000 1266 1000 1266 993 1247 c 128,-1,8
 986 1228 986 1228 986 1206 c 2,9,-1
 986 0 l 1,10,-1
 856 0 l 1,11,-1
 427 780 l 1,12,-1
 273 1064 l 1,13,-1
 283 776 l 1,14,-1
 283 0 l 1,15,-1
 139 0 l 1,0,-1
EndSplineSet
EndChar

StartChar: O
Encoding: 79 79 50
Width: 1126
GlyphClass: 2
Flags: W
LayerCount: 2
Fore
SplineSet
563 -20 m 128,-1,1
 334 -20 334 -20 204 157 c 128,-1,2
 74 334 74 334 74 643 c 128,-1,3
 74 952 74 952 204 1121 c 128,-1,4
 334 1290 334 1290 563 1290 c 128,-1,5
 792 1290 792 1290 922.5 1120.5 c 128,-1,6
 1053 951 1053 951 1053 642.5 c 128,-1,7
 1053 334 1053 334 922.5 157 c 128,-1,0
 792 -20 792 -20 563 -20 c 128,-1,1
563 99 m 128,-1,9
 725 99 725 99 815 240 c 128,-1,10
 905 381 905 381 905 634.5 c 128,-1,11
 905 888 905 888 814.5 1029 c 128,-1,12
 724 1170 724 1170 563 1170 c 128,-1,13
 402 1170 402 1170 311.5 1029 c 128,-1,14
 221 888 221 888 221 634.5 c 128,-1,15
 221 381 221 381 311 240 c 128,-1,8
 401 99 401 99 563 99 c 128,-1,9
EndSplineSet
EndChar

StartChar: P
Encoding: 80 80 51
Width: 1126
GlyphClass: 2
Flags: W
LayerCount: 2
Fore
SplineSet
162 0 m 1,0,-1
 162 1276 l 1,1,-1
 580 1276 l 2,2,3
 818 1276 818 1276 915 1122 c 0,4,5
 971 1034 971 1034 971 907 c 0,6,7
 971 718 971 718 865.5 620 c 128,-1,8
 760 522 760 522 578 522 c 2,9,-1
 306 522 l 1,10,-1
 306 0 l 1,11,-1
 162 0 l 1,0,-1
306 645 m 1,12,-1
 561 645 l 2,13,14
 690 645 690 645 755.5 704 c 128,-1,15
 821 763 821 763 821 903 c 0,16,17
 821 1017 821 1017 761.5 1085 c 128,-1,18
 702 1153 702 1153 584 1153 c 2,19,-1
 306 1153 l 1,20,-1
 306 645 l 1,12,-1
EndSplineSet
EndChar

StartChar: Q
Encoding: 81 81 52
Width: 1126
GlyphClass: 2
Flags: W
LayerCount: 2
Fore
SplineSet
178 196 m 128,-1,1
 74 369 74 369 74 660.5 c 128,-1,2
 74 952 74 952 204 1121 c 128,-1,3
 334 1290 334 1290 563 1290 c 128,-1,4
 792 1290 792 1290 922.5 1120.5 c 128,-1,5
 1053 951 1053 951 1053 647.5 c 128,-1,6
 1053 344 1053 344 931 168.5 c 128,-1,7
 809 -7 809 -7 593 -19 c 1,8,9
 598 -103 598 -103 630.5 -135.5 c 128,-1,10
 663 -168 663 -168 738 -168 c 128,-1,11
 813 -168 813 -168 911 -158 c 1,12,-1
 907 -297 l 1,13,-1
 827 -297 l 2,14,15
 727 -297 727 -297 665 -286 c 128,-1,16
 603 -275 603 -275 557.5 -243.5 c 128,-1,17
 512 -212 512 -212 492.5 -156.5 c 128,-1,18
 473 -101 473 -101 470 -12 c 1,19,0
 282 23 282 23 178 196 c 128,-1,1
563 99 m 128,-1,21
 725 99 725 99 815 240 c 128,-1,22
 905 381 905 381 905 634.5 c 128,-1,23
 905 888 905 888 814.5 1029 c 128,-1,24
 724 1170 724 1170 563 1170 c 128,-1,25
 402 1170 402 1170 311.5 1029 c 128,-1,26
 221 888 221 888 221 634.5 c 128,-1,27
 221 381 221 381 311 240 c 128,-1,20
 401 99 401 99 563 99 c 128,-1,21
EndSplineSet
EndChar

StartChar: R
Encoding: 82 82 53
Width: 1126
GlyphClass: 2
Flags: W
LayerCount: 2
Fore
SplineSet
162 0 m 1,0,-1
 162 1276 l 1,1,-1
 540 1276 l 2,2,3
 837 1276 837 1276 910 1078 c 0,4,5
 931 1020 931 1020 931 947 c 0,6,7
 931 672 931 672 669 623 c 1,8,-1
 971 0 l 1,9,-1
 811 0 l 1,10,-1
 524 612 l 1,11,-1
 305 612 l 1,12,-1
 305 0 l 1,13,-1
 162 0 l 1,0,-1
305 735 m 1,14,-1
 521 735 l 2,15,16
 589 735 589 735 632 742 c 128,-1,17
 675 749 675 749 712 770 c 0,18,19
 781 810 781 810 781 943 c 0,20,21
 781 1153 781 1153 544 1153 c 2,22,-1
 305 1153 l 1,23,-1
 305 735 l 1,14,-1
EndSplineSet
EndChar

StartChar: S
Encoding: 83 83 54
Width: 1126
GlyphClass: 2
Flags: W
LayerCount: 2
Fore
SplineSet
341.5 159 m 128,-1,1
 439 104 439 104 562 104 c 128,-1,2
 685 104 685 104 752 166 c 128,-1,3
 819 228 819 228 819 327 c 0,4,5
 819 393 819 393 780 444 c 0,6,7
 738 499 738 499 539 598 c 0,8,9
 462 637 462 637 417 662 c 128,-1,10
 372 687 372 687 322 722 c 128,-1,11
 272 757 272 757 247 789 c 0,12,13
 188 865 188 865 188 962.5 c 128,-1,14
 188 1060 188 1060 242.5 1136.5 c 128,-1,15
 297 1213 297 1213 385 1251.5 c 128,-1,16
 473 1290 473 1290 578.5 1290 c 128,-1,17
 684 1290 684 1290 776 1246 c 128,-1,18
 868 1202 868 1202 936 1124 c 1,19,-1
 842 997 l 1,20,21
 832 1001 832 1001 831 1014 c 1,22,23
 823 1064 823 1064 745 1115.5 c 128,-1,24
 667 1167 667 1167 568 1167 c 128,-1,25
 469 1167 469 1167 404.5 1119.5 c 128,-1,26
 340 1072 340 1072 340 981 c 0,27,28
 340 934 340 934 353.5 911 c 128,-1,29
 367 888 367 888 376 875.5 c 128,-1,30
 385 863 385 863 409.5 845 c 128,-1,31
 434 827 434 827 451.5 815.5 c 128,-1,32
 469 804 469 804 510 782 c 0,33,34
 573 747 573 747 652.5 707.5 c 128,-1,35
 732 668 732 668 775 643 c 128,-1,36
 818 618 818 618 859.5 585.5 c 128,-1,37
 901 553 901 553 924 520 c 0,38,39
 973 447 973 447 973 346 c 0,40,41
 973 178 973 178 857 79 c 128,-1,42
 741 -20 741 -20 543 -20 c 0,43,44
 292 -20 292 -20 141 143 c 1,45,-1
 227 291 l 1,46,47
 234 286 234 286 236 272 c 0,48,0
 244 214 244 214 341.5 159 c 128,-1,1
EndSplineSet
EndChar

StartChar: T
Encoding: 84 84 55
Width: 1126
GlyphClass: 2
Flags: W
LayerCount: 2
Fore
SplineSet
483 0 m 1,0,-1
 483 1153 l 1,1,-1
 100 1153 l 1,2,-1
 100 1276 l 1,3,-1
 1026 1276 l 1,4,-1
 1026 1153 l 1,5,-1
 627 1153 l 1,6,-1
 627 0 l 1,7,-1
 483 0 l 1,0,-1
EndSplineSet
EndChar

StartChar: U
Encoding: 85 85 56
Width: 1126
GlyphClass: 2
Flags: W
LayerCount: 2
Fore
SplineSet
127 442 m 2,0,-1
 127 1276 l 1,1,-1
 285 1276 l 1,2,3
 285 1266 285 1266 278 1247 c 128,-1,4
 271 1228 271 1228 271 1206 c 2,5,-1
 271 434 l 2,6,7
 271 276 271 276 345.5 194.5 c 128,-1,8
 420 113 420 113 559 113 c 128,-1,9
 698 113 698 113 778 198 c 128,-1,10
 858 283 858 283 858 440 c 2,11,-1
 858 1276 l 1,12,-1
 1001 1276 l 1,13,-1
 1001 449 l 2,14,15
 1001 231 1001 231 882.5 104 c 128,-1,16
 764 -23 764 -23 563 -23 c 128,-1,17
 362 -23 362 -23 244.5 96 c 128,-1,18
 127 215 127 215 127 442 c 2,0,-1
EndSplineSet
EndChar

StartChar: V
Encoding: 86 86 57
Width: 1126
GlyphClass: 2
Flags: W
LayerCount: 2
Fore
SplineSet
520 0 m 1,0,-1
 81 1276 l 1,1,-1
 235 1276 l 1,2,-1
 575 267 l 1,3,-1
 890 1276 l 1,4,-1
 1047 1276 l 1,5,-1
 608 0 l 1,6,-1
 520 0 l 1,0,-1
EndSplineSet
EndChar

StartChar: W
Encoding: 87 87 58
Width: 1126
GlyphClass: 2
Flags: W
LayerCount: 2
Fore
SplineSet
276 0 m 1,0,-1
 10 1276 l 1,1,-1
 154 1276 l 1,2,-1
 340 383 l 1,3,-1
 559 1182 l 1,4,-1
 608 1182 l 1,5,-1
 817 350 l 1,6,-1
 975 1276 l 1,7,-1
 1120 1276 l 1,8,-1
 866 0 l 1,9,-1
 774 0 l 1,10,-1
 576 800 l 1,11,-1
 345 0 l 1,12,-1
 276 0 l 1,0,-1
EndSplineSet
EndChar

StartChar: X
Encoding: 88 88 59
Width: 1126
GlyphClass: 2
Flags: W
LayerCount: 2
Fore
SplineSet
113 0 m 1,0,-1
 468 674 l 1,1,-1
 115 1278 l 1,2,-1
 274 1278 l 1,3,-1
 577 764 l 1,4,-1
 858 1278 l 1,5,-1
 1012 1278 l 1,6,-1
 656 631 l 1,7,-1
 1028 0 l 1,8,-1
 862 0 l 1,9,-1
 551 532 l 1,10,-1
 270 0 l 1,11,-1
 113 0 l 1,0,-1
EndSplineSet
EndChar

StartChar: Y
Encoding: 89 89 60
Width: 1126
GlyphClass: 2
Flags: W
LayerCount: 2
Fore
SplineSet
494 0 m 1,0,-1
 494 512 l 1,1,-1
 75 1276 l 1,2,-1
 233 1276 l 1,3,-1
 576 665 l 1,4,-1
 914 1276 l 1,5,-1
 1072 1276 l 1,6,-1
 638 511 l 1,7,-1
 638 0 l 1,8,-1
 494 0 l 1,0,-1
EndSplineSet
EndChar

StartChar: Z
Encoding: 90 90 61
Width: 1126
GlyphClass: 2
Flags: W
LayerCount: 2
Fore
SplineSet
125 0 m 1,0,-1
 125 100 l 1,1,-1
 827 1153 l 1,2,-1
 150 1153 l 1,3,-1
 150 1276 l 1,4,-1
 999 1276 l 1,5,-1
 999 1176 l 1,6,-1
 303 123 l 1,7,-1
 942 123 l 2,8,9
 963 123 963 123 982.5 130 c 128,-1,10
 1002 137 1002 137 1011 137 c 1,11,-1
 1011 0 l 1,12,-1
 125 0 l 1,0,-1
EndSplineSet
EndChar

StartChar: bracketleft
Encoding: 91 91 62
Width: 1126
GlyphClass: 2
Flags: W
LayerCount: 2
Fore
SplineSet
319 -348 m 1,0,-1
 319 1276 l 1,1,-1
 905 1276 l 1,2,-1
 905 1153 l 1,3,-1
 450 1153 l 1,4,-1
 450 -232 l 1,5,-1
 907 -232 l 1,6,-1
 907 -348 l 1,7,-1
 319 -348 l 1,0,-1
EndSplineSet
EndChar

StartChar: backslash
Encoding: 92 92 63
Width: 1126
GlyphClass: 2
Flags: W
LayerCount: 2
Fore
SplineSet
825 -86 m 1,0,-1
 182 1298 l 1,1,-1
 303 1362 l 1,2,-1
 946 -27 l 1,3,-1
 825 -86 l 1,0,-1
EndSplineSet
EndChar

StartChar: bracketright
Encoding: 93 93 64
Width: 1126
GlyphClass: 2
Flags: W
LayerCount: 2
Fore
SplineSet
269 -232 m 1,0,-1
 726 -232 l 1,1,-1
 726 1153 l 1,2,-1
 271 1153 l 1,3,-1
 271 1276 l 1,4,-1
 857 1276 l 1,5,-1
 857 -348 l 1,6,-1
 269 -348 l 1,7,-1
 269 -232 l 1,0,-1
EndSplineSet
EndChar

StartChar: asciicircum
Encoding: 94 94 65
Width: 1126
GlyphClass: 2
Flags: W
LayerCount: 2
Fore
SplineSet
324 702 m 1,0,-1
 221 752 l 1,1,-1
 515 1276 l 1,2,-1
 565 1276 l 1,3,-1
 859 752 l 1,4,-1
 756 702 l 1,5,-1
 540 1081 l 1,6,-1
 324 702 l 1,0,-1
EndSplineSet
EndChar

StartChar: underscore
Encoding: 95 95 66
Width: 1126
GlyphClass: 2
Flags: W
LayerCount: 2
Fore
SplineSet
123 -39 m 1,0,-1
 1005 -39 l 1,1,-1
 1005 -164 l 1,2,-1
 123 -164 l 1,3,-1
 123 -39 l 1,0,-1
EndSplineSet
EndChar

StartChar: grave
Encoding: 96 96 67
Width: 1126
GlyphClass: 2
Flags: W
LayerCount: 2
Fore
SplineSet
511 1038 m 1,0,-1
 294 1346 l 1,1,-1
 424 1424 l 1,2,-1
 594 1079 l 1,3,-1
 511 1038 l 1,0,-1
EndSplineSet
EndChar

StartChar: a
Encoding: 97 97 68
Width: 1126
GlyphClass: 2
Flags: W
LayerCount: 2
Fore
SplineSet
168 238 m 0,0,1
 168 551 168 551 641 551 c 2,2,-1
 817 551 l 1,3,4
 817 712 817 712 761.5 773 c 128,-1,5
 706 834 706 834 578 834 c 0,6,7
 493 834 493 834 427.5 812 c 128,-1,8
 362 790 362 790 328 756 c 0,9,10
 319 747 319 747 306.5 721.5 c 128,-1,11
 294 696 294 696 281 692 c 1,12,-1
 199 827 l 1,13,14
 337 956 337 956 588 956 c 0,15,16
 958 956 958 956 958 580 c 2,17,-1
 958 0 l 1,18,-1
 815 0 l 1,19,-1
 815 143 l 1,20,21
 737 -23 737 -23 483 -23 c 0,22,23
 338 -23 338 -23 253 45.5 c 128,-1,24
 168 114 168 114 168 238 c 0,0,1
315 250 m 0,25,26
 315 90 315 90 514 90 c 0,27,28
 642 90 642 90 728.5 176 c 128,-1,29
 815 262 815 262 815 377 c 2,30,-1
 815 438 l 1,31,-1
 684 440 l 1,32,33
 491 440 491 440 403 395.5 c 128,-1,34
 315 351 315 351 315 250 c 0,25,26
EndSplineSet
EndChar

StartChar: b
Encoding: 98 98 69
Width: 1126
GlyphClass: 2
Flags: W
LayerCount: 2
Fore
SplineSet
149 0 m 1,0,-1
 149 1364 l 1,1,-1
 303 1364 l 1,2,3
 303 1354 303 1354 296 1335 c 128,-1,4
 289 1316 289 1316 289 1294 c 2,5,-1
 289 823 l 1,6,7
 334 881 334 881 417.5 921 c 128,-1,8
 501 961 501 961 604 961 c 0,9,10
 792 961 792 961 891.5 824.5 c 128,-1,11
 991 688 991 688 991 460.5 c 128,-1,12
 991 233 991 233 897 106.5 c 128,-1,13
 803 -20 803 -20 616 -20 c 0,14,15
 411 -20 411 -20 285 152 c 1,16,-1
 236 0 l 1,17,-1
 149 0 l 1,0,-1
594 102 m 0,18,19
 842 102 842 102 842 459 c 0,20,21
 842 647 842 647 776.5 742.5 c 128,-1,22
 711 838 711 838 590 838 c 0,23,24
 501 838 501 838 425.5 789 c 128,-1,25
 350 740 350 740 322.5 661.5 c 128,-1,26
 295 583 295 583 295 471.5 c 128,-1,27
 295 360 295 360 315 299 c 0,28,29
 341 219 341 219 414 160.5 c 128,-1,30
 487 102 487 102 594 102 c 0,18,19
EndSplineSet
EndChar

StartChar: c
Encoding: 99 99 70
Width: 1126
GlyphClass: 2
Flags: W
LayerCount: 2
Fore
SplineSet
260 107 m 128,-1,1
 137 238 137 238 137 466.5 c 128,-1,2
 137 695 137 695 261 826.5 c 128,-1,3
 385 958 385 958 596 958 c 0,4,5
 713 958 713 958 789.5 914 c 128,-1,6
 866 870 866 870 933 775 c 1,7,-1
 829 654 l 1,8,9
 817 665 817 665 815 683 c 0,10,11
 809 731 809 731 744.5 782 c 128,-1,12
 680 833 680 833 578 833 c 0,13,14
 444 833 444 833 364.5 737 c 128,-1,15
 285 641 285 641 285 470.5 c 128,-1,16
 285 300 285 300 369 198 c 128,-1,17
 453 96 453 96 597 96 c 0,18,19
 757 96 757 96 879 233 c 1,20,-1
 965 133 l 1,21,22
 819 -24 819 -24 592 -24 c 0,23,0
 383 -24 383 -24 260 107 c 128,-1,1
EndSplineSet
EndChar

StartChar: d
Encoding: 100 100 71
Width: 1126
GlyphClass: 2
Flags: W
LayerCount: 2
Fore
SplineSet
214 112.5 m 128,-1,1
 119 239 119 239 119 461.5 c 128,-1,2
 119 684 119 684 229.5 825.5 c 128,-1,3
 340 967 340 967 522 967 c 0,4,5
 614 967 614 967 695 931 c 128,-1,6
 776 895 776 895 821 836 c 1,7,-1
 821 1362 l 1,8,-1
 975 1362 l 1,9,10
 975 1352 975 1352 968 1333 c 128,-1,11
 961 1314 961 1314 961 1292 c 2,12,-1
 961 6 l 1,13,-1
 825 6 l 1,14,-1
 825 158 l 1,15,16
 699 -14 699 -14 496 -14 c 0,17,0
 309 -14 309 -14 214 112.5 c 128,-1,1
268 453 m 0,18,19
 268 233 268 233 374 154 c 0,20,21
 433 109 433 109 527.5 109 c 128,-1,22
 622 109 622 109 695.5 167 c 128,-1,23
 769 225 769 225 795 305 c 0,24,25
 815 365 815 365 815 475 c 128,-1,26
 815 585 815 585 788.5 664 c 128,-1,27
 762 743 762 743 691 793.5 c 128,-1,28
 620 844 620 844 535 844 c 0,29,30
 420 844 420 844 344 745.5 c 128,-1,31
 268 647 268 647 268 453 c 0,18,19
EndSplineSet
EndChar

StartChar: e
Encoding: 101 101 72
Width: 1126
GlyphClass: 2
Flags: W
LayerCount: 2
Fore
SplineSet
271 98 m 128,-1,1
 150 221 150 221 150 458.5 c 128,-1,2
 150 696 150 696 272 826 c 128,-1,3
 394 956 394 956 606 956 c 0,4,5
 785 956 785 956 886 842 c 128,-1,6
 987 728 987 728 987 514 c 0,7,8
 987 504 987 504 983 446 c 1,9,-1
 297 446 l 1,10,11
 312 94 312 94 635 94 c 0,12,13
 703 94 703 94 768 123.5 c 128,-1,14
 833 153 833 153 879 203 c 1,15,-1
 961 123 l 1,16,17
 902 54 902 54 813 14.5 c 128,-1,18
 724 -25 724 -25 623 -25 c 0,19,0
 392 -25 392 -25 271 98 c 128,-1,1
838 561 m 1,20,21
 838 688 838 688 774.5 761 c 128,-1,22
 711 834 711 834 596 834 c 128,-1,23
 481 834 481 834 402 760.5 c 128,-1,24
 323 687 323 687 303 561 c 1,25,-1
 838 561 l 1,20,21
EndSplineSet
EndChar

StartChar: f
Encoding: 102 102 73
Width: 1126
GlyphClass: 2
Flags: W
LayerCount: 2
Fore
SplineSet
307 0 m 1,0,-1
 307 721 l 1,1,-1
 104 721 l 1,2,-1
 104 841 l 1,3,-1
 307 841 l 1,4,-1
 307 977 l 2,5,6
 307 1165 307 1165 412 1270.5 c 128,-1,7
 517 1376 517 1376 697 1376 c 128,-1,8
 877 1376 877 1376 987 1245 c 1,9,-1
 920 1110 l 1,10,11
 905 1110 905 1110 901 1133 c 0,12,13
 894 1183 894 1183 830.5 1216 c 128,-1,14
 767 1249 767 1249 694 1249 c 0,15,16
 446 1249 446 1249 446 952 c 2,17,-1
 446 841 l 1,18,-1
 917 841 l 1,19,-1
 917 721 l 1,20,-1
 446 721 l 1,21,-1
 446 0 l 1,22,-1
 307 0 l 1,0,-1
EndSplineSet
EndChar

StartChar: g
Encoding: 103 103 74
Width: 1126
GlyphClass: 2
Flags: W
LayerCount: 2
Fore
SplineSet
113 -131 m 0,0,1
 113 -14 113 -14 262 78 c 1,2,3
 190 117 190 117 190 203 c 128,-1,4
 190 289 190 289 288 372 c 1,5,6
 158 454 158 454 158 635 c 0,7,8
 158 792 158 792 248.5 879.5 c 128,-1,9
 339 967 339 967 497 967 c 128,-1,10
 655 967 655 967 743 887 c 1,11,12
 839 961 839 961 963 961 c 2,13,-1
 989 961 l 1,14,-1
 1008 840 l 1,15,16
 970 844 970 844 952 844 c 0,17,18
 868 844 868 844 803 807 c 1,19,20
 838 735 838 735 838 641 c 0,21,22
 838 489 838 489 749 404 c 128,-1,23
 660 319 660 319 500 319 c 0,24,25
 429 319 429 319 374 335 c 1,26,27
 315 274 315 274 315 240 c 128,-1,28
 315 206 315 206 348 190.5 c 128,-1,29
 381 175 381 175 436.5 171 c 128,-1,30
 492 167 492 167 550 167 c 0,31,32
 723 167 723 167 774 156 c 0,33,34
 871 134 871 134 919 81 c 128,-1,35
 967 28 967 28 967 -66 c 0,36,37
 967 -201 967 -201 853.5 -276.5 c 128,-1,38
 740 -352 740 -352 538.5 -352 c 128,-1,39
 337 -352 337 -352 225 -293.5 c 128,-1,40
 113 -235 113 -235 113 -131 c 0,0,1
498 438 m 128,-1,42
 595 438 595 438 648.5 492 c 128,-1,43
 702 546 702 546 702 643 c 128,-1,44
 702 740 702 740 648 795 c 128,-1,45
 594 850 594 850 497.5 850 c 128,-1,46
 401 850 401 850 347 795 c 128,-1,47
 293 740 293 740 293 643 c 128,-1,48
 293 546 293 546 347 492 c 128,-1,41
 401 438 401 438 498 438 c 128,-1,42
248 -94 m 0,49,50
 248 -163 248 -163 325.5 -202.5 c 128,-1,51
 403 -242 403 -242 541 -242 c 128,-1,52
 679 -242 679 -242 755 -198 c 128,-1,53
 831 -154 831 -154 831 -76 c 0,54,55
 831 35 831 35 653 35 c 128,-1,56
 475 35 475 35 357 50 c 1,57,58
 248 -12 248 -12 248 -94 c 0,49,50
EndSplineSet
EndChar

StartChar: h
Encoding: 104 104 75
Width: 1126
GlyphClass: 2
Flags: W
LayerCount: 2
Fore
SplineSet
179 0 m 1,0,-1
 179 1362 l 1,1,-1
 333 1362 l 1,2,3
 333 1352 333 1352 326 1333 c 128,-1,4
 319 1314 319 1314 319 1292 c 2,5,-1
 319 770 l 1,6,7
 475 958 475 958 696 958 c 0,8,9
 825 958 825 958 887 885.5 c 128,-1,10
 949 813 949 813 949 639 c 2,11,-1
 949 0 l 1,12,-1
 809 0 l 1,13,-1
 809 613 l 2,14,15
 809 734 809 734 771 779.5 c 128,-1,16
 733 825 733 825 655 825 c 128,-1,17
 577 825 577 825 501 785 c 128,-1,18
 425 745 425 745 372 674.5 c 128,-1,19
 319 604 319 604 319 528 c 2,20,-1
 319 0 l 1,21,-1
 179 0 l 1,0,-1
EndSplineSet
EndChar

StartChar: i
Encoding: 105 105 76
Width: 1126
GlyphClass: 2
Flags: W
LayerCount: 2
Fore
SplineSet
598 1174.5 m 128,-1,1
 565 1141 565 1141 514.5 1141 c 128,-1,2
 464 1141 464 1141 430 1174 c 128,-1,3
 396 1207 396 1207 396 1257.5 c 128,-1,4
 396 1308 396 1308 430 1342 c 128,-1,5
 464 1376 464 1376 514.5 1376 c 128,-1,6
 565 1376 565 1376 598 1342.5 c 128,-1,7
 631 1309 631 1309 631 1258.5 c 128,-1,0
 631 1208 631 1208 598 1174.5 c 128,-1,1
174 0 m 1,8,-1
 174 120 l 1,9,-1
 492 120 l 1,10,-1
 492 816 l 1,11,-1
 178 816 l 1,12,-1
 178 936 l 1,13,-1
 632 936 l 1,14,-1
 632 120 l 1,15,-1
 951 120 l 1,16,-1
 951 0 l 1,17,-1
 174 0 l 1,8,-1
EndSplineSet
EndChar

StartChar: j
Encoding: 106 106 77
Width: 1126
GlyphClass: 2
Flags: W
LayerCount: 2
Fore
SplineSet
770 1174.5 m 128,-1,1
 737 1141 737 1141 686.5 1141 c 128,-1,2
 636 1141 636 1141 602 1174 c 128,-1,3
 568 1207 568 1207 568 1257.5 c 128,-1,4
 568 1308 568 1308 602 1342 c 128,-1,5
 636 1376 636 1376 686.5 1376 c 128,-1,6
 737 1376 737 1376 770 1342.5 c 128,-1,7
 803 1309 803 1309 803 1258.5 c 128,-1,0
 803 1208 803 1208 770 1174.5 c 128,-1,1
446 -229 m 0,8,9
 543 -229 543 -229 600 -164 c 128,-1,10
 657 -99 657 -99 657 37 c 2,11,-1
 657 816 l 1,12,-1
 268 816 l 1,13,-1
 268 936 l 1,14,-1
 797 936 l 1,15,-1
 797 45 l 2,16,17
 797 -152 797 -152 705.5 -254 c 128,-1,18
 614 -356 614 -356 435 -356 c 128,-1,19
 256 -356 256 -356 150 -225 c 1,20,-1
 246 -98 l 1,21,22
 253 -105 253 -105 264 -130.5 c 128,-1,23
 275 -156 275 -156 294.5 -172.5 c 128,-1,24
 314 -189 314 -189 358 -209 c 128,-1,25
 402 -229 402 -229 446 -229 c 0,8,9
EndSplineSet
EndChar

StartChar: k
Encoding: 107 107 78
Width: 1126
GlyphClass: 2
Flags: W
LayerCount: 2
Fore
SplineSet
194 0 m 1,0,-1
 194 1362 l 1,1,-1
 348 1362 l 1,2,3
 348 1352 348 1352 341 1333 c 128,-1,4
 334 1314 334 1314 334 1292 c 2,5,-1
 334 503 l 1,6,-1
 817 952 l 1,7,8
 879 936 879 936 936 936 c 2,9,-1
 981 936 l 1,10,-1
 574 567 l 1,11,-1
 1030 0 l 1,12,-1
 854 -8 l 1,13,-1
 469 472 l 1,14,-1
 334 349 l 1,15,-1
 334 0 l 1,16,-1
 194 0 l 1,0,-1
EndSplineSet
EndChar

StartChar: l
Encoding: 108 108 79
Width: 1126
GlyphClass: 2
Flags: W
LayerCount: 2
Fore
SplineSet
213 0 m 1,0,-1
 213 120 l 1,1,-1
 489 120 l 1,2,-1
 489 1242 l 1,3,-1
 225 1242 l 1,4,-1
 225 1362 l 1,5,-1
 629 1362 l 1,6,-1
 629 120 l 1,7,-1
 913 120 l 1,8,-1
 913 0 l 1,9,-1
 213 0 l 1,0,-1
EndSplineSet
EndChar

StartChar: m
Encoding: 109 109 80
Width: 1126
GlyphClass: 2
Flags: W
LayerCount: 2
Fore
SplineSet
80 0 m 1,0,-1
 80 936 l 1,1,-1
 219 936 l 1,2,-1
 219 825 l 1,3,4
 251 889 251 889 313.5 923.5 c 128,-1,5
 376 958 376 958 440 958 c 0,6,7
 569 958 569 958 614 830 c 1,8,9
 719 958 719 958 850 958 c 0,10,11
 1044 958 1044 958 1044 719 c 2,12,-1
 1044 0 l 1,13,-1
 905 0 l 1,14,-1
 905 684 l 2,15,16
 905 773 905 773 886 803.5 c 128,-1,17
 867 834 867 834 817 834 c 128,-1,18
 767 834 767 834 723 805 c 128,-1,19
 679 776 679 776 634 708 c 1,20,-1
 634 0 l 1,21,-1
 495 0 l 1,22,-1
 495 651 l 2,23,24
 495 760 495 760 482 797 c 128,-1,25
 469 834 469 834 414 834 c 0,26,27
 337 834 337 834 278 779 c 128,-1,28
 219 724 219 724 219 645 c 2,29,-1
 219 0 l 1,30,-1
 80 0 l 1,0,-1
EndSplineSet
EndChar

StartChar: n
Encoding: 110 110 81
Width: 1126
GlyphClass: 2
Flags: W
LayerCount: 2
Fore
SplineSet
192 0 m 1,0,-1
 192 936 l 1,1,-1
 332 936 l 1,2,-1
 332 770 l 1,3,4
 393 852 393 852 496.5 905 c 128,-1,5
 600 958 600 958 705 958 c 0,6,7
 961 958 961 958 961 629 c 2,8,-1
 961 0 l 1,9,-1
 821 0 l 1,10,-1
 821 563 l 2,11,12
 821 712 821 712 786.5 768.5 c 128,-1,13
 752 825 752 825 676 825 c 0,14,15
 621 825 621 825 560.5 802 c 128,-1,16
 500 779 500 779 449 739.5 c 128,-1,17
 398 700 398 700 365 641.5 c 128,-1,18
 332 583 332 583 332 518 c 2,19,-1
 332 0 l 1,20,-1
 192 0 l 1,0,-1
EndSplineSet
EndChar

StartChar: o
Encoding: 111 111 82
Width: 1126
GlyphClass: 2
Flags: W
LayerCount: 2
Fore
SplineSet
248.5 106.5 m 128,-1,1
 130 238 130 238 130 466 c 128,-1,2
 130 694 130 694 248.5 825 c 128,-1,3
 367 956 367 956 563.5 956 c 128,-1,4
 760 956 760 956 881 825 c 128,-1,5
 1002 694 1002 694 1002 466.5 c 128,-1,6
 1002 239 1002 239 881 107 c 128,-1,7
 760 -25 760 -25 563.5 -25 c 128,-1,0
 367 -25 367 -25 248.5 106.5 c 128,-1,1
348.5 738 m 128,-1,9
 274 640 274 640 274 464.5 c 128,-1,10
 274 289 274 289 348.5 192 c 128,-1,11
 423 95 423 95 563.5 95 c 128,-1,12
 704 95 704 95 781 192 c 128,-1,13
 858 289 858 289 858 464 c 128,-1,14
 858 639 858 639 781 737.5 c 128,-1,15
 704 836 704 836 563.5 836 c 128,-1,8
 423 836 423 836 348.5 738 c 128,-1,9
EndSplineSet
EndChar

StartChar: p
Encoding: 112 112 83
Width: 1126
GlyphClass: 2
Flags: W
LayerCount: 2
Fore
SplineSet
328 -340 m 1,0,-1
 188 -340 l 1,1,-1
 188 866 l 2,2,3
 188 888 188 888 181 907 c 128,-1,4
 174 926 174 926 174 936 c 1,5,-1
 328 936 l 1,6,-1
 328 784 l 1,7,8
 456 956 456 956 657 956 c 0,9,10
 782 956 782 956 868 896 c 0,11,12
 1034 780 1034 780 1034 492 c 0,13,14
 1034 258 1034 258 923.5 116.5 c 128,-1,15
 813 -25 813 -25 631 -25 c 0,16,17
 538 -25 538 -25 455.5 11.5 c 128,-1,18
 373 48 373 48 328 106 c 1,19,-1
 328 -340 l 1,0,-1
618 98 m 0,20,21
 733 98 733 98 809 196.5 c 128,-1,22
 885 295 885 295 885 489 c 0,23,24
 885 682 885 682 808 762 c 0,25,26
 739 834 739 834 635 834 c 128,-1,27
 531 834 531 834 457.5 775.5 c 128,-1,28
 384 717 384 717 358 637 c 0,29,30
 338 577 338 577 338 464.5 c 128,-1,31
 338 352 338 352 364.5 275.5 c 128,-1,32
 391 199 391 199 462 148.5 c 128,-1,33
 533 98 533 98 618 98 c 0,20,21
EndSplineSet
EndChar

StartChar: q
Encoding: 113 113 84
Width: 1126
GlyphClass: 2
Flags: W
LayerCount: 2
Fore
SplineSet
234.5 111.5 m 128,-1,1
 135 248 135 248 135 475.5 c 128,-1,2
 135 703 135 703 229 829.5 c 128,-1,3
 323 956 323 956 510 956 c 0,4,5
 714 956 714 956 842 784 c 1,6,-1
 893 936 l 1,7,-1
 978 936 l 1,8,-1
 978 -348 l 1,9,-1
 824 -348 l 1,10,11
 824 -338 824 -338 831 -319 c 128,-1,12
 838 -300 838 -300 838 -278 c 2,13,-1
 838 113 l 1,14,15
 792 54 792 54 708.5 14.5 c 128,-1,16
 625 -25 625 -25 522 -25 c 0,17,0
 334 -25 334 -25 234.5 111.5 c 128,-1,1
537 98 m 0,18,19
 625 98 625 98 700.5 147 c 128,-1,20
 776 196 776 196 803 272 c 128,-1,21
 830 348 830 348 830 453.5 c 128,-1,22
 830 559 830 559 809 623 c 0,23,24
 785 698 785 698 718 763 c 0,25,26
 684 795 684 795 635.5 814.5 c 128,-1,27
 587 834 587 834 532 834 c 0,28,29
 285 834 285 834 285 477 c 0,30,31
 285 289 285 289 350.5 193.5 c 128,-1,32
 416 98 416 98 537 98 c 0,18,19
EndSplineSet
EndChar

StartChar: r
Encoding: 114 114 85
Width: 1126
GlyphClass: 2
Flags: W
LayerCount: 2
Fore
SplineSet
254 -2 m 1,0,-1
 254 936 l 1,1,-1
 401 936 l 1,2,-1
 397 735 l 1,3,4
 441 834 441 834 534.5 896 c 128,-1,5
 628 958 628 958 733 958 c 0,6,7
 891 958 891 958 997 821 c 1,8,-1
 913 690 l 1,9,10
 899 694 899 694 899 715 c 1,11,12
 896 736 896 736 883 759 c 128,-1,13
 870 782 870 782 854 796.5 c 128,-1,14
 838 811 838 811 806 822.5 c 128,-1,15
 774 834 774 834 733 834 c 0,16,17
 641 834 641 834 562.5 776 c 128,-1,18
 484 718 484 718 440.5 626 c 128,-1,19
 397 534 397 534 397 434 c 2,20,-1
 397 -2 l 1,21,-1
 254 -2 l 1,0,-1
EndSplineSet
EndChar

StartChar: s
Encoding: 115 115 86
Width: 1126
GlyphClass: 2
Flags: W
LayerCount: 2
Fore
SplineSet
394.5 139.5 m 128,-1,1
 490 102 490 102 583 102 c 128,-1,2
 676 102 676 102 740.5 139 c 128,-1,3
 805 176 805 176 805 247 c 0,4,5
 805 303 805 303 752.5 338 c 128,-1,6
 700 373 700 373 550.5 421 c 128,-1,7
 401 469 401 469 365 485 c 0,8,9
 256 532 256 532 227 607 c 0,10,11
 213 641 213 641 213 686 c 0,12,13
 213 756 213 756 245.5 810 c 128,-1,14
 278 864 278 864 333 894 c 0,15,16
 444 956 444 956 588 956 c 0,17,18
 818 956 818 956 952 805 c 1,19,-1
 866 676 l 1,20,21
 855 680 855 680 848 694 c 0,22,23
 819 751 819 751 750 789 c 128,-1,24
 681 827 681 827 580 827 c 128,-1,25
 479 827 479 827 420.5 794.5 c 128,-1,26
 362 762 362 762 362 702 c 0,27,28
 362 654 362 654 413.5 623 c 128,-1,29
 465 592 465 592 581 556 c 128,-1,30
 697 520 697 520 746 501.5 c 128,-1,31
 795 483 795 483 839.5 459.5 c 128,-1,32
 884 436 884 436 908 410 c 0,33,34
 961 354 961 354 961 265.5 c 128,-1,35
 961 177 961 177 906 110 c 0,36,37
 799 -20 799 -20 566 -20 c 128,-1,38
 333 -20 333 -20 172 127 c 1,39,-1
 256 274 l 1,40,41
 266 264 266 264 272 248 c 0,42,0
 299 177 299 177 394.5 139.5 c 128,-1,1
EndSplineSet
EndChar

StartChar: t
Encoding: 116 116 87
Width: 1126
GlyphClass: 2
Flags: W
LayerCount: 2
Fore
SplineSet
349 287 m 2,0,-1
 349 816 l 1,1,-1
 127 816 l 1,2,-1
 127 936 l 1,3,-1
 349 936 l 1,4,-1
 349 1182 l 1,5,-1
 506 1202 l 1,6,7
 506 1191 506 1191 499 1171 c 128,-1,8
 492 1151 492 1151 489 1133 c 1,9,-1
 489 936 l 1,10,-1
 884 936 l 1,11,-1
 884 816 l 1,12,-1
 489 816 l 1,13,-1
 489 264 l 2,14,15
 489 182 489 182 529 143 c 128,-1,16
 569 104 569 104 659 104 c 0,17,18
 714 104 714 104 795.5 127 c 128,-1,19
 877 150 877 150 930 188 c 1,20,-1
 975 86 l 1,21,22
 908 36 908 36 816 9 c 128,-1,23
 724 -18 724 -18 639 -18 c 128,-1,24
 554 -18 554 -18 498 -2.5 c 128,-1,25
 442 13 442 13 408 50.5 c 128,-1,26
 374 88 374 88 361.5 143.5 c 128,-1,27
 349 199 349 199 349 287 c 2,0,-1
EndSplineSet
EndChar

StartChar: u
Encoding: 117 117 88
Width: 1126
GlyphClass: 2
Flags: W
LayerCount: 2
Fore
SplineSet
175 342 m 2,0,-1
 175 936 l 1,1,-1
 315 936 l 1,2,-1
 315 358 l 2,3,4
 315 236 315 236 364.5 171 c 128,-1,5
 414 106 414 106 504 106 c 0,6,7
 619 106 619 106 710 200 c 128,-1,8
 801 294 801 294 801 414 c 2,9,-1
 801 936 l 1,10,-1
 941 936 l 1,11,-1
 941 0 l 1,12,-1
 801 0 l 1,13,-1
 801 166 l 1,14,15
 742 76 742 76 654.5 26.5 c 128,-1,16
 567 -23 567 -23 462 -23 c 0,17,18
 322 -23 322 -23 248.5 69 c 128,-1,19
 175 161 175 161 175 342 c 2,0,-1
EndSplineSet
EndChar

StartChar: v
Encoding: 118 118 89
Width: 1126
GlyphClass: 2
Flags: W
LayerCount: 2
Fore
SplineSet
302 936 m 1,0,-1
 298 891 l 1,1,2
 298 877 298 877 304 862 c 2,3,-1
 483 437 l 1,4,-1
 593 167 l 1,5,6
 733 458 733 458 802.5 639.5 c 128,-1,7
 872 821 872 821 888 936 c 1,8,-1
 1050 936 l 1,9,10
 1032 800 1032 800 944 587.5 c 128,-1,11
 856 375 856 375 656 0 c 1,12,-1
 509 0 l 1,13,-1
 114 936 l 1,14,-1
 302 936 l 1,0,-1
EndSplineSet
EndChar

StartChar: w
Encoding: 119 119 90
Width: 1126
GlyphClass: 2
Flags: W
LayerCount: 2
Fore
SplineSet
200 936 m 1,0,-1
 192 872 l 1,1,2
 192 862 192 862 194 858 c 2,3,-1
 368 184 l 1,4,-1
 551 754 l 1,5,-1
 641 754 l 1,6,-1
 833 186 l 1,7,8
 886 369 886 369 918.5 556.5 c 128,-1,9
 951 744 951 744 951 886 c 0,10,11
 951 920 951 920 950 936 c 1,12,-1
 1106 936 l 1,13,14
 1103 607 1103 607 903 0 c 1,15,-1
 764 0 l 1,16,-1
 594 498 l 1,17,-1
 436 0 l 1,18,-1
 279 0 l 1,19,-1
 56 846 l 1,20,-1
 38 936 l 1,21,-1
 200 936 l 1,0,-1
EndSplineSet
EndChar

StartChar: x
Encoding: 120 120 91
Width: 1126
GlyphClass: 2
Flags: W
LayerCount: 2
Fore
SplineSet
137 0 m 1,0,-1
 463 485 l 1,1,-1
 143 936 l 1,2,-1
 305 936 l 1,3,-1
 561 578 l 1,4,-1
 803 936 l 1,5,-1
 954 936 l 1,6,-1
 641 466 l 1,7,-1
 975 0 l 1,8,-1
 807 0 l 1,9,-1
 544 371 l 1,10,-1
 305 0 l 1,11,-1
 137 0 l 1,0,-1
EndSplineSet
EndChar

StartChar: y
Encoding: 121 121 92
Width: 1126
GlyphClass: 2
Flags: W
LayerCount: 2
Fore
SplineSet
309 936 m 1,0,-1
 305 890 l 1,1,2
 305 876 305 876 311 862 c 2,3,-1
 599 201 l 1,4,-1
 795 688 l 2,5,6
 849 821 849 821 864 936 c 1,7,-1
 1022 936 l 1,8,9
 984 782 984 782 936 666 c 2,10,-1
 616 -106 l 2,11,12
 561 -237 561 -237 485.5 -296.5 c 128,-1,13
 410 -356 410 -356 304 -356 c 0,14,15
 173 -356 173 -356 92 -276 c 1,16,-1
 170 -145 l 1,17,18
 176 -152 176 -152 186.5 -171.5 c 128,-1,19
 197 -191 197 -191 206 -203 c 128,-1,20
 215 -215 215 -215 238 -225.5 c 128,-1,21
 261 -236 261 -236 294 -236 c 0,22,23
 356 -236 356 -236 402 -198.5 c 128,-1,24
 448 -161 448 -161 492 -66 c 1,25,-1
 527 21 l 1,26,-1
 133 936 l 1,27,-1
 309 936 l 1,0,-1
EndSplineSet
EndChar

StartChar: z
Encoding: 122 122 93
Width: 1126
GlyphClass: 2
Flags: W
LayerCount: 2
Fore
SplineSet
154 0 m 1,0,-1
 154 100 l 1,1,-1
 763 823 l 1,2,-1
 589 813 l 1,3,-1
 176 813 l 1,4,-1
 176 936 l 1,5,-1
 944 936 l 1,6,-1
 944 836 l 1,7,-1
 330 118 l 1,8,-1
 497 123 l 1,9,-1
 902 123 l 2,10,11
 923 123 923 123 942.5 130 c 128,-1,12
 962 137 962 137 971 137 c 1,13,-1
 971 0 l 1,14,-1
 154 0 l 1,0,-1
EndSplineSet
EndChar

StartChar: braceleft
Encoding: 123 123 94
Width: 1126
GlyphClass: 2
Flags: W
LayerCount: 2
Fore
SplineSet
180 446 m 2,0,-1
 139 446 l 1,1,-1
 139 561 l 1,2,-1
 178 561 l 2,3,4
 274 561 274 561 321.5 613.5 c 128,-1,5
 369 666 369 666 369 780 c 1,6,-1
 365 928 l 1,7,8
 365 1105 365 1105 457.5 1190.5 c 128,-1,9
 550 1276 550 1276 737 1276 c 2,10,-1
 866 1276 l 1,11,-1
 866 1159 l 1,12,-1
 698 1159 l 2,13,14
 602 1159 602 1159 555 1108.5 c 128,-1,15
 508 1058 508 1058 508 950 c 1,16,-1
 512 807 l 1,17,18
 512 580 512 580 334 504 c 1,19,20
 508 446 508 446 508 186 c 1,21,-1
 502 14 l 1,22,23
 502 -122 502 -122 560.5 -172.5 c 128,-1,24
 619 -223 619 -223 760 -223 c 2,25,-1
 864 -223 l 1,26,-1
 864 -338 l 1,27,-1
 791 -338 l 2,28,29
 702 -338 702 -338 663 -336.5 c 128,-1,30
 624 -335 624 -335 567 -320.5 c 128,-1,31
 510 -306 510 -306 471 -276 c 0,32,33
 356 -188 356 -188 356 12 c 1,34,-1
 365 217 l 1,35,36
 365 346 365 346 319.5 396 c 128,-1,37
 274 446 274 446 180 446 c 2,0,-1
EndSplineSet
EndChar

StartChar: bar
Encoding: 124 124 95
Width: 1126
GlyphClass: 2
Flags: W
LayerCount: 2
Fore
SplineSet
495 -309 m 1,0,-1
 495 1335 l 1,1,-1
 633 1335 l 1,2,-1
 633 -309 l 1,3,-1
 495 -309 l 1,0,-1
EndSplineSet
EndChar

StartChar: braceright
Encoding: 125 125 96
Width: 1126
GlyphClass: 2
Flags: W
LayerCount: 2
Fore
SplineSet
231 -223 m 1,0,-1
 335 -223 l 2,1,2
 476 -223 476 -223 534.5 -172.5 c 128,-1,3
 593 -122 593 -122 593 14 c 1,4,-1
 587 186 l 1,5,6
 587 446 587 446 761 504 c 1,7,8
 583 580 583 580 583 807 c 1,9,-1
 587 950 l 1,10,11
 587 1058 587 1058 540 1108.5 c 128,-1,12
 493 1159 493 1159 397 1159 c 2,13,-1
 229 1159 l 1,14,-1
 229 1276 l 1,15,-1
 358 1276 l 2,16,17
 545 1276 545 1276 637.5 1190.5 c 128,-1,18
 730 1105 730 1105 730 928 c 1,19,-1
 726 780 l 1,20,21
 726 666 726 666 773.5 613.5 c 128,-1,22
 821 561 821 561 917 561 c 2,23,-1
 956 561 l 1,24,-1
 956 446 l 1,25,-1
 915 446 l 2,26,27
 821 446 821 446 775.5 396 c 128,-1,28
 730 346 730 346 730 217 c 1,29,-1
 739 12 l 1,30,31
 739 -187 739 -187 624 -276 c 0,32,33
 585 -306 585 -306 528 -320.5 c 128,-1,34
 471 -335 471 -335 432 -336.5 c 128,-1,35
 393 -338 393 -338 304 -338 c 2,36,-1
 231 -338 l 1,37,-1
 231 -223 l 1,0,-1
EndSplineSet
EndChar

StartChar: asciitilde
Encoding: 126 126 97
Width: 1126
GlyphClass: 2
Flags: W
LayerCount: 2
Fore
SplineSet
584 902 m 1,0,1
 619 878 619 878 650 854 c 0,2,3
 725 797 725 797 765 797 c 0,4,5
 812 797 812 797 852 836 c 0,6,7
 875 859 875 859 888.5 875.5 c 128,-1,8
 902 892 902 892 932 930 c 1,9,-1
 1026 852 l 1,10,11
 969 768 969 768 900 716 c 128,-1,12
 831 664 831 664 756 664 c 0,13,14
 674 664 674 664 599 722 c 0,15,16
 568 746 568 746 539 770 c 0,17,18
 468 827 468 827 407 827 c 0,19,20
 315 827 315 827 237 700 c 1,21,-1
 135 768 l 1,22,23
 185 849 185 849 257 903.5 c 128,-1,24
 329 958 329 958 413.5 958 c 128,-1,25
 498 958 498 958 584 902 c 1,0,1
EndSplineSet
EndChar

StartChar: Zcaron
Encoding: 142 142 98
Width: 1126
GlyphClass: 2
Flags: W
LayerCount: 2
Fore
SplineSet
545 1358 m 1,0,-1
 308 1524 l 1,1,-1
 376 1601 l 1,2,-1
 602 1472 l 1,3,-1
 820 1601 l 1,4,-1
 888 1524 l 1,5,-1
 657 1358 l 1,6,-1
 545 1358 l 1,0,-1
125 0 m 1,7,-1
 125 100 l 1,8,-1
 827 1153 l 1,9,-1
 150 1153 l 1,10,-1
 150 1276 l 1,11,-1
 999 1276 l 1,12,-1
 999 1176 l 1,13,-1
 303 123 l 1,14,-1
 942 123 l 2,15,16
 963 123 963 123 982.5 130 c 128,-1,17
 1002 137 1002 137 1011 137 c 1,18,-1
 1011 0 l 1,19,-1
 125 0 l 1,7,-1
EndSplineSet
EndChar

StartChar: zcaron
Encoding: 158 158 99
Width: 1126
GlyphClass: 2
Flags: W
LayerCount: 2
Fore
SplineSet
549 1041 m 1,0,-1
 302 1360 l 1,1,-1
 394 1431 l 1,2,-1
 570 1199 l 1,3,-1
 742 1429 l 1,4,-1
 836 1357 l 1,5,-1
 594 1041 l 1,6,-1
 549 1041 l 1,0,-1
154 0 m 1,7,-1
 154 100 l 1,8,-1
 763 823 l 1,9,-1
 589 813 l 1,10,-1
 176 813 l 1,11,-1
 176 936 l 1,12,-1
 944 936 l 1,13,-1
 944 836 l 1,14,-1
 330 118 l 1,15,-1
 497 123 l 1,16,-1
 902 123 l 2,17,18
 923 123 923 123 942.5 130 c 128,-1,19
 962 137 962 137 971 137 c 1,20,-1
 971 0 l 1,21,-1
 154 0 l 1,7,-1
EndSplineSet
EndChar

StartChar: exclamdown
Encoding: 161 161 101
Width: 1126
GlyphClass: 2
Flags: W
LayerCount: 2
Fore
SplineSet
543 1126 m 128,-1,1
 493 1126 493 1126 456.5 1162.5 c 128,-1,2
 420 1199 420 1199 420 1247.5 c 128,-1,3
 420 1296 420 1296 456 1332 c 128,-1,4
 492 1368 492 1368 542.5 1368 c 128,-1,5
 593 1368 593 1368 628 1333.5 c 128,-1,6
 663 1299 663 1299 663 1248.5 c 128,-1,7
 663 1198 663 1198 628 1162 c 128,-1,0
 593 1126 593 1126 543 1126 c 128,-1,1
434 -23 m 1,8,-1
 489 948 l 1,9,-1
 592 948 l 1,10,-1
 643 -23 l 1,11,-1
 434 -23 l 1,8,-1
EndSplineSet
EndChar

StartChar: cent
Encoding: 162 162 102
Width: 1126
GlyphClass: 2
Flags: W
LayerCount: 2
Fore
SplineSet
147 566 m 0,0,1
 147 787 147 787 263 917.5 c 128,-1,2
 379 1048 379 1048 577 1057 c 1,3,-1
 605 1278 l 1,4,-1
 742 1264 l 1,5,6
 742 1255 742 1255 733.5 1235 c 128,-1,7
 725 1215 725 1215 723 1206 c 2,8,-1
 702 1049 l 1,9,10
 778 1034 778 1034 834.5 991.5 c 128,-1,11
 891 949 891 949 943 875 c 1,12,-1
 839 754 l 1,13,14
 827 765 827 765 825 783 c 0,15,16
 821 817 821 817 783.5 857 c 128,-1,17
 746 897 746 897 685 918 c 1,18,-1
 590 196 l 1,19,-1
 607 196 l 2,20,21
 767 196 767 196 889 333 c 1,22,-1
 975 233 l 1,23,24
 829 76 829 76 602 76 c 1,25,-1
 574 77 l 1,26,-1
 543 -162 l 1,27,-1
 427 -147 l 1,28,-1
 457 95 l 1,29,30
 311 136 311 136 229 258.5 c 128,-1,31
 147 381 147 381 147 566 c 0,0,1
295 573 m 0,32,33
 295 446 295 446 341.5 355.5 c 128,-1,34
 388 265 388 265 473 224 c 1,35,-1
 562 932 l 1,36,37
 439 922 439 922 367 827 c 128,-1,38
 295 732 295 732 295 573 c 0,32,33
EndSplineSet
EndChar

StartChar: sterling
Encoding: 163 163 103
Width: 1126
GlyphClass: 2
Flags: W
LayerCount: 2
Fore
SplineSet
788 1058 m 2,0,-1
 789 1069 l 1,1,2
 789 1100 789 1100 749 1129.5 c 128,-1,3
 709 1159 709 1159 639 1159 c 0,4,5
 525 1159 525 1159 472.5 1087.5 c 128,-1,6
 420 1016 420 1016 420 901 c 0,7,8
 420 841 420 841 434 774 c 1,9,-1
 699 774 l 1,10,-1
 699 654 l 1,11,-1
 463 654 l 1,12,13
 489 534 489 534 489 449 c 0,14,15
 489 302 489 302 416 184 c 1,16,17
 441 188 441 188 482.5 188 c 128,-1,18
 524 188 524 188 578.5 167 c 128,-1,19
 633 146 633 146 691.5 125 c 128,-1,20
 750 104 750 104 805 104 c 128,-1,21
 860 104 860 104 889.5 116 c 128,-1,22
 919 128 919 128 960 162 c 1,23,-1
 1014 55 l 1,24,25
 908 -31 908 -31 826 -31 c 0,26,27
 772 -31 772 -31 626.5 15 c 128,-1,28
 481 61 481 61 422 61 c 0,29,30
 330 61 330 61 184 -16 c 1,31,-1
 131 100 l 1,32,-1
 252 171 l 2,33,34
 354 231 354 231 354 421 c 0,35,36
 354 532 354 532 323 654 c 1,37,-1
 138 654 l 1,38,-1
 138 774 l 1,39,-1
 295 774 l 1,40,41
 282 845 282 845 282 914 c 0,42,43
 282 1083 282 1083 370 1179.5 c 128,-1,44
 458 1276 458 1276 637 1276 c 0,45,46
 785 1276 785 1276 901 1171 c 1,47,-1
 797 1041 l 1,48,49
 788 1049 788 1049 788 1058 c 2,0,-1
EndSplineSet
EndChar

StartChar: currency
Encoding: 164 164 104
Width: 1126
GlyphClass: 2
Flags: W
LayerCount: 2
Fore
SplineSet
305 524 m 1,0,1
 248 604 248 604 248 708 c 128,-1,2
 248 812 248 812 307 891 c 1,3,-1
 190 1008 l 1,4,-1
 264 1079 l 1,5,-1
 379 965 l 1,6,7
 464 1024 464 1024 563 1024 c 128,-1,8
 662 1024 662 1024 747 967 c 1,9,-1
 862 1079 l 1,10,-1
 936 1008 l 1,11,-1
 821 895 l 1,12,13
 882 810 882 810 882 707.5 c 128,-1,14
 882 605 882 605 823 520 c 1,15,-1
 936 408 l 1,16,-1
 862 336 l 1,17,-1
 749 449 l 1,18,19
 669 389 669 389 566 389 c 128,-1,20
 463 389 463 389 377 451 c 1,21,-1
 264 336 l 1,22,-1
 190 408 l 1,23,-1
 305 524 l 1,0,1
563 502 m 128,-1,25
 647 502 647 502 708.5 563.5 c 128,-1,26
 770 625 770 625 770 707.5 c 128,-1,27
 770 790 770 790 708 851.5 c 128,-1,28
 646 913 646 913 563.5 913 c 128,-1,29
 481 913 481 913 419.5 852 c 128,-1,30
 358 791 358 791 358 707 c 128,-1,31
 358 623 358 623 418.5 562.5 c 128,-1,24
 479 502 479 502 563 502 c 128,-1,25
EndSplineSet
EndChar

StartChar: yen
Encoding: 165 165 105
Width: 1126
GlyphClass: 2
Flags: W
LayerCount: 2
Fore
SplineSet
219 215 m 1,0,-1
 219 335 l 1,1,-1
 494 335 l 1,2,-1
 494 421 l 1,3,-1
 219 421 l 1,4,-1
 219 541 l 1,5,-1
 478 541 l 1,6,-1
 75 1276 l 1,7,-1
 233 1276 l 1,8,-1
 576 665 l 1,9,-1
 914 1276 l 1,10,-1
 1072 1276 l 1,11,-1
 655 541 l 1,12,-1
 919 541 l 1,13,-1
 919 421 l 1,14,-1
 638 421 l 1,15,-1
 638 335 l 1,16,-1
 919 335 l 1,17,-1
 919 215 l 1,18,-1
 638 215 l 1,19,-1
 638 0 l 1,20,-1
 494 0 l 1,21,-1
 494 215 l 1,22,-1
 219 215 l 1,0,-1
EndSplineSet
EndChar

StartChar: brokenbar
Encoding: 166 166 106
Width: 1126
GlyphClass: 2
Flags: W
LayerCount: 2
Fore
SplineSet
495 604 m 1,0,-1
 495 1335 l 1,1,-1
 633 1335 l 1,2,-1
 633 604 l 1,3,-1
 495 604 l 1,0,-1
495 -309 m 1,4,-1
 495 401 l 1,5,-1
 633 401 l 1,6,-1
 633 -309 l 1,7,-1
 495 -309 l 1,4,-1
EndSplineSet
EndChar

StartChar: section
Encoding: 167 167 107
Width: 1126
GlyphClass: 2
Flags: W
LayerCount: 2
Fore
SplineSet
366 84 m 0,0,1
 428 25 428 25 526 25 c 128,-1,2
 624 25 624 25 682.5 68.5 c 128,-1,3
 741 112 741 112 741 192 c 0,4,5
 741 235 741 235 732 252 c 128,-1,6
 723 269 723 269 718 278 c 128,-1,7
 713 287 713 287 695 299 c 128,-1,8
 677 311 677 311 666 317.5 c 128,-1,9
 655 324 655 324 623 337 c 0,10,11
 571 358 571 358 506.5 381.5 c 128,-1,12
 442 405 442 405 401 423 c 128,-1,13
 360 441 360 441 321 464.5 c 128,-1,14
 282 488 282 488 260 512 c 1,15,16
 213 567 213 567 213 639.5 c 128,-1,17
 213 712 213 712 245.5 766.5 c 128,-1,18
 278 821 278 821 346 875 c 1,19,20
 244 952 244 952 244 1081 c 128,-1,21
 244 1210 244 1210 339.5 1293 c 128,-1,22
 435 1376 435 1376 578 1376 c 0,23,24
 679 1376 679 1376 763.5 1328 c 128,-1,25
 848 1280 848 1280 897 1194 c 1,26,-1
 780 1092 l 1,27,28
 770 1102 770 1102 768 1114 c 0,29,30
 755 1176 755 1176 701 1215.5 c 128,-1,31
 647 1255 647 1255 572.5 1255 c 128,-1,32
 498 1255 498 1255 445.5 1214 c 128,-1,33
 393 1173 393 1173 393 1100.5 c 128,-1,34
 393 1028 393 1028 451 986.5 c 128,-1,35
 509 945 509 945 691 865 c 0,36,37
 709 856 709 856 719 852 c 0,38,39
 830 803 830 803 868.5 749 c 128,-1,40
 907 695 907 695 907 617 c 0,41,42
 907 510 907 510 802 392 c 1,43,44
 887 323 887 323 887 194 c 128,-1,45
 887 65 887 65 787 -23 c 128,-1,46
 687 -111 687 -111 535 -111 c 0,47,48
 432 -111 432 -111 339.5 -66.5 c 128,-1,49
 247 -22 247 -22 184 63 c 1,50,-1
 291 188 l 1,51,52
 308 183 308 183 310 162 c 0,53,54
 311 152 311 152 325 131 c 128,-1,55
 339 110 339 110 366 84 c 0,0,1
698 454 m 1,56,57
 753 522 753 522 753 595.5 c 128,-1,58
 753 669 753 669 694.5 711 c 128,-1,59
 636 753 636 753 434 831 c 1,60,61
 362 764 362 764 362 685 c 0,62,63
 362 620 362 620 405 584 c 128,-1,64
 448 548 448 548 549.5 512 c 128,-1,65
 651 476 651 476 698 454 c 1,56,57
EndSplineSet
EndChar

StartChar: dieresis
Encoding: 168 168 108
Width: 1126
GlyphClass: 2
Flags: W
LayerCount: 2
Fore
SplineSet
468 1174.5 m 128,-1,1
 435 1141 435 1141 384.5 1141 c 128,-1,2
 334 1141 334 1141 300 1174 c 128,-1,3
 266 1207 266 1207 266 1257.5 c 128,-1,4
 266 1308 266 1308 300 1342 c 128,-1,5
 334 1376 334 1376 384.5 1376 c 128,-1,6
 435 1376 435 1376 468 1342.5 c 128,-1,7
 501 1309 501 1309 501 1258.5 c 128,-1,0
 501 1208 501 1208 468 1174.5 c 128,-1,1
831 1176 m 128,-1,9
 798 1143 798 1143 748.5 1143 c 128,-1,10
 699 1143 699 1143 667 1175.5 c 128,-1,11
 635 1208 635 1208 635 1257.5 c 128,-1,12
 635 1307 635 1307 667 1340.5 c 128,-1,13
 699 1374 699 1374 748.5 1374 c 128,-1,14
 798 1374 798 1374 831 1341 c 128,-1,15
 864 1308 864 1308 864 1258.5 c 128,-1,8
 864 1209 864 1209 831 1176 c 128,-1,9
EndSplineSet
EndChar

StartChar: copyright
Encoding: 169 169 109
Width: 1126
GlyphClass: 2
Flags: W
LayerCount: 2
Fore
SplineSet
146 299.5 m 128,-1,1
 80 420 80 420 80 562 c 128,-1,2
 80 704 80 704 146.5 824.5 c 128,-1,3
 213 945 213 945 327 1015 c 128,-1,4
 441 1085 441 1085 574 1085 c 128,-1,5
 707 1085 707 1085 821.5 1015 c 128,-1,6
 936 945 936 945 1003.5 824 c 128,-1,7
 1071 703 1071 703 1071 562 c 128,-1,8
 1071 421 1071 421 1004.5 301 c 128,-1,9
 938 181 938 181 823 110 c 128,-1,10
 708 39 708 39 573.5 39 c 128,-1,11
 439 39 439 39 325.5 109 c 128,-1,0
 212 179 212 179 146 299.5 c 128,-1,1
290 872 m 128,-1,13
 172 745 172 745 172 562.5 c 128,-1,14
 172 380 172 380 290.5 253.5 c 128,-1,15
 409 127 409 127 577 127 c 0,16,17
 685 127 685 127 778.5 186 c 128,-1,18
 872 245 872 245 927.5 345.5 c 128,-1,19
 983 446 983 446 983 563.5 c 128,-1,20
 983 681 983 681 928.5 781.5 c 128,-1,21
 874 882 874 882 780.5 940.5 c 128,-1,22
 687 999 687 999 577 999 c 0,23,12
 408 999 408 999 290 872 c 128,-1,13
374 343.5 m 128,-1,25
 287 437 287 437 287 563.5 c 128,-1,26
 287 690 287 690 375 779 c 128,-1,27
 463 868 463 868 571.5 868 c 128,-1,28
 680 868 680 868 751.5 817 c 128,-1,29
 823 766 823 766 844 678 c 1,30,-1
 737 639 l 1,31,32
 730 651 730 651 730.5 668 c 128,-1,33
 731 685 731 685 719.5 702.5 c 128,-1,34
 708 720 708 720 672 743 c 128,-1,35
 636 766 636 766 591 766 c 128,-1,36
 546 766 546 766 505 747.5 c 128,-1,37
 464 729 464 729 432.5 684 c 128,-1,38
 401 639 401 639 401 575 c 0,39,40
 401 485 401 485 457.5 420.5 c 128,-1,41
 514 356 514 356 594 356 c 0,42,43
 643 356 643 356 684 381 c 128,-1,44
 725 406 725 406 747 449 c 1,45,-1
 837 389 l 1,46,47
 795 324 795 324 727 287 c 128,-1,48
 659 250 659 250 586 250 c 0,49,24
 461 250 461 250 374 343.5 c 128,-1,25
EndSplineSet
EndChar

StartChar: ordfeminine
Encoding: 170 170 110
Width: 1126
GlyphClass: 2
Flags: W
LayerCount: 2
Fore
SplineSet
698 614 m 1,0,1
 604 526 604 526 492 526 c 128,-1,2
 380 526 380 526 310 589 c 128,-1,3
 240 652 240 652 240 739.5 c 128,-1,4
 240 827 240 827 304.5 888.5 c 128,-1,5
 369 950 369 950 479 967 c 1,6,7
 567 975 567 975 668 975 c 2,8,-1
 696 975 l 1,9,-1
 696 999 l 2,10,11
 696 1165 696 1165 545 1165 c 0,12,13
 416 1165 416 1165 352 1075 c 1,14,-1
 283 1159 l 1,15,16
 384 1274 384 1274 557 1274 c 1,17,18
 827 1265 827 1265 827 1014 c 2,19,-1
 827 547 l 1,20,-1
 698 547 l 1,21,-1
 698 614 l 1,0,1
629 679 m 0,22,23
 661 700 661 700 681.5 739.5 c 128,-1,24
 702 779 702 779 702 831 c 2,25,-1
 702 868 l 1,26,-1
 670 868 l 2,27,28
 492 868 492 868 431.5 844 c 128,-1,29
 371 820 371 820 371 743 c 0,30,31
 371 701 371 701 406.5 669 c 128,-1,32
 442 637 442 637 503.5 637 c 128,-1,33
 565 637 565 637 629 679 c 0,22,23
186 311 m 1,34,-1
 186 422 l 1,35,-1
 901 422 l 1,36,-1
 901 311 l 1,37,-1
 186 311 l 1,34,-1
EndSplineSet
EndChar

StartChar: guillemotleft
Encoding: 171 171 111
Width: 1126
GlyphClass: 2
Flags: W
LayerCount: 2
Fore
SplineSet
561 471 m 1,0,-1
 561 518 l 1,1,-1
 870 819 l 1,2,-1
 950 735 l 1,3,-1
 702 494 l 1,4,-1
 964 207 l 1,5,-1
 882 125 l 1,6,-1
 561 471 l 1,0,-1
188 471 m 1,7,-1
 188 518 l 1,8,-1
 499 819 l 1,9,-1
 579 735 l 1,10,-1
 331 494 l 1,11,-1
 593 207 l 1,12,-1
 512 125 l 1,13,-1
 188 471 l 1,7,-1
EndSplineSet
EndChar

StartChar: logicalnot
Encoding: 172 172 112
Width: 1126
GlyphClass: 2
Flags: W
LayerCount: 2
Fore
SplineSet
147 591 m 1,0,-1
 147 711 l 1,1,-1
 993 711 l 1,2,-1
 993 322 l 1,3,-1
 853 322 l 1,4,-1
 853 591 l 1,5,-1
 147 591 l 1,0,-1
EndSplineSet
EndChar

StartChar: uni00AD
Encoding: 173 173 113
Width: 1126
GlyphClass: 2
Flags: W
LayerCount: 2
Fore
SplineSet
196 575 m 1,0,-1
 196 713 l 1,1,-1
 934 713 l 1,2,-1
 934 575 l 1,3,-1
 196 575 l 1,0,-1
EndSplineSet
EndChar

StartChar: registered
Encoding: 174 174 114
Width: 1126
GlyphClass: 2
Flags: W
LayerCount: 2
Fore
SplineSet
146 299.5 m 128,-1,1
 80 420 80 420 80 562 c 128,-1,2
 80 704 80 704 146.5 824.5 c 128,-1,3
 213 945 213 945 327 1015 c 128,-1,4
 441 1085 441 1085 574 1085 c 128,-1,5
 707 1085 707 1085 821.5 1015 c 128,-1,6
 936 945 936 945 1003.5 824 c 128,-1,7
 1071 703 1071 703 1071 562 c 128,-1,8
 1071 421 1071 421 1004.5 301 c 128,-1,9
 938 181 938 181 823 110 c 128,-1,10
 708 39 708 39 573.5 39 c 128,-1,11
 439 39 439 39 325.5 109 c 128,-1,0
 212 179 212 179 146 299.5 c 128,-1,1
290 872 m 128,-1,13
 172 745 172 745 172 562.5 c 128,-1,14
 172 380 172 380 290.5 253.5 c 128,-1,15
 409 127 409 127 577 127 c 0,16,17
 685 127 685 127 778.5 186 c 128,-1,18
 872 245 872 245 927.5 345.5 c 128,-1,19
 983 446 983 446 983 563.5 c 128,-1,20
 983 681 983 681 928.5 781.5 c 128,-1,21
 874 882 874 882 780.5 940.5 c 128,-1,22
 687 999 687 999 577 999 c 0,23,12
 408 999 408 999 290 872 c 128,-1,13
368 272 m 1,24,-1
 368 870 l 1,25,-1
 561 870 l 2,26,27
 689 870 689 870 748 822.5 c 128,-1,28
 807 775 807 775 807 696 c 0,29,30
 807 643 807 643 776 598.5 c 128,-1,31
 745 554 745 554 690 539 c 1,32,-1
 821 283 l 1,33,-1
 725 268 l 1,34,-1
 598 524 l 1,35,-1
 463 524 l 1,36,-1
 463 272 l 1,37,-1
 368 272 l 1,24,-1
463 606 m 1,38,-1
 569 606 l 2,39,40
 715 606 715 606 715 696 c 128,-1,41
 715 786 715 786 563 786 c 2,42,-1
 463 786 l 1,43,-1
 463 606 l 1,38,-1
EndSplineSet
EndChar

StartChar: macron
Encoding: 175 175 115
Width: 1126
GlyphClass: 2
Flags: W
LayerCount: 2
Fore
SplineSet
303 1157 m 1,0,-1
 303 1272 l 1,1,-1
 823 1272 l 1,2,-1
 823 1157 l 1,3,-1
 303 1157 l 1,0,-1
EndSplineSet
EndChar

StartChar: degree
Encoding: 176 176 116
Width: 1126
GlyphClass: 2
Flags: W
LayerCount: 2
Fore
SplineSet
551 758 m 128,-1,1
 432 758 432 758 353 836 c 128,-1,2
 274 914 274 914 274 1032 c 128,-1,3
 274 1150 274 1150 353 1229.5 c 128,-1,4
 432 1309 432 1309 550.5 1309 c 128,-1,5
 669 1309 669 1309 748 1230 c 128,-1,6
 827 1151 827 1151 827 1032.5 c 128,-1,7
 827 914 827 914 748.5 836 c 128,-1,0
 670 758 670 758 551 758 c 128,-1,1
442.5 917 m 128,-1,9
 486 870 486 870 551.5 870 c 128,-1,10
 617 870 617 870 661 917 c 128,-1,11
 705 964 705 964 705 1034 c 128,-1,12
 705 1104 705 1104 661.5 1152 c 128,-1,13
 618 1200 618 1200 552.5 1200 c 128,-1,14
 487 1200 487 1200 443 1152.5 c 128,-1,15
 399 1105 399 1105 399 1034.5 c 128,-1,8
 399 964 399 964 442.5 917 c 128,-1,9
EndSplineSet
EndChar

StartChar: plusminus
Encoding: 177 177 117
Width: 1126
GlyphClass: 2
Flags: W
LayerCount: 2
Fore
SplineSet
506 352 m 1,0,-1
 506 702 l 1,1,-1
 143 702 l 1,2,-1
 143 827 l 1,3,-1
 506 827 l 1,4,-1
 506 1177 l 1,5,-1
 635 1177 l 1,6,-1
 635 827 l 1,7,-1
 985 827 l 1,8,-1
 985 702 l 1,9,-1
 635 702 l 1,10,-1
 635 352 l 1,11,-1
 506 352 l 1,0,-1
145 35 m 1,12,-1
 145 164 l 1,13,-1
 987 164 l 1,14,-1
 987 35 l 1,15,-1
 145 35 l 1,12,-1
EndSplineSet
EndChar

StartChar: twosuperior
Encoding: 178 178 118
Width: 1126
GlyphClass: 2
Flags: W
LayerCount: 2
Fore
SplineSet
279 518 m 1,0,-1
 279 608 l 1,1,2
 405 757 405 757 579 884 c 0,3,4
 654 938 654 938 681.5 979 c 128,-1,5
 709 1020 709 1020 709 1071 c 0,6,7
 709 1200 709 1200 564.5 1200 c 128,-1,8
 420 1200 420 1200 361 1071 c 1,9,-1
 258 1135 l 1,10,11
 354 1305 354 1305 568 1305 c 0,12,13
 695 1305 695 1305 764.5 1246.5 c 128,-1,14
 834 1188 834 1188 834 1074 c 0,15,16
 834 988 834 988 786 922 c 128,-1,17
 738 856 738 856 631 783.5 c 128,-1,18
 524 711 524 711 438 629 c 1,19,-1
 801 629 l 2,20,21
 808 629 808 629 823 638 c 128,-1,22
 838 647 838 647 844 647 c 2,23,-1
 850 647 l 1,24,-1
 850 518 l 1,25,-1
 279 518 l 1,0,-1
EndSplineSet
EndChar

StartChar: threesuperior
Encoding: 179 179 119
Width: 1126
GlyphClass: 2
Flags: W
LayerCount: 2
Fore
SplineSet
539 629 m 0,0,1
 630 629 630 629 678 657 c 128,-1,2
 726 685 726 685 726 744.5 c 128,-1,3
 726 804 726 804 676.5 839 c 128,-1,4
 627 874 627 874 543 874 c 0,5,6
 512 874 512 874 484 870 c 1,7,-1
 484 975 l 1,8,9
 492 973 492 973 509 973 c 0,10,11
 695 973 695 973 695 1076 c 0,12,13
 695 1129 695 1129 649.5 1163.5 c 128,-1,14
 604 1198 604 1198 538 1198 c 0,15,16
 426 1198 426 1198 351 1104 c 1,17,-1
 277 1180 l 1,18,19
 385 1307 385 1307 544 1307 c 0,20,21
 674 1307 674 1307 746 1247 c 128,-1,22
 818 1187 818 1187 818 1087 c 0,23,24
 818 1031 818 1031 785.5 986.5 c 128,-1,25
 753 942 753 942 701 926 c 1,26,27
 768 915 768 915 807.5 870 c 128,-1,28
 847 825 847 825 847 747 c 0,29,30
 847 641 847 641 765.5 577.5 c 128,-1,31
 684 514 684 514 539 514 c 0,32,33
 366 514 366 514 250 647 c 1,34,-1
 347 754 l 1,35,36
 352 747 352 747 358 728 c 0,37,38
 374 677 374 677 443 648 c 0,39,40
 488 629 488 629 539 629 c 0,0,1
EndSplineSet
EndChar

StartChar: acute
Encoding: 180 180 120
Width: 1126
GlyphClass: 2
Flags: W
LayerCount: 2
Fore
SplineSet
452 1038 m 1,0,-1
 369 1079 l 1,1,-1
 539 1424 l 1,2,-1
 669 1346 l 1,3,-1
 452 1038 l 1,0,-1
EndSplineSet
EndChar

StartChar: uni00B5
Encoding: 181 181 121
Width: 1126
GlyphClass: 2
Flags: W
LayerCount: 2
Fore
SplineSet
229 -62 m 2,0,1
 229 -244 229 -244 227 -331 c 1,2,-1
 95 -331 l 1,3,4
 98 -279 98 -279 117 24.5 c 128,-1,5
 136 328 136 328 136 414 c 2,6,-1
 136 936 l 1,7,-1
 276 936 l 1,8,-1
 276 381 l 2,9,10
 276 224 276 224 331 156.5 c 128,-1,11
 386 89 386 89 476.5 89 c 128,-1,12
 567 89 567 89 624.5 163.5 c 128,-1,13
 682 238 682 238 682 393 c 2,14,-1
 682 936 l 1,15,-1
 822 936 l 1,16,-1
 822 238 l 2,17,18
 822 96 822 96 903 96 c 0,19,20
 969 96 969 96 1016 197 c 1,21,-1
 1072 92 l 1,22,23
 996 -20 996 -20 894 -20 c 0,24,25
 826 -20 826 -20 774.5 26 c 128,-1,26
 723 72 723 72 715 137 c 1,27,28
 682 62 682 62 614 21 c 128,-1,29
 546 -20 546 -20 464 -20 c 128,-1,30
 382 -20 382 -20 319 16.5 c 128,-1,31
 256 53 256 53 229 123 c 1,32,-1
 229 -62 l 2,0,1
EndSplineSet
EndChar

StartChar: paragraph
Encoding: 182 182 122
Width: 1126
GlyphClass: 2
Flags: W
LayerCount: 2
Fore
SplineSet
549 -139 m 1,0,-1
 549 659 l 1,1,2
 395 669 395 669 288.5 772.5 c 128,-1,3
 182 876 182 876 182 1016 c 0,4,5
 182 1164 182 1164 293 1259 c 0,6,7
 350 1308 350 1308 450.5 1335 c 128,-1,8
 551 1362 551 1362 688 1362 c 2,9,-1
 944 1362 l 1,10,-1
 944 -139 l 1,11,-1
 825 -139 l 1,12,-1
 825 1245 l 1,13,-1
 669 1245 l 1,14,-1
 669 -139 l 1,15,-1
 549 -139 l 1,0,-1
EndSplineSet
EndChar

StartChar: periodcentered
Encoding: 183 183 123
Width: 1126
GlyphClass: 2
Flags: W
LayerCount: 2
Fore
SplineSet
540 520 m 128,-1,1
 494 520 494 520 462 552 c 128,-1,2
 430 584 430 584 430 630 c 128,-1,3
 430 676 430 676 462 708 c 128,-1,4
 494 740 494 740 540 740 c 128,-1,5
 586 740 586 740 618 708 c 128,-1,6
 650 676 650 676 650 630 c 128,-1,7
 650 584 650 584 618 552 c 128,-1,0
 586 520 586 520 540 520 c 128,-1,1
EndSplineSet
EndChar

StartChar: cedilla
Encoding: 184 184 124
Width: 1126
GlyphClass: 2
Flags: W
LayerCount: 2
Fore
SplineSet
618 -283 m 0,0,1
 678 -283 678 -283 699.5 -268 c 128,-1,2
 721 -253 721 -253 721 -229.5 c 128,-1,3
 721 -206 721 -206 711 -196 c 0,4,5
 689 -175 689 -175 563 -170 c 1,6,-1
 586 0 l 1,7,-1
 676 0 l 1,8,-1
 663 -96 l 1,9,10
 754 -103 754 -103 797 -130.5 c 128,-1,11
 840 -158 840 -158 840 -215 c 0,12,13
 840 -289 840 -289 775 -335 c 128,-1,14
 710 -381 710 -381 606 -381 c 128,-1,15
 502 -381 502 -381 425 -316 c 1,16,-1
 457 -230 l 1,17,18
 529 -283 529 -283 618 -283 c 0,0,1
EndSplineSet
EndChar

StartChar: onesuperior
Encoding: 185 185 125
Width: 1126
GlyphClass: 2
Flags: W
LayerCount: 2
Fore
SplineSet
532 518 m 1,0,-1
 532 1133 l 1,1,-1
 334 1081 l 1,2,-1
 301 1145 l 1,3,-1
 573 1296 l 1,4,-1
 663 1296 l 1,5,-1
 663 518 l 1,6,-1
 532 518 l 1,0,-1
EndSplineSet
EndChar

StartChar: ordmasculine
Encoding: 186 186 126
Width: 1126
GlyphClass: 2
Flags: W
LayerCount: 2
Fore
SplineSet
757.5 624.5 m 128,-1,1
 675 524 675 524 529.5 524 c 128,-1,2
 384 524 384 524 303.5 620.5 c 128,-1,3
 223 717 223 717 223 893.5 c 128,-1,4
 223 1070 223 1070 306 1172 c 128,-1,5
 389 1274 389 1274 534.5 1274 c 128,-1,6
 680 1274 680 1274 760 1176 c 128,-1,7
 840 1078 840 1078 840 901.5 c 128,-1,0
 840 725 840 725 757.5 624.5 c 128,-1,1
394.5 710 m 128,-1,9
 443 643 443 643 530.5 643 c 128,-1,10
 618 643 618 643 667.5 710 c 128,-1,11
 717 777 717 777 717 898.5 c 128,-1,12
 717 1020 717 1020 668.5 1089.5 c 128,-1,13
 620 1159 620 1159 532.5 1159 c 128,-1,14
 445 1159 445 1159 395.5 1089.5 c 128,-1,15
 346 1020 346 1020 346 898.5 c 128,-1,8
 346 777 346 777 394.5 710 c 128,-1,9
182 311 m 1,16,-1
 182 422 l 1,17,-1
 897 422 l 1,18,-1
 897 311 l 1,19,-1
 182 311 l 1,16,-1
EndSplineSet
EndChar

StartChar: guillemotright
Encoding: 187 187 127
Width: 1126
GlyphClass: 2
Flags: W
LayerCount: 2
Fore
SplineSet
561 207 m 1,0,-1
 821 494 l 1,1,-1
 573 735 l 1,2,-1
 653 819 l 1,3,-1
 964 518 l 1,4,-1
 964 471 l 1,5,-1
 641 125 l 1,6,-1
 561 207 l 1,0,-1
188 207 m 1,7,-1
 450 494 l 1,8,-1
 202 735 l 1,9,-1
 282 819 l 1,10,-1
 593 518 l 1,11,-1
 593 471 l 1,12,-1
 270 125 l 1,13,-1
 188 207 l 1,7,-1
EndSplineSet
EndChar

StartChar: onequarter
Encoding: 188 188 128
Width: 1126
GlyphClass: 2
Flags: W
LayerCount: 2
Fore
SplineSet
155 0 m 1,0,-1
 862 1376 l 1,1,-1
 989 1376 l 1,2,-1
 276 0 l 1,3,-1
 155 0 l 1,0,-1
226 686 m 1,4,-1
 226 1234 l 1,5,-1
 69 1194 l 1,6,-1
 42 1258 l 1,7,-1
 261 1376 l 1,8,-1
 340 1376 l 1,9,-1
 340 686 l 1,10,-1
 226 686 l 1,4,-1
554 149 m 1,11,-1
 554 219 l 1,12,-1
 852 690 l 1,13,-1
 958 690 l 1,14,-1
 958 235 l 1,15,-1
 1061 235 l 1,16,-1
 1061 149 l 1,17,-1
 958 149 l 1,18,-1
 958 0 l 1,19,-1
 853 0 l 1,20,-1
 853 149 l 1,21,-1
 554 149 l 1,11,-1
853 235 m 1,22,-1
 853 416 l 1,23,-1
 860 530 l 1,24,-1
 798 416 l 1,25,-1
 681 235 l 1,26,-1
 853 235 l 1,22,-1
EndSplineSet
EndChar

StartChar: onehalf
Encoding: 189 189 129
Width: 1126
GlyphClass: 2
Flags: W
LayerCount: 2
Fore
SplineSet
155 0 m 1,0,-1
 862 1376 l 1,1,-1
 989 1376 l 1,2,-1
 276 0 l 1,3,-1
 155 0 l 1,0,-1
226 686 m 1,4,-1
 226 1234 l 1,5,-1
 69 1194 l 1,6,-1
 42 1258 l 1,7,-1
 261 1376 l 1,8,-1
 340 1376 l 1,9,-1
 340 686 l 1,10,-1
 226 686 l 1,4,-1
654 0 m 1,11,-1
 654 72 l 1,12,13
 694 143 694 143 747 216.5 c 128,-1,14
 800 290 800 290 836 332 c 0,15,16
 922 436 922 436 922 517 c 0,17,18
 922 554 922 554 903.5 574.5 c 128,-1,19
 885 595 885 595 848 595 c 128,-1,20
 811 595 811 595 782.5 583 c 128,-1,21
 754 571 754 571 721 540 c 1,22,-1
 660 609 l 1,23,24
 746 695 746 695 844 695 c 128,-1,25
 942 695 942 695 988.5 647.5 c 128,-1,26
 1035 600 1035 600 1035 518 c 0,27,28
 1035 469 1035 469 1007.5 412.5 c 128,-1,29
 980 356 980 356 945 312 c 0,30,31
 817 152 817 152 785 100 c 1,32,-1
 998 100 l 2,33,34
 1003 100 1003 100 1016 107 c 128,-1,35
 1029 114 1029 114 1037 114 c 1,36,-1
 1037 0 l 1,37,-1
 654 0 l 1,11,-1
EndSplineSet
EndChar

StartChar: threequarters
Encoding: 190 190 130
Width: 1126
GlyphClass: 2
Flags: W
LayerCount: 2
Fore
SplineSet
155 0 m 1,0,-1
 862 1376 l 1,1,-1
 989 1376 l 1,2,-1
 276 0 l 1,3,-1
 155 0 l 1,0,-1
424.5 746 m 128,-1,5
 364 687 364 687 252 687 c 128,-1,6
 140 687 140 687 49 783 c 1,7,-1
 120 872 l 1,8,9
 131 863 131 863 137 848 c 0,10,11
 161 785 161 785 267 785 c 0,12,13
 319 785 319 785 345 813.5 c 128,-1,14
 371 842 371 842 371 890 c 0,15,16
 371 1004 371 1004 267 1004 c 2,17,-1
 214 1004 l 1,18,-1
 214 1080 l 1,19,-1
 263 1080 l 2,20,21
 347 1080 347 1080 347 1186 c 0,22,23
 347 1278 347 1278 257 1278 c 0,24,25
 226 1278 226 1278 202 1269.5 c 128,-1,26
 178 1261 178 1261 145 1232 c 1,27,-1
 85 1294 l 1,28,29
 166 1376 166 1376 270 1376 c 0,30,31
 356 1376 356 1376 408 1328 c 128,-1,32
 460 1280 460 1280 460 1201 c 0,33,34
 460 1146 460 1146 440.5 1106 c 128,-1,35
 421 1066 421 1066 386 1049 c 1,36,37
 485 1015 485 1015 485 892 c 0,38,4
 485 805 485 805 424.5 746 c 128,-1,5
554 149 m 1,39,-1
 554 219 l 1,40,-1
 852 690 l 1,41,-1
 958 690 l 1,42,-1
 958 235 l 1,43,-1
 1061 235 l 1,44,-1
 1061 149 l 1,45,-1
 958 149 l 1,46,-1
 958 0 l 1,47,-1
 853 0 l 1,48,-1
 853 149 l 1,49,-1
 554 149 l 1,39,-1
853 235 m 1,50,-1
 853 416 l 1,51,-1
 860 530 l 1,52,-1
 798 416 l 1,53,-1
 681 235 l 1,54,-1
 853 235 l 1,50,-1
EndSplineSet
EndChar

StartChar: questiondown
Encoding: 191 191 131
Width: 1126
GlyphClass: 2
Flags: W
LayerCount: 2
Fore
SplineSet
536 1126 m 128,-1,1
 479 1126 479 1126 447 1157.5 c 128,-1,2
 415 1189 415 1189 415 1244.5 c 128,-1,3
 415 1300 415 1300 447 1331 c 128,-1,4
 479 1362 479 1362 536 1362 c 128,-1,5
 593 1362 593 1362 625 1331 c 128,-1,6
 657 1300 657 1300 657 1244.5 c 128,-1,7
 657 1189 657 1189 625 1157.5 c 128,-1,0
 593 1126 593 1126 536 1126 c 128,-1,1
178 293 m 0,8,9
 178 371 178 371 219 455 c 128,-1,10
 260 539 260 539 335 617 c 128,-1,11
 410 695 410 695 439.5 754 c 128,-1,12
 469 813 469 813 469 872 c 2,13,-1
 469 956 l 1,14,-1
 612 956 l 1,15,-1
 612 872 l 2,16,17
 612 791 612 791 577 716 c 128,-1,18
 542 641 542 641 458 557 c 0,19,20
 402 501 402 501 370 434.5 c 128,-1,21
 338 368 338 368 338 307 c 0,22,23
 338 214 338 214 390 162 c 128,-1,24
 442 110 442 110 535.5 110 c 128,-1,25
 629 110 629 110 708.5 156.5 c 128,-1,26
 788 203 788 203 835 284 c 1,27,-1
 940 186 l 1,28,29
 874 86 874 86 767.5 29.5 c 128,-1,30
 661 -27 661 -27 538 -27 c 0,31,32
 368 -27 368 -27 273 57.5 c 128,-1,33
 178 142 178 142 178 293 c 0,8,9
EndSplineSet
EndChar

StartChar: Agrave
Encoding: 192 192 132
Width: 1126
GlyphClass: 2
Flags: W
LayerCount: 2
Fore
SplineSet
718 1363 m 1,0,-1
 298 1534 l 1,1,-1
 367 1668 l 1,2,-1
 758 1441 l 1,3,-1
 718 1363 l 1,0,-1
57 0 m 1,4,-1
 530 1298 l 1,5,-1
 602 1298 l 1,6,-1
 1075 0 l 1,7,-1
 915 0 l 1,8,-1
 786 373 l 1,9,-1
 334 373 l 1,10,-1
 203 0 l 1,11,-1
 57 0 l 1,4,-1
377 496 m 1,12,-1
 743 496 l 1,13,-1
 561 1021 l 1,14,-1
 377 496 l 1,12,-1
EndSplineSet
EndChar

StartChar: Aacute
Encoding: 193 193 133
Width: 1126
GlyphClass: 2
Flags: W
LayerCount: 2
Fore
SplineSet
429 1363 m 1,0,-1
 389 1441 l 1,1,-1
 780 1668 l 1,2,-1
 849 1534 l 1,3,-1
 429 1363 l 1,0,-1
57 0 m 1,4,-1
 530 1298 l 1,5,-1
 602 1298 l 1,6,-1
 1075 0 l 1,7,-1
 915 0 l 1,8,-1
 786 373 l 1,9,-1
 334 373 l 1,10,-1
 203 0 l 1,11,-1
 57 0 l 1,4,-1
377 496 m 1,12,-1
 743 496 l 1,13,-1
 561 1021 l 1,14,-1
 377 496 l 1,12,-1
EndSplineSet
EndChar

StartChar: Acircumflex
Encoding: 194 194 134
Width: 1126
GlyphClass: 2
Flags: W
LayerCount: 2
Fore
SplineSet
341 1358 m 1,0,-1
 273 1435 l 1,1,-1
 504 1601 l 1,2,-1
 616 1601 l 1,3,-1
 853 1435 l 1,4,-1
 785 1358 l 1,5,-1
 559 1487 l 1,6,-1
 341 1358 l 1,0,-1
57 0 m 1,7,-1
 530 1298 l 1,8,-1
 602 1298 l 1,9,-1
 1075 0 l 1,10,-1
 915 0 l 1,11,-1
 786 373 l 1,12,-1
 334 373 l 1,13,-1
 203 0 l 1,14,-1
 57 0 l 1,7,-1
377 496 m 1,15,-1
 743 496 l 1,16,-1
 561 1021 l 1,17,-1
 377 496 l 1,15,-1
EndSplineSet
EndChar

StartChar: Atilde
Encoding: 195 195 135
Width: 1126
GlyphClass: 2
Flags: W
LayerCount: 2
Fore
SplineSet
465 1611 m 0,0,1
 504 1611 504 1611 544.5 1591.5 c 128,-1,2
 585 1572 585 1572 614 1548 c 0,3,4
 690 1485 690 1485 740 1485 c 0,5,6
 770 1485 770 1485 792 1502.5 c 128,-1,7
 814 1520 814 1520 856 1575 c 1,8,-1
 925 1508 l 1,9,10
 866 1426 866 1426 822 1395.5 c 128,-1,11
 778 1365 778 1365 733 1365 c 128,-1,12
 688 1365 688 1365 647.5 1385.5 c 128,-1,13
 607 1406 607 1406 580 1430 c 0,14,15
 505 1495 505 1495 465 1495 c 128,-1,16
 425 1495 425 1495 392.5 1475 c 128,-1,17
 360 1455 360 1455 317 1393 c 1,18,-1
 231 1448 l 1,19,20
 286 1537 286 1537 342 1574 c 128,-1,21
 398 1611 398 1611 465 1611 c 0,0,1
57 0 m 1,22,-1
 530 1298 l 1,23,-1
 602 1298 l 1,24,-1
 1075 0 l 1,25,-1
 915 0 l 1,26,-1
 786 373 l 1,27,-1
 334 373 l 1,28,-1
 203 0 l 1,29,-1
 57 0 l 1,22,-1
377 496 m 1,30,-1
 743 496 l 1,31,-1
 561 1021 l 1,32,-1
 377 496 l 1,30,-1
EndSplineSet
EndChar

StartChar: Adieresis
Encoding: 196 196 136
Width: 1126
GlyphClass: 2
Flags: W
LayerCount: 2
Fore
SplineSet
845.5 1432 m 128,-1,1
 814 1401 814 1401 767.5 1401 c 128,-1,2
 721 1401 721 1401 690.5 1431.5 c 128,-1,3
 660 1462 660 1462 660 1509.5 c 128,-1,4
 660 1557 660 1557 690.5 1588.5 c 128,-1,5
 721 1620 721 1620 767.5 1620 c 128,-1,6
 814 1620 814 1620 845.5 1588.5 c 128,-1,7
 877 1557 877 1557 877 1510 c 128,-1,0
 877 1463 877 1463 845.5 1432 c 128,-1,1
483.5 1432 m 128,-1,9
 452 1401 452 1401 405.5 1401 c 128,-1,10
 359 1401 359 1401 328.5 1431.5 c 128,-1,11
 298 1462 298 1462 298 1509.5 c 128,-1,12
 298 1557 298 1557 328.5 1588.5 c 128,-1,13
 359 1620 359 1620 405.5 1620 c 128,-1,14
 452 1620 452 1620 483.5 1588.5 c 128,-1,15
 515 1557 515 1557 515 1510 c 128,-1,8
 515 1463 515 1463 483.5 1432 c 128,-1,9
57 0 m 1,16,-1
 530 1298 l 1,17,-1
 602 1298 l 1,18,-1
 1075 0 l 1,19,-1
 915 0 l 1,20,-1
 786 373 l 1,21,-1
 334 373 l 1,22,-1
 203 0 l 1,23,-1
 57 0 l 1,16,-1
377 496 m 1,24,-1
 743 496 l 1,25,-1
 561 1021 l 1,26,-1
 377 496 l 1,24,-1
EndSplineSet
EndChar

StartChar: Aring
Encoding: 197 197 137
Width: 1126
GlyphClass: 2
Flags: W
LayerCount: 2
Fore
SplineSet
416.5 1336.5 m 128,-1,1
 375 1386 375 1386 375 1453.5 c 128,-1,2
 375 1521 375 1521 431 1574.5 c 128,-1,3
 487 1628 487 1628 562.5 1628 c 128,-1,4
 638 1628 638 1628 694 1573.5 c 128,-1,5
 750 1519 750 1519 750 1453.5 c 128,-1,6
 750 1388 750 1388 710.5 1337.5 c 128,-1,7
 671 1287 671 1287 611 1274 c 1,8,-1
 1075 0 l 1,9,-1
 915 0 l 1,10,-1
 786 373 l 1,11,-1
 334 373 l 1,12,-1
 203 0 l 1,13,-1
 57 0 l 1,14,-1
 521 1273 l 1,15,0
 458 1287 458 1287 416.5 1336.5 c 128,-1,1
504 1382.5 m 128,-1,17
 529 1356 529 1356 564.5 1356 c 128,-1,18
 600 1356 600 1356 624.5 1382.5 c 128,-1,19
 649 1409 649 1409 649 1449 c 128,-1,20
 649 1489 649 1489 625 1515.5 c 128,-1,21
 601 1542 601 1542 565 1542 c 128,-1,22
 529 1542 529 1542 504 1515.5 c 128,-1,23
 479 1489 479 1489 479 1449 c 128,-1,16
 479 1409 479 1409 504 1382.5 c 128,-1,17
377 496 m 1,24,-1
 743 496 l 1,25,-1
 561 1021 l 1,26,-1
 377 496 l 1,24,-1
EndSplineSet
EndChar

StartChar: AE
Encoding: 198 198 138
Width: 1126
GlyphClass: 2
Flags: W
LayerCount: 2
Fore
SplineSet
1042 1278 m 1,0,-1
 1042 1151 l 1,1,-1
 692 1151 l 1,2,-1
 692 731 l 1,3,-1
 989 731 l 1,4,-1
 989 600 l 1,5,-1
 692 600 l 1,6,-1
 692 127 l 1,7,-1
 1038 127 l 1,8,-1
 1038 0 l 1,9,-1
 567 0 l 1,10,-1
 567 346 l 1,11,-1
 301 346 l 1,12,-1
 190 0 l 1,13,-1
 59 0 l 1,14,-1
 461 1278 l 1,15,-1
 1042 1278 l 1,0,-1
567 465 m 1,16,-1
 567 1151 l 1,17,-1
 545 1151 l 1,18,-1
 330 465 l 1,19,-1
 567 465 l 1,16,-1
EndSplineSet
EndChar

StartChar: Ccedilla
Encoding: 199 199 139
Width: 1126
GlyphClass: 2
Flags: W
LayerCount: 2
Fore
SplineSet
622 -283 m 0,0,1
 682 -283 682 -283 703.5 -268 c 128,-1,2
 725 -253 725 -253 725 -229.5 c 128,-1,3
 725 -206 725 -206 715 -196 c 0,4,5
 693 -175 693 -175 567 -170 c 1,6,-1
 587 -20 l 1,7,8
 360 -12 360 -12 232 159.5 c 128,-1,9
 104 331 104 331 104 635.5 c 128,-1,10
 104 940 104 940 239 1115 c 128,-1,11
 374 1290 374 1290 608 1290 c 0,12,13
 888 1290 888 1290 1006 1026 c 1,14,-1
 862 956 l 1,15,16
 861 958 861 958 853.5 978.5 c 128,-1,17
 846 999 846 999 836.5 1020.5 c 128,-1,18
 827 1042 827 1042 806.5 1070 c 128,-1,19
 786 1098 786 1098 759.5 1119 c 128,-1,20
 733 1140 733 1140 690.5 1155 c 128,-1,21
 648 1170 648 1170 596 1170 c 0,22,23
 438 1170 438 1170 345 1025 c 128,-1,24
 252 880 252 880 252 631 c 128,-1,25
 252 382 252 382 348 241 c 128,-1,26
 444 100 444 100 615.5 100 c 128,-1,27
 787 100 787 100 885 260 c 1,28,-1
 991 188 l 1,29,30
 877 10 877 10 678 -15 c 1,31,-1
 667 -96 l 1,32,33
 758 -103 758 -103 801 -130.5 c 128,-1,34
 844 -158 844 -158 844 -215 c 0,35,36
 844 -289 844 -289 779 -335 c 128,-1,37
 714 -381 714 -381 610 -381 c 128,-1,38
 506 -381 506 -381 429 -316 c 1,39,-1
 461 -230 l 1,40,41
 533 -283 533 -283 622 -283 c 0,0,1
EndSplineSet
EndChar

StartChar: Egrave
Encoding: 200 200 140
Width: 1126
GlyphClass: 2
Flags: W
LayerCount: 2
Fore
SplineSet
718 1363 m 1,0,-1
 298 1534 l 1,1,-1
 367 1668 l 1,2,-1
 758 1441 l 1,3,-1
 718 1363 l 1,0,-1
182 0 m 1,4,-1
 182 1276 l 1,5,-1
 965 1276 l 1,6,-1
 965 1153 l 1,7,-1
 326 1153 l 1,8,-1
 326 727 l 1,9,-1
 852 727 l 1,10,-1
 852 604 l 1,11,-1
 326 604 l 1,12,-1
 326 123 l 1,13,-1
 958 123 l 1,14,-1
 958 0 l 1,15,-1
 182 0 l 1,4,-1
EndSplineSet
EndChar

StartChar: Eacute
Encoding: 201 201 141
Width: 1126
GlyphClass: 2
Flags: W
LayerCount: 2
Fore
SplineSet
429 1363 m 1,0,-1
 389 1441 l 1,1,-1
 780 1668 l 1,2,-1
 849 1534 l 1,3,-1
 429 1363 l 1,0,-1
182 0 m 1,4,-1
 182 1276 l 1,5,-1
 965 1276 l 1,6,-1
 965 1153 l 1,7,-1
 326 1153 l 1,8,-1
 326 727 l 1,9,-1
 852 727 l 1,10,-1
 852 604 l 1,11,-1
 326 604 l 1,12,-1
 326 123 l 1,13,-1
 958 123 l 1,14,-1
 958 0 l 1,15,-1
 182 0 l 1,4,-1
EndSplineSet
EndChar

StartChar: Ecircumflex
Encoding: 202 202 142
Width: 1126
GlyphClass: 2
Flags: W
LayerCount: 2
Fore
SplineSet
341 1358 m 1,0,-1
 273 1435 l 1,1,-1
 504 1601 l 1,2,-1
 616 1601 l 1,3,-1
 853 1435 l 1,4,-1
 785 1358 l 1,5,-1
 559 1487 l 1,6,-1
 341 1358 l 1,0,-1
182 0 m 1,7,-1
 182 1276 l 1,8,-1
 965 1276 l 1,9,-1
 965 1153 l 1,10,-1
 326 1153 l 1,11,-1
 326 727 l 1,12,-1
 852 727 l 1,13,-1
 852 604 l 1,14,-1
 326 604 l 1,15,-1
 326 123 l 1,16,-1
 958 123 l 1,17,-1
 958 0 l 1,18,-1
 182 0 l 1,7,-1
EndSplineSet
EndChar

StartChar: Edieresis
Encoding: 203 203 143
Width: 1126
GlyphClass: 2
Flags: W
LayerCount: 2
Fore
SplineSet
845.5 1432 m 128,-1,1
 814 1401 814 1401 767.5 1401 c 128,-1,2
 721 1401 721 1401 690.5 1431.5 c 128,-1,3
 660 1462 660 1462 660 1509.5 c 128,-1,4
 660 1557 660 1557 690.5 1588.5 c 128,-1,5
 721 1620 721 1620 767.5 1620 c 128,-1,6
 814 1620 814 1620 845.5 1588.5 c 128,-1,7
 877 1557 877 1557 877 1510 c 128,-1,0
 877 1463 877 1463 845.5 1432 c 128,-1,1
483.5 1432 m 128,-1,9
 452 1401 452 1401 405.5 1401 c 128,-1,10
 359 1401 359 1401 328.5 1431.5 c 128,-1,11
 298 1462 298 1462 298 1509.5 c 128,-1,12
 298 1557 298 1557 328.5 1588.5 c 128,-1,13
 359 1620 359 1620 405.5 1620 c 128,-1,14
 452 1620 452 1620 483.5 1588.5 c 128,-1,15
 515 1557 515 1557 515 1510 c 128,-1,8
 515 1463 515 1463 483.5 1432 c 128,-1,9
182 0 m 1,16,-1
 182 1276 l 1,17,-1
 965 1276 l 1,18,-1
 965 1153 l 1,19,-1
 326 1153 l 1,20,-1
 326 727 l 1,21,-1
 852 727 l 1,22,-1
 852 604 l 1,23,-1
 326 604 l 1,24,-1
 326 123 l 1,25,-1
 958 123 l 1,26,-1
 958 0 l 1,27,-1
 182 0 l 1,16,-1
EndSplineSet
EndChar

StartChar: Igrave
Encoding: 204 204 144
Width: 1126
GlyphClass: 2
Flags: W
LayerCount: 2
Fore
SplineSet
757 1363 m 1,0,-1
 337 1534 l 1,1,-1
 406 1668 l 1,2,-1
 797 1441 l 1,3,-1
 757 1363 l 1,0,-1
213 0 m 1,4,-1
 213 125 l 1,5,-1
 485 125 l 1,6,-1
 485 1153 l 1,7,-1
 227 1153 l 1,8,-1
 227 1276 l 1,9,-1
 901 1276 l 1,10,-1
 901 1153 l 1,11,-1
 629 1153 l 1,12,-1
 629 123 l 1,13,-1
 913 123 l 1,14,-1
 913 0 l 1,15,-1
 213 0 l 1,4,-1
EndSplineSet
EndChar

StartChar: Iacute
Encoding: 205 205 145
Width: 1126
GlyphClass: 2
Flags: W
LayerCount: 2
Fore
SplineSet
468 1363 m 1,0,-1
 428 1441 l 1,1,-1
 819 1668 l 1,2,-1
 888 1534 l 1,3,-1
 468 1363 l 1,0,-1
213 0 m 1,4,-1
 213 125 l 1,5,-1
 485 125 l 1,6,-1
 485 1153 l 1,7,-1
 227 1153 l 1,8,-1
 227 1276 l 1,9,-1
 901 1276 l 1,10,-1
 901 1153 l 1,11,-1
 629 1153 l 1,12,-1
 629 123 l 1,13,-1
 913 123 l 1,14,-1
 913 0 l 1,15,-1
 213 0 l 1,4,-1
EndSplineSet
EndChar

StartChar: Icircumflex
Encoding: 206 206 146
Width: 1126
GlyphClass: 2
Flags: W
LayerCount: 2
Fore
SplineSet
345 1358 m 1,0,-1
 277 1435 l 1,1,-1
 508 1601 l 1,2,-1
 620 1601 l 1,3,-1
 857 1435 l 1,4,-1
 789 1358 l 1,5,-1
 563 1487 l 1,6,-1
 345 1358 l 1,0,-1
213 0 m 1,7,-1
 213 125 l 1,8,-1
 485 125 l 1,9,-1
 485 1153 l 1,10,-1
 227 1153 l 1,11,-1
 227 1276 l 1,12,-1
 901 1276 l 1,13,-1
 901 1153 l 1,14,-1
 629 1153 l 1,15,-1
 629 123 l 1,16,-1
 913 123 l 1,17,-1
 913 0 l 1,18,-1
 213 0 l 1,7,-1
EndSplineSet
EndChar

StartChar: Idieresis
Encoding: 207 207 147
Width: 1126
GlyphClass: 2
Flags: W
LayerCount: 2
Fore
SplineSet
826.5 1432 m 128,-1,1
 795 1401 795 1401 748.5 1401 c 128,-1,2
 702 1401 702 1401 671.5 1431.5 c 128,-1,3
 641 1462 641 1462 641 1509.5 c 128,-1,4
 641 1557 641 1557 671.5 1588.5 c 128,-1,5
 702 1620 702 1620 748.5 1620 c 128,-1,6
 795 1620 795 1620 826.5 1588.5 c 128,-1,7
 858 1557 858 1557 858 1510 c 128,-1,0
 858 1463 858 1463 826.5 1432 c 128,-1,1
464.5 1432 m 128,-1,9
 433 1401 433 1401 386.5 1401 c 128,-1,10
 340 1401 340 1401 309.5 1431.5 c 128,-1,11
 279 1462 279 1462 279 1509.5 c 128,-1,12
 279 1557 279 1557 309.5 1588.5 c 128,-1,13
 340 1620 340 1620 386.5 1620 c 128,-1,14
 433 1620 433 1620 464.5 1588.5 c 128,-1,15
 496 1557 496 1557 496 1510 c 128,-1,8
 496 1463 496 1463 464.5 1432 c 128,-1,9
213 0 m 1,16,-1
 213 125 l 1,17,-1
 485 125 l 1,18,-1
 485 1153 l 1,19,-1
 227 1153 l 1,20,-1
 227 1276 l 1,21,-1
 901 1276 l 1,22,-1
 901 1153 l 1,23,-1
 629 1153 l 1,24,-1
 629 123 l 1,25,-1
 913 123 l 1,26,-1
 913 0 l 1,27,-1
 213 0 l 1,16,-1
EndSplineSet
EndChar

StartChar: Eth
Encoding: 208 208 148
Width: 1126
GlyphClass: 2
Flags: W
LayerCount: 2
Fore
SplineSet
154 -2 m 1,0,-1
 154 611 l 1,1,-1
 43 611 l 1,2,-1
 43 730 l 1,3,-1
 154 730 l 1,4,-1
 154 1276 l 1,5,-1
 453 1276 l 2,6,7
 610 1276 610 1276 703.5 1233.5 c 128,-1,8
 797 1191 797 1191 864 1102 c 0,9,10
 991 931 991 931 991 640.5 c 128,-1,11
 991 350 991 350 850 168 c 0,12,13
 718 -2 718 -2 428 -2 c 2,14,-1
 154 -2 l 1,0,-1
297 121 m 1,15,-1
 422 121 l 2,16,17
 639 121 639 121 741.5 246.5 c 128,-1,18
 844 372 844 372 844 626.5 c 128,-1,19
 844 881 844 881 748 1017 c 128,-1,20
 652 1153 652 1153 444 1153 c 2,21,-1
 297 1153 l 1,22,-1
 297 730 l 1,23,-1
 629 730 l 1,24,-1
 629 611 l 1,25,-1
 297 611 l 1,26,-1
 297 121 l 1,15,-1
EndSplineSet
EndChar

StartChar: Ntilde
Encoding: 209 209 149
Width: 1126
GlyphClass: 2
Flags: W
LayerCount: 2
Fore
SplineSet
480 1611 m 0,0,1
 519 1611 519 1611 559.5 1591.5 c 128,-1,2
 600 1572 600 1572 629 1548 c 0,3,4
 705 1485 705 1485 755 1485 c 0,5,6
 785 1485 785 1485 807 1502.5 c 128,-1,7
 829 1520 829 1520 871 1575 c 1,8,-1
 940 1508 l 1,9,10
 881 1426 881 1426 837 1395.5 c 128,-1,11
 793 1365 793 1365 748 1365 c 128,-1,12
 703 1365 703 1365 662.5 1385.5 c 128,-1,13
 622 1406 622 1406 594 1430 c 0,14,15
 520 1495 520 1495 480 1495 c 128,-1,16
 440 1495 440 1495 407.5 1475 c 128,-1,17
 375 1455 375 1455 332 1393 c 1,18,-1
 246 1448 l 1,19,20
 301 1537 301 1537 357 1574 c 128,-1,21
 413 1611 413 1611 480 1611 c 0,0,1
139 0 m 1,22,-1
 139 1276 l 1,23,-1
 305 1276 l 1,24,-1
 852 270 l 1,25,-1
 842 547 l 1,26,-1
 842 1276 l 1,27,-1
 1000 1276 l 1,28,29
 1000 1266 1000 1266 993 1247 c 128,-1,30
 986 1228 986 1228 986 1206 c 2,31,-1
 986 0 l 1,32,-1
 856 0 l 1,33,-1
 427 780 l 1,34,-1
 273 1064 l 1,35,-1
 283 776 l 1,36,-1
 283 0 l 1,37,-1
 139 0 l 1,22,-1
EndSplineSet
EndChar

StartChar: Ograve
Encoding: 210 210 150
Width: 1126
GlyphClass: 2
Flags: W
LayerCount: 2
Fore
SplineSet
718 1363 m 1,0,-1
 298 1534 l 1,1,-1
 367 1668 l 1,2,-1
 758 1441 l 1,3,-1
 718 1363 l 1,0,-1
563 -20 m 128,-1,5
 334 -20 334 -20 204 157 c 128,-1,6
 74 334 74 334 74 643 c 128,-1,7
 74 952 74 952 204 1121 c 128,-1,8
 334 1290 334 1290 563 1290 c 128,-1,9
 792 1290 792 1290 922.5 1120.5 c 128,-1,10
 1053 951 1053 951 1053 642.5 c 128,-1,11
 1053 334 1053 334 922.5 157 c 128,-1,4
 792 -20 792 -20 563 -20 c 128,-1,5
563 99 m 128,-1,13
 725 99 725 99 815 240 c 128,-1,14
 905 381 905 381 905 634.5 c 128,-1,15
 905 888 905 888 814.5 1029 c 128,-1,16
 724 1170 724 1170 563 1170 c 128,-1,17
 402 1170 402 1170 311.5 1029 c 128,-1,18
 221 888 221 888 221 634.5 c 128,-1,19
 221 381 221 381 311 240 c 128,-1,12
 401 99 401 99 563 99 c 128,-1,13
EndSplineSet
EndChar

StartChar: Oacute
Encoding: 211 211 151
Width: 1126
GlyphClass: 2
Flags: W
LayerCount: 2
Fore
SplineSet
429 1363 m 1,0,-1
 389 1441 l 1,1,-1
 780 1668 l 1,2,-1
 849 1534 l 1,3,-1
 429 1363 l 1,0,-1
563 -20 m 128,-1,5
 334 -20 334 -20 204 157 c 128,-1,6
 74 334 74 334 74 643 c 128,-1,7
 74 952 74 952 204 1121 c 128,-1,8
 334 1290 334 1290 563 1290 c 128,-1,9
 792 1290 792 1290 922.5 1120.5 c 128,-1,10
 1053 951 1053 951 1053 642.5 c 128,-1,11
 1053 334 1053 334 922.5 157 c 128,-1,4
 792 -20 792 -20 563 -20 c 128,-1,5
563 99 m 128,-1,13
 725 99 725 99 815 240 c 128,-1,14
 905 381 905 381 905 634.5 c 128,-1,15
 905 888 905 888 814.5 1029 c 128,-1,16
 724 1170 724 1170 563 1170 c 128,-1,17
 402 1170 402 1170 311.5 1029 c 128,-1,18
 221 888 221 888 221 634.5 c 128,-1,19
 221 381 221 381 311 240 c 128,-1,12
 401 99 401 99 563 99 c 128,-1,13
EndSplineSet
EndChar

StartChar: Ocircumflex
Encoding: 212 212 152
Width: 1126
GlyphClass: 2
Flags: W
LayerCount: 2
Fore
SplineSet
341 1358 m 1,0,-1
 273 1435 l 1,1,-1
 504 1601 l 1,2,-1
 616 1601 l 1,3,-1
 853 1435 l 1,4,-1
 785 1358 l 1,5,-1
 559 1487 l 1,6,-1
 341 1358 l 1,0,-1
563 -20 m 128,-1,8
 334 -20 334 -20 204 157 c 128,-1,9
 74 334 74 334 74 643 c 128,-1,10
 74 952 74 952 204 1121 c 128,-1,11
 334 1290 334 1290 563 1290 c 128,-1,12
 792 1290 792 1290 922.5 1120.5 c 128,-1,13
 1053 951 1053 951 1053 642.5 c 128,-1,14
 1053 334 1053 334 922.5 157 c 128,-1,7
 792 -20 792 -20 563 -20 c 128,-1,8
563 99 m 128,-1,16
 725 99 725 99 815 240 c 128,-1,17
 905 381 905 381 905 634.5 c 128,-1,18
 905 888 905 888 814.5 1029 c 128,-1,19
 724 1170 724 1170 563 1170 c 128,-1,20
 402 1170 402 1170 311.5 1029 c 128,-1,21
 221 888 221 888 221 634.5 c 128,-1,22
 221 381 221 381 311 240 c 128,-1,15
 401 99 401 99 563 99 c 128,-1,16
EndSplineSet
EndChar

StartChar: Otilde
Encoding: 213 213 153
Width: 1126
GlyphClass: 2
Flags: W
LayerCount: 2
Fore
SplineSet
465 1611 m 0,0,1
 504 1611 504 1611 544.5 1591.5 c 128,-1,2
 585 1572 585 1572 614 1548 c 0,3,4
 690 1485 690 1485 740 1485 c 0,5,6
 770 1485 770 1485 792 1502.5 c 128,-1,7
 814 1520 814 1520 856 1575 c 1,8,-1
 925 1508 l 1,9,10
 866 1426 866 1426 822 1395.5 c 128,-1,11
 778 1365 778 1365 733 1365 c 128,-1,12
 688 1365 688 1365 647.5 1385.5 c 128,-1,13
 607 1406 607 1406 580 1430 c 0,14,15
 505 1495 505 1495 465 1495 c 128,-1,16
 425 1495 425 1495 392.5 1475 c 128,-1,17
 360 1455 360 1455 317 1393 c 1,18,-1
 231 1448 l 1,19,20
 286 1537 286 1537 342 1574 c 128,-1,21
 398 1611 398 1611 465 1611 c 0,0,1
563 -20 m 128,-1,23
 334 -20 334 -20 204 157 c 128,-1,24
 74 334 74 334 74 643 c 128,-1,25
 74 952 74 952 204 1121 c 128,-1,26
 334 1290 334 1290 563 1290 c 128,-1,27
 792 1290 792 1290 922.5 1120.5 c 128,-1,28
 1053 951 1053 951 1053 642.5 c 128,-1,29
 1053 334 1053 334 922.5 157 c 128,-1,22
 792 -20 792 -20 563 -20 c 128,-1,23
563 99 m 128,-1,31
 725 99 725 99 815 240 c 128,-1,32
 905 381 905 381 905 634.5 c 128,-1,33
 905 888 905 888 814.5 1029 c 128,-1,34
 724 1170 724 1170 563 1170 c 128,-1,35
 402 1170 402 1170 311.5 1029 c 128,-1,36
 221 888 221 888 221 634.5 c 128,-1,37
 221 381 221 381 311 240 c 128,-1,30
 401 99 401 99 563 99 c 128,-1,31
EndSplineSet
EndChar

StartChar: Odieresis
Encoding: 214 214 154
Width: 1126
GlyphClass: 2
Flags: W
LayerCount: 2
Fore
SplineSet
845.5 1432 m 128,-1,1
 814 1401 814 1401 767.5 1401 c 128,-1,2
 721 1401 721 1401 690.5 1431.5 c 128,-1,3
 660 1462 660 1462 660 1509.5 c 128,-1,4
 660 1557 660 1557 690.5 1588.5 c 128,-1,5
 721 1620 721 1620 767.5 1620 c 128,-1,6
 814 1620 814 1620 845.5 1588.5 c 128,-1,7
 877 1557 877 1557 877 1510 c 128,-1,0
 877 1463 877 1463 845.5 1432 c 128,-1,1
483.5 1432 m 128,-1,9
 452 1401 452 1401 405.5 1401 c 128,-1,10
 359 1401 359 1401 328.5 1431.5 c 128,-1,11
 298 1462 298 1462 298 1509.5 c 128,-1,12
 298 1557 298 1557 328.5 1588.5 c 128,-1,13
 359 1620 359 1620 405.5 1620 c 128,-1,14
 452 1620 452 1620 483.5 1588.5 c 128,-1,15
 515 1557 515 1557 515 1510 c 128,-1,8
 515 1463 515 1463 483.5 1432 c 128,-1,9
563 -20 m 128,-1,17
 334 -20 334 -20 204 157 c 128,-1,18
 74 334 74 334 74 643 c 128,-1,19
 74 952 74 952 204 1121 c 128,-1,20
 334 1290 334 1290 563 1290 c 128,-1,21
 792 1290 792 1290 922.5 1120.5 c 128,-1,22
 1053 951 1053 951 1053 642.5 c 128,-1,23
 1053 334 1053 334 922.5 157 c 128,-1,16
 792 -20 792 -20 563 -20 c 128,-1,17
563 99 m 128,-1,25
 725 99 725 99 815 240 c 128,-1,26
 905 381 905 381 905 634.5 c 128,-1,27
 905 888 905 888 814.5 1029 c 128,-1,28
 724 1170 724 1170 563 1170 c 128,-1,29
 402 1170 402 1170 311.5 1029 c 128,-1,30
 221 888 221 888 221 634.5 c 128,-1,31
 221 381 221 381 311 240 c 128,-1,24
 401 99 401 99 563 99 c 128,-1,25
EndSplineSet
EndChar

StartChar: multiply
Encoding: 215 215 155
Width: 1126
GlyphClass: 2
Flags: W
LayerCount: 2
Fore
SplineSet
315 305 m 1,0,-1
 225 395 l 1,1,-1
 483 664 l 1,2,-1
 225 936 l 1,3,-1
 321 1030 l 1,4,-1
 575 762 l 1,5,-1
 833 1030 l 1,6,-1
 932 940 l 1,7,-1
 665 666 l 1,8,-1
 925 391 l 1,9,-1
 831 297 l 1,10,-1
 571 569 l 1,11,-1
 315 305 l 1,0,-1
EndSplineSet
EndChar

StartChar: Oslash
Encoding: 216 216 156
Width: 1126
GlyphClass: 2
Flags: W
LayerCount: 2
Fore
SplineSet
74 650 m 0,0,1
 74 952 74 952 204 1121 c 128,-1,2
 334 1290 334 1290 563 1290 c 0,3,4
 694 1290 694 1290 796 1232 c 1,5,-1
 873 1384 l 1,6,-1
 976 1315 l 1,7,-1
 894 1155 l 1,8,9
 1053 985 1053 985 1053 659.5 c 128,-1,10
 1053 334 1053 334 922.5 157 c 128,-1,11
 792 -20 792 -20 563 -20 c 0,12,13
 425 -20 425 -20 322 45 c 1,14,-1
 236 -122 l 1,15,-1
 136 -57 l 1,16,-1
 229 125 l 1,17,18
 74 303 74 303 74 650 c 0,0,1
563 1170 m 0,19,20
 402 1170 402 1170 311.5 1029 c 128,-1,21
 221 888 221 888 221 644 c 128,-1,22
 221 400 221 400 299 261 c 1,23,-1
 736 1115 l 1,24,25
 661 1170 661 1170 563 1170 c 0,19,20
558 99 m 0,26,27
 723 99 723 99 814 238.5 c 128,-1,28
 905 378 905 378 905 627 c 128,-1,29
 905 876 905 876 822 1016 c 1,30,-1
 381 159 l 1,31,32
 456 99 456 99 558 99 c 0,26,27
EndSplineSet
EndChar

StartChar: Ugrave
Encoding: 217 217 157
Width: 1126
GlyphClass: 2
Flags: W
LayerCount: 2
Fore
SplineSet
757 1363 m 1,0,-1
 337 1534 l 1,1,-1
 406 1668 l 1,2,-1
 797 1441 l 1,3,-1
 757 1363 l 1,0,-1
127 442 m 2,4,-1
 127 1276 l 1,5,-1
 285 1276 l 1,6,7
 285 1266 285 1266 278 1247 c 128,-1,8
 271 1228 271 1228 271 1206 c 2,9,-1
 271 434 l 2,10,11
 271 276 271 276 345.5 194.5 c 128,-1,12
 420 113 420 113 559 113 c 128,-1,13
 698 113 698 113 778 198 c 128,-1,14
 858 283 858 283 858 440 c 2,15,-1
 858 1276 l 1,16,-1
 1001 1276 l 1,17,-1
 1001 449 l 2,18,19
 1001 231 1001 231 882.5 104 c 128,-1,20
 764 -23 764 -23 563 -23 c 128,-1,21
 362 -23 362 -23 244.5 96 c 128,-1,22
 127 215 127 215 127 442 c 2,4,-1
EndSplineSet
EndChar

StartChar: Uacute
Encoding: 218 218 158
Width: 1126
GlyphClass: 2
Flags: W
LayerCount: 2
Fore
SplineSet
468 1363 m 1,0,-1
 428 1441 l 1,1,-1
 819 1668 l 1,2,-1
 888 1534 l 1,3,-1
 468 1363 l 1,0,-1
127 442 m 2,4,-1
 127 1276 l 1,5,-1
 285 1276 l 1,6,7
 285 1266 285 1266 278 1247 c 128,-1,8
 271 1228 271 1228 271 1206 c 2,9,-1
 271 434 l 2,10,11
 271 276 271 276 345.5 194.5 c 128,-1,12
 420 113 420 113 559 113 c 128,-1,13
 698 113 698 113 778 198 c 128,-1,14
 858 283 858 283 858 440 c 2,15,-1
 858 1276 l 1,16,-1
 1001 1276 l 1,17,-1
 1001 449 l 2,18,19
 1001 231 1001 231 882.5 104 c 128,-1,20
 764 -23 764 -23 563 -23 c 128,-1,21
 362 -23 362 -23 244.5 96 c 128,-1,22
 127 215 127 215 127 442 c 2,4,-1
EndSplineSet
EndChar

StartChar: Ucircumflex
Encoding: 219 219 159
Width: 1126
GlyphClass: 2
Flags: W
LayerCount: 2
Fore
SplineSet
345 1358 m 1,0,-1
 277 1435 l 1,1,-1
 508 1601 l 1,2,-1
 620 1601 l 1,3,-1
 857 1435 l 1,4,-1
 789 1358 l 1,5,-1
 563 1487 l 1,6,-1
 345 1358 l 1,0,-1
127 442 m 2,7,-1
 127 1276 l 1,8,-1
 285 1276 l 1,9,10
 285 1266 285 1266 278 1247 c 128,-1,11
 271 1228 271 1228 271 1206 c 2,12,-1
 271 434 l 2,13,14
 271 276 271 276 345.5 194.5 c 128,-1,15
 420 113 420 113 559 113 c 128,-1,16
 698 113 698 113 778 198 c 128,-1,17
 858 283 858 283 858 440 c 2,18,-1
 858 1276 l 1,19,-1
 1001 1276 l 1,20,-1
 1001 449 l 2,21,22
 1001 231 1001 231 882.5 104 c 128,-1,23
 764 -23 764 -23 563 -23 c 128,-1,24
 362 -23 362 -23 244.5 96 c 128,-1,25
 127 215 127 215 127 442 c 2,7,-1
EndSplineSet
EndChar

StartChar: Udieresis
Encoding: 220 220 160
Width: 1126
GlyphClass: 2
Flags: W
LayerCount: 2
Fore
SplineSet
826.5 1432 m 128,-1,1
 795 1401 795 1401 748.5 1401 c 128,-1,2
 702 1401 702 1401 671.5 1431.5 c 128,-1,3
 641 1462 641 1462 641 1509.5 c 128,-1,4
 641 1557 641 1557 671.5 1588.5 c 128,-1,5
 702 1620 702 1620 748.5 1620 c 128,-1,6
 795 1620 795 1620 826.5 1588.5 c 128,-1,7
 858 1557 858 1557 858 1510 c 128,-1,0
 858 1463 858 1463 826.5 1432 c 128,-1,1
464.5 1432 m 128,-1,9
 433 1401 433 1401 386.5 1401 c 128,-1,10
 340 1401 340 1401 309.5 1431.5 c 128,-1,11
 279 1462 279 1462 279 1509.5 c 128,-1,12
 279 1557 279 1557 309.5 1588.5 c 128,-1,13
 340 1620 340 1620 386.5 1620 c 128,-1,14
 433 1620 433 1620 464.5 1588.5 c 128,-1,15
 496 1557 496 1557 496 1510 c 128,-1,8
 496 1463 496 1463 464.5 1432 c 128,-1,9
127 442 m 2,16,-1
 127 1276 l 1,17,-1
 285 1276 l 1,18,19
 285 1266 285 1266 278 1247 c 128,-1,20
 271 1228 271 1228 271 1206 c 2,21,-1
 271 434 l 2,22,23
 271 276 271 276 345.5 194.5 c 128,-1,24
 420 113 420 113 559 113 c 128,-1,25
 698 113 698 113 778 198 c 128,-1,26
 858 283 858 283 858 440 c 2,27,-1
 858 1276 l 1,28,-1
 1001 1276 l 1,29,-1
 1001 449 l 2,30,31
 1001 231 1001 231 882.5 104 c 128,-1,32
 764 -23 764 -23 563 -23 c 128,-1,33
 362 -23 362 -23 244.5 96 c 128,-1,34
 127 215 127 215 127 442 c 2,16,-1
EndSplineSet
EndChar

StartChar: Yacute
Encoding: 221 221 161
Width: 1126
GlyphClass: 2
Flags: W
LayerCount: 2
Fore
SplineSet
468 1363 m 1,0,-1
 428 1441 l 1,1,-1
 819 1668 l 1,2,-1
 888 1534 l 1,3,-1
 468 1363 l 1,0,-1
494 0 m 1,4,-1
 494 512 l 1,5,-1
 75 1276 l 1,6,-1
 233 1276 l 1,7,-1
 576 665 l 1,8,-1
 914 1276 l 1,9,-1
 1072 1276 l 1,10,-1
 638 511 l 1,11,-1
 638 0 l 1,12,-1
 494 0 l 1,4,-1
EndSplineSet
EndChar

StartChar: Thorn
Encoding: 222 222 162
Width: 1126
GlyphClass: 2
Flags: W
LayerCount: 2
Fore
SplineSet
172 0 m 1,0,-1
 172 1276 l 1,1,-1
 332 1276 l 1,2,3
 336 1272 336 1272 336 1269.5 c 128,-1,4
 336 1267 336 1267 327 1249.5 c 128,-1,5
 318 1232 318 1232 315 1219 c 1,6,-1
 315 1036 l 1,7,-1
 581 1036 l 2,8,9
 684 1036 684 1036 763 1008 c 128,-1,10
 842 980 842 980 890 930 c 0,11,12
 985 831 985 831 985 674.5 c 128,-1,13
 985 518 985 518 887.5 421 c 128,-1,14
 790 324 790 324 592 324 c 2,15,-1
 315 324 l 1,16,-1
 315 0 l 1,17,-1
 172 0 l 1,0,-1
315 449 m 1,18,-1
 592 449 l 2,19,20
 716 449 716 449 776.5 510 c 128,-1,21
 837 571 837 571 837 672 c 128,-1,22
 837 773 837 773 772 837 c 128,-1,23
 707 901 707 901 577 901 c 2,24,-1
 315 901 l 1,25,-1
 315 449 l 1,18,-1
EndSplineSet
EndChar

StartChar: germandbls
Encoding: 223 223 163
Width: 1126
GlyphClass: 2
Flags: W
LayerCount: 2
Fore
SplineSet
164 0 m 1,0,-1
 164 866 l 2,1,2
 164 1114 164 1114 270 1242 c 128,-1,3
 376 1370 376 1370 554 1370 c 128,-1,4
 732 1370 732 1370 821.5 1278.5 c 128,-1,5
 911 1187 911 1187 911 1026 c 0,6,7
 911 936 911 936 867 854.5 c 128,-1,8
 823 773 823 773 749 735 c 1,9,10
 865 699 865 699 933 599.5 c 128,-1,11
 1001 500 1001 500 1001 371 c 0,12,13
 1001 195 1001 195 894.5 87.5 c 128,-1,14
 788 -20 788 -20 626 -20 c 0,15,16
 508 -20 508 -20 413 43 c 1,17,-1
 485 158 l 1,18,19
 546 109 546 109 638.5 109 c 128,-1,20
 731 109 731 109 798.5 172 c 128,-1,21
 866 235 866 235 866 354 c 0,22,23
 866 500 866 500 788 581 c 128,-1,24
 710 662 710 662 551 662 c 2,25,-1
 489 662 l 1,26,-1
 489 778 l 1,27,-1
 563 778 l 2,28,29
 647 778 647 778 709.5 842 c 128,-1,30
 772 906 772 906 772 1026 c 0,31,32
 772 1075 772 1075 764 1111.5 c 128,-1,33
 756 1148 756 1148 734 1182 c 0,34,35
 688 1251 688 1251 557.5 1251 c 128,-1,36
 427 1251 427 1251 365 1149.5 c 128,-1,37
 303 1048 303 1048 303 870 c 2,38,-1
 303 0 l 1,39,-1
 164 0 l 1,0,-1
EndSplineSet
EndChar

StartChar: agrave
Encoding: 224 224 164
Width: 1126
GlyphClass: 2
Flags: W
LayerCount: 2
Fore
SplineSet
598 1038 m 1,0,-1
 381 1346 l 1,1,-1
 511 1424 l 1,2,-1
 681 1079 l 1,3,-1
 598 1038 l 1,0,-1
168 238 m 0,4,5
 168 551 168 551 641 551 c 2,6,-1
 817 551 l 1,7,8
 817 712 817 712 761.5 773 c 128,-1,9
 706 834 706 834 578 834 c 0,10,11
 493 834 493 834 427.5 812 c 128,-1,12
 362 790 362 790 328 756 c 0,13,14
 319 747 319 747 306.5 721.5 c 128,-1,15
 294 696 294 696 281 692 c 1,16,-1
 199 827 l 1,17,18
 337 956 337 956 588 956 c 0,19,20
 958 956 958 956 958 580 c 2,21,-1
 958 0 l 1,22,-1
 815 0 l 1,23,-1
 815 143 l 1,24,25
 737 -23 737 -23 483 -23 c 0,26,27
 338 -23 338 -23 253 45.5 c 128,-1,28
 168 114 168 114 168 238 c 0,4,5
315 250 m 0,29,30
 315 90 315 90 514 90 c 0,31,32
 642 90 642 90 728.5 176 c 128,-1,33
 815 262 815 262 815 377 c 2,34,-1
 815 438 l 1,35,-1
 684 440 l 1,36,37
 491 440 491 440 403 395.5 c 128,-1,38
 315 351 315 351 315 250 c 0,29,30
EndSplineSet
EndChar

StartChar: aacute
Encoding: 225 225 165
Width: 1126
GlyphClass: 2
Flags: W
LayerCount: 2
Fore
SplineSet
534 1038 m 1,0,-1
 451 1079 l 1,1,-1
 621 1424 l 1,2,-1
 751 1346 l 1,3,-1
 534 1038 l 1,0,-1
168 238 m 0,4,5
 168 551 168 551 641 551 c 2,6,-1
 817 551 l 1,7,8
 817 712 817 712 761.5 773 c 128,-1,9
 706 834 706 834 578 834 c 0,10,11
 493 834 493 834 427.5 812 c 128,-1,12
 362 790 362 790 328 756 c 0,13,14
 319 747 319 747 306.5 721.5 c 128,-1,15
 294 696 294 696 281 692 c 1,16,-1
 199 827 l 1,17,18
 337 956 337 956 588 956 c 0,19,20
 958 956 958 956 958 580 c 2,21,-1
 958 0 l 1,22,-1
 815 0 l 1,23,-1
 815 143 l 1,24,25
 737 -23 737 -23 483 -23 c 0,26,27
 338 -23 338 -23 253 45.5 c 128,-1,28
 168 114 168 114 168 238 c 0,4,5
315 250 m 0,29,30
 315 90 315 90 514 90 c 0,31,32
 642 90 642 90 728.5 176 c 128,-1,33
 815 262 815 262 815 377 c 2,34,-1
 815 438 l 1,35,-1
 684 440 l 1,36,37
 491 440 491 440 403 395.5 c 128,-1,38
 315 351 315 351 315 250 c 0,29,30
EndSplineSet
EndChar

StartChar: acircumflex
Encoding: 226 226 166
Width: 1126
GlyphClass: 2
Flags: W
LayerCount: 2
Fore
SplineSet
402 1061 m 1,0,-1
 310 1132 l 1,1,-1
 560 1451 l 1,2,-1
 605 1451 l 1,3,-1
 844 1135 l 1,4,-1
 750 1063 l 1,5,-1
 582 1282 l 1,6,-1
 402 1061 l 1,0,-1
168 238 m 0,7,8
 168 551 168 551 641 551 c 2,9,-1
 817 551 l 1,10,11
 817 712 817 712 761.5 773 c 128,-1,12
 706 834 706 834 578 834 c 0,13,14
 493 834 493 834 427.5 812 c 128,-1,15
 362 790 362 790 328 756 c 0,16,17
 319 747 319 747 306.5 721.5 c 128,-1,18
 294 696 294 696 281 692 c 1,19,-1
 199 827 l 1,20,21
 337 956 337 956 588 956 c 0,22,23
 958 956 958 956 958 580 c 2,24,-1
 958 0 l 1,25,-1
 815 0 l 1,26,-1
 815 143 l 1,27,28
 737 -23 737 -23 483 -23 c 0,29,30
 338 -23 338 -23 253 45.5 c 128,-1,31
 168 114 168 114 168 238 c 0,7,8
315 250 m 0,32,33
 315 90 315 90 514 90 c 0,34,35
 642 90 642 90 728.5 176 c 128,-1,36
 815 262 815 262 815 377 c 2,37,-1
 815 438 l 1,38,-1
 684 440 l 1,39,40
 491 440 491 440 403 395.5 c 128,-1,41
 315 351 315 351 315 250 c 0,32,33
EndSplineSet
EndChar

StartChar: atilde
Encoding: 227 227 167
Width: 1126
GlyphClass: 2
Flags: W
LayerCount: 2
Fore
SplineSet
486 1374 m 0,0,1
 521 1374 521 1374 559 1354 c 128,-1,2
 597 1334 597 1334 624 1310 c 0,3,4
 697 1245 697 1245 747 1245 c 0,5,6
 777 1245 777 1245 799 1262.5 c 128,-1,7
 821 1280 821 1280 863 1335 c 1,8,-1
 940 1246 l 1,9,10
 883 1168 883 1168 836 1140 c 128,-1,11
 789 1112 789 1112 745.5 1112 c 128,-1,12
 702 1112 702 1112 663 1133.5 c 128,-1,13
 624 1155 624 1155 594 1182 c 0,14,15
 517 1251 517 1251 471 1251 c 0,16,17
 399 1251 399 1251 324 1150 c 1,18,-1
 248 1218 l 1,19,20
 296 1294 296 1294 358.5 1334 c 128,-1,21
 421 1374 421 1374 486 1374 c 0,0,1
168 238 m 0,22,23
 168 551 168 551 641 551 c 2,24,-1
 817 551 l 1,25,26
 817 712 817 712 761.5 773 c 128,-1,27
 706 834 706 834 578 834 c 0,28,29
 493 834 493 834 427.5 812 c 128,-1,30
 362 790 362 790 328 756 c 0,31,32
 319 747 319 747 306.5 721.5 c 128,-1,33
 294 696 294 696 281 692 c 1,34,-1
 199 827 l 1,35,36
 337 956 337 956 588 956 c 0,37,38
 958 956 958 956 958 580 c 2,39,-1
 958 0 l 1,40,-1
 815 0 l 1,41,-1
 815 143 l 1,42,43
 737 -23 737 -23 483 -23 c 0,44,45
 338 -23 338 -23 253 45.5 c 128,-1,46
 168 114 168 114 168 238 c 0,22,23
315 250 m 0,47,48
 315 90 315 90 514 90 c 0,49,50
 642 90 642 90 728.5 176 c 128,-1,51
 815 262 815 262 815 377 c 2,52,-1
 815 438 l 1,53,-1
 684 440 l 1,54,55
 491 440 491 440 403 395.5 c 128,-1,56
 315 351 315 351 315 250 c 0,47,48
EndSplineSet
EndChar

StartChar: adieresis
Encoding: 228 228 168
Width: 1126
GlyphClass: 2
Flags: W
LayerCount: 2
Fore
SplineSet
479 1174.5 m 128,-1,1
 446 1141 446 1141 395.5 1141 c 128,-1,2
 345 1141 345 1141 311 1174 c 128,-1,3
 277 1207 277 1207 277 1257.5 c 128,-1,4
 277 1308 277 1308 311 1342 c 128,-1,5
 345 1376 345 1376 395.5 1376 c 128,-1,6
 446 1376 446 1376 479 1342.5 c 128,-1,7
 512 1309 512 1309 512 1258.5 c 128,-1,0
 512 1208 512 1208 479 1174.5 c 128,-1,1
842 1176 m 128,-1,9
 809 1143 809 1143 759.5 1143 c 128,-1,10
 710 1143 710 1143 678 1175.5 c 128,-1,11
 646 1208 646 1208 646 1257.5 c 128,-1,12
 646 1307 646 1307 678 1340.5 c 128,-1,13
 710 1374 710 1374 759 1374 c 128,-1,14
 808 1374 808 1374 841.5 1341 c 128,-1,15
 875 1308 875 1308 875 1258.5 c 128,-1,8
 875 1209 875 1209 842 1176 c 128,-1,9
168 238 m 0,16,17
 168 551 168 551 641 551 c 2,18,-1
 817 551 l 1,19,20
 817 712 817 712 761.5 773 c 128,-1,21
 706 834 706 834 578 834 c 0,22,23
 493 834 493 834 427.5 812 c 128,-1,24
 362 790 362 790 328 756 c 0,25,26
 319 747 319 747 306.5 721.5 c 128,-1,27
 294 696 294 696 281 692 c 1,28,-1
 199 827 l 1,29,30
 337 956 337 956 588 956 c 0,31,32
 958 956 958 956 958 580 c 2,33,-1
 958 0 l 1,34,-1
 815 0 l 1,35,-1
 815 143 l 1,36,37
 737 -23 737 -23 483 -23 c 0,38,39
 338 -23 338 -23 253 45.5 c 128,-1,40
 168 114 168 114 168 238 c 0,16,17
315 250 m 0,41,42
 315 90 315 90 514 90 c 0,43,44
 642 90 642 90 728.5 176 c 128,-1,45
 815 262 815 262 815 377 c 2,46,-1
 815 438 l 1,47,-1
 684 440 l 1,48,49
 491 440 491 440 403 395.5 c 128,-1,50
 315 351 315 351 315 250 c 0,41,42
EndSplineSet
EndChar

StartChar: aring
Encoding: 229 229 169
Width: 1126
GlyphClass: 2
Flags: W
LayerCount: 2
Fore
SplineSet
710.5 1112.5 m 128,-1,1
 654 1059 654 1059 579 1059 c 128,-1,2
 504 1059 504 1059 448 1112.5 c 128,-1,3
 392 1166 392 1166 392 1239 c 128,-1,4
 392 1312 392 1312 448 1365.5 c 128,-1,5
 504 1419 504 1419 579.5 1419 c 128,-1,6
 655 1419 655 1419 711 1366.5 c 128,-1,7
 767 1314 767 1314 767 1240 c 128,-1,0
 767 1166 767 1166 710.5 1112.5 c 128,-1,1
521 1174.5 m 128,-1,9
 546 1147 546 1147 580.5 1147 c 128,-1,10
 615 1147 615 1147 640.5 1174.5 c 128,-1,11
 666 1202 666 1202 666 1241 c 128,-1,12
 666 1280 666 1280 640.5 1307.5 c 128,-1,13
 615 1335 615 1335 580.5 1335 c 128,-1,14
 546 1335 546 1335 521 1307.5 c 128,-1,15
 496 1280 496 1280 496 1241 c 128,-1,8
 496 1202 496 1202 521 1174.5 c 128,-1,9
168 238 m 0,16,17
 168 551 168 551 641 551 c 2,18,-1
 817 551 l 1,19,20
 817 712 817 712 761.5 773 c 128,-1,21
 706 834 706 834 578 834 c 0,22,23
 493 834 493 834 427.5 812 c 128,-1,24
 362 790 362 790 328 756 c 0,25,26
 319 747 319 747 306.5 721.5 c 128,-1,27
 294 696 294 696 281 692 c 1,28,-1
 199 827 l 1,29,30
 337 956 337 956 588 956 c 0,31,32
 958 956 958 956 958 580 c 2,33,-1
 958 0 l 1,34,-1
 815 0 l 1,35,-1
 815 143 l 1,36,37
 737 -23 737 -23 483 -23 c 0,38,39
 338 -23 338 -23 253 45.5 c 128,-1,40
 168 114 168 114 168 238 c 0,16,17
315 250 m 0,41,42
 315 90 315 90 514 90 c 0,43,44
 642 90 642 90 728.5 176 c 128,-1,45
 815 262 815 262 815 377 c 2,46,-1
 815 438 l 1,47,-1
 684 440 l 1,48,49
 491 440 491 440 403 395.5 c 128,-1,50
 315 351 315 351 315 250 c 0,41,42
EndSplineSet
EndChar

StartChar: ae
Encoding: 230 230 170
Width: 1126
GlyphClass: 2
Flags: W
LayerCount: 2
Fore
SplineSet
71 261 m 0,0,1
 71 390 71 390 174.5 476 c 128,-1,2
 278 562 278 562 457 569 c 2,3,-1
 504 571 l 1,4,-1
 504 625 l 2,5,6
 504 720 504 720 459.5 781 c 128,-1,7
 415 842 415 842 341 842 c 0,8,9
 250 842 250 842 186 754 c 1,10,-1
 114 844 l 1,11,12
 201 956 201 956 355 956 c 128,-1,13
 509 956 509 956 579 829 c 1,14,15
 656 956 656 956 800 956 c 0,16,17
 926 956 926 956 990.5 850 c 128,-1,18
 1055 744 1055 744 1055 549 c 2,19,-1
 1055 471 l 1,20,-1
 629 457 l 1,21,-1
 629 358 l 2,22,23
 629 240 629 240 686.5 168 c 128,-1,24
 744 96 744 96 840 96 c 128,-1,25
 936 96 936 96 991 172 c 1,26,-1
 1063 86 l 1,27,28
 973 -23 973 -23 833 -23 c 0,29,30
 750 -23 750 -23 682.5 15 c 128,-1,31
 615 53 615 53 573 119 c 1,32,33
 537 53 537 53 476.5 15 c 128,-1,34
 416 -23 416 -23 342 -23 c 0,35,36
 225 -23 225 -23 148 63 c 128,-1,37
 71 149 71 149 71 261 c 0,0,1
936 625 m 2,38,39
 936 726 936 726 898 784 c 128,-1,40
 860 842 860 842 790 842 c 128,-1,41
 720 842 720 842 674.5 774 c 128,-1,42
 629 706 629 706 629 606 c 2,43,-1
 629 571 l 1,44,-1
 936 582 l 1,45,-1
 936 625 l 2,38,39
269 391.5 m 128,-1,47
 203 342 203 342 203 267 c 128,-1,48
 203 192 203 192 246.5 147 c 128,-1,49
 290 102 290 102 359 102 c 0,50,51
 506 102 506 102 506 318 c 1,52,-1
 504 449 l 1,53,46
 335 441 335 441 269 391.5 c 128,-1,47
EndSplineSet
EndChar

StartChar: ccedilla
Encoding: 231 231 171
Width: 1126
GlyphClass: 2
Flags: W
LayerCount: 2
Fore
SplineSet
576 -283 m 0,0,1
 636 -283 636 -283 657.5 -268 c 128,-1,2
 679 -253 679 -253 679 -229.5 c 128,-1,3
 679 -206 679 -206 669 -196 c 0,4,5
 647 -175 647 -175 521 -170 c 1,6,-1
 541 -22 l 1,7,8
 353 -5 353 -5 245 123.5 c 128,-1,9
 137 252 137 252 137 473.5 c 128,-1,10
 137 695 137 695 261 826.5 c 128,-1,11
 385 958 385 958 596 958 c 0,12,13
 713 958 713 958 789.5 914 c 128,-1,14
 866 870 866 870 933 775 c 1,15,-1
 829 654 l 1,16,17
 817 665 817 665 815 683 c 0,18,19
 809 731 809 731 744.5 782 c 128,-1,20
 680 833 680 833 578 833 c 0,21,22
 444 833 444 833 364.5 737 c 128,-1,23
 285 641 285 641 285 470.5 c 128,-1,24
 285 300 285 300 369 198 c 128,-1,25
 453 96 453 96 597 96 c 0,26,27
 757 96 757 96 879 233 c 1,28,-1
 965 133 l 1,29,30
 831 -10 831 -10 631 -23 c 1,31,-1
 621 -96 l 1,32,33
 712 -103 712 -103 755 -130.5 c 128,-1,34
 798 -158 798 -158 798 -215 c 0,35,36
 798 -289 798 -289 733 -335 c 128,-1,37
 668 -381 668 -381 564 -381 c 128,-1,38
 460 -381 460 -381 383 -316 c 1,39,-1
 415 -230 l 1,40,41
 487 -283 487 -283 576 -283 c 0,0,1
EndSplineSet
EndChar

StartChar: egrave
Encoding: 232 232 172
Width: 1126
GlyphClass: 2
Flags: W
LayerCount: 2
Fore
SplineSet
631 1038 m 1,0,-1
 414 1346 l 1,1,-1
 544 1424 l 1,2,-1
 714 1079 l 1,3,-1
 631 1038 l 1,0,-1
271 98 m 128,-1,5
 150 221 150 221 150 458.5 c 128,-1,6
 150 696 150 696 272 826 c 128,-1,7
 394 956 394 956 606 956 c 0,8,9
 785 956 785 956 886 842 c 128,-1,10
 987 728 987 728 987 514 c 0,11,12
 987 504 987 504 983 446 c 1,13,-1
 297 446 l 1,14,15
 312 94 312 94 635 94 c 0,16,17
 703 94 703 94 768 123.5 c 128,-1,18
 833 153 833 153 879 203 c 1,19,-1
 961 123 l 1,20,21
 902 54 902 54 813 14.5 c 128,-1,22
 724 -25 724 -25 623 -25 c 0,23,4
 392 -25 392 -25 271 98 c 128,-1,5
838 561 m 1,24,25
 838 688 838 688 774.5 761 c 128,-1,26
 711 834 711 834 596 834 c 128,-1,27
 481 834 481 834 402 760.5 c 128,-1,28
 323 687 323 687 303 561 c 1,29,-1
 838 561 l 1,24,25
EndSplineSet
EndChar

StartChar: eacute
Encoding: 233 233 173
Width: 1126
GlyphClass: 2
Flags: W
LayerCount: 2
Fore
SplineSet
484 1079 m 1,0,-1
 654 1424 l 1,1,-1
 784 1346 l 1,2,-1
 567 1038 l 1,3,-1
 484 1079 l 1,0,-1
271 98 m 128,-1,5
 150 221 150 221 150 458.5 c 128,-1,6
 150 696 150 696 272 826 c 128,-1,7
 394 956 394 956 606 956 c 0,8,9
 785 956 785 956 886 842 c 128,-1,10
 987 728 987 728 987 514 c 0,11,12
 987 504 987 504 983 446 c 1,13,-1
 297 446 l 1,14,15
 312 94 312 94 635 94 c 0,16,17
 703 94 703 94 768 123.5 c 128,-1,18
 833 153 833 153 879 203 c 1,19,-1
 961 123 l 1,20,21
 902 54 902 54 813 14.5 c 128,-1,22
 724 -25 724 -25 623 -25 c 0,23,4
 392 -25 392 -25 271 98 c 128,-1,5
838 561 m 1,24,25
 838 688 838 688 774.5 761 c 128,-1,26
 711 834 711 834 596 834 c 128,-1,27
 481 834 481 834 402 760.5 c 128,-1,28
 323 687 323 687 303 561 c 1,29,-1
 838 561 l 1,24,25
EndSplineSet
EndChar

StartChar: ecircumflex
Encoding: 234 234 174
Width: 1126
GlyphClass: 2
Flags: W
LayerCount: 2
Fore
SplineSet
435 1061 m 1,0,-1
 343 1132 l 1,1,-1
 593 1451 l 1,2,-1
 638 1451 l 1,3,-1
 877 1135 l 1,4,-1
 783 1063 l 1,5,-1
 615 1282 l 1,6,-1
 435 1061 l 1,0,-1
271 98 m 128,-1,8
 150 221 150 221 150 458.5 c 128,-1,9
 150 696 150 696 272 826 c 128,-1,10
 394 956 394 956 606 956 c 0,11,12
 785 956 785 956 886 842 c 128,-1,13
 987 728 987 728 987 514 c 0,14,15
 987 504 987 504 983 446 c 1,16,-1
 297 446 l 1,17,18
 312 94 312 94 635 94 c 0,19,20
 703 94 703 94 768 123.5 c 128,-1,21
 833 153 833 153 879 203 c 1,22,-1
 961 123 l 1,23,24
 902 54 902 54 813 14.5 c 128,-1,25
 724 -25 724 -25 623 -25 c 0,26,7
 392 -25 392 -25 271 98 c 128,-1,8
838 561 m 1,27,28
 838 688 838 688 774.5 761 c 128,-1,29
 711 834 711 834 596 834 c 128,-1,30
 481 834 481 834 402 760.5 c 128,-1,31
 323 687 323 687 303 561 c 1,32,-1
 838 561 l 1,27,28
EndSplineSet
EndChar

StartChar: edieresis
Encoding: 235 235 175
Width: 1126
GlyphClass: 2
Flags: W
LayerCount: 2
Fore
SplineSet
512 1174.5 m 128,-1,1
 479 1141 479 1141 428.5 1141 c 128,-1,2
 378 1141 378 1141 344 1174 c 128,-1,3
 310 1207 310 1207 310 1257.5 c 128,-1,4
 310 1308 310 1308 344 1342 c 128,-1,5
 378 1376 378 1376 428.5 1376 c 128,-1,6
 479 1376 479 1376 512 1342.5 c 128,-1,7
 545 1309 545 1309 545 1258.5 c 128,-1,0
 545 1208 545 1208 512 1174.5 c 128,-1,1
875 1176 m 128,-1,9
 842 1143 842 1143 792.5 1143 c 128,-1,10
 743 1143 743 1143 711 1175.5 c 128,-1,11
 679 1208 679 1208 679 1257.5 c 128,-1,12
 679 1307 679 1307 711 1340.5 c 128,-1,13
 743 1374 743 1374 792.5 1374 c 128,-1,14
 842 1374 842 1374 875 1341 c 128,-1,15
 908 1308 908 1308 908 1258.5 c 128,-1,8
 908 1209 908 1209 875 1176 c 128,-1,9
271 98 m 128,-1,17
 150 221 150 221 150 458.5 c 128,-1,18
 150 696 150 696 272 826 c 128,-1,19
 394 956 394 956 606 956 c 0,20,21
 785 956 785 956 886 842 c 128,-1,22
 987 728 987 728 987 514 c 0,23,24
 987 504 987 504 983 446 c 1,25,-1
 297 446 l 1,26,27
 312 94 312 94 635 94 c 0,28,29
 703 94 703 94 768 123.5 c 128,-1,30
 833 153 833 153 879 203 c 1,31,-1
 961 123 l 1,32,33
 902 54 902 54 813 14.5 c 128,-1,34
 724 -25 724 -25 623 -25 c 0,35,16
 392 -25 392 -25 271 98 c 128,-1,17
838 561 m 1,36,37
 838 688 838 688 774.5 761 c 128,-1,38
 711 834 711 834 596 834 c 128,-1,39
 481 834 481 834 402 760.5 c 128,-1,40
 323 687 323 687 303 561 c 1,41,-1
 838 561 l 1,36,37
EndSplineSet
EndChar

StartChar: igrave
Encoding: 236 236 176
Width: 1126
GlyphClass: 2
Flags: W
LayerCount: 2
Fore
SplineSet
529 1038 m 1,0,-1
 312 1346 l 1,1,-1
 442 1424 l 1,2,-1
 612 1079 l 1,3,-1
 529 1038 l 1,0,-1
174 0 m 1,4,-1
 174 120 l 1,5,-1
 492 120 l 1,6,-1
 492 816 l 1,7,-1
 178 816 l 1,8,-1
 178 936 l 1,9,-1
 635 936 l 1,10,-1
 635 120 l 1,11,-1
 954 120 l 1,12,-1
 954 0 l 1,13,-1
 174 0 l 1,4,-1
EndSplineSet
EndChar

StartChar: iacute
Encoding: 237 237 177
Width: 1126
GlyphClass: 2
Flags: W
LayerCount: 2
Fore
SplineSet
497 1038 m 1,0,-1
 414 1079 l 1,1,-1
 584 1424 l 1,2,-1
 714 1346 l 1,3,-1
 497 1038 l 1,0,-1
174 0 m 1,4,-1
 174 120 l 1,5,-1
 492 120 l 1,6,-1
 492 816 l 1,7,-1
 178 816 l 1,8,-1
 178 936 l 1,9,-1
 635 936 l 1,10,-1
 635 120 l 1,11,-1
 954 120 l 1,12,-1
 954 0 l 1,13,-1
 174 0 l 1,4,-1
EndSplineSet
EndChar

StartChar: icircumflex
Encoding: 238 238 178
Width: 1126
GlyphClass: 2
Flags: W
LayerCount: 2
Fore
SplineSet
365 1061 m 1,0,-1
 273 1132 l 1,1,-1
 523 1451 l 1,2,-1
 568 1451 l 1,3,-1
 807 1135 l 1,4,-1
 713 1063 l 1,5,-1
 545 1282 l 1,6,-1
 365 1061 l 1,0,-1
174 0 m 1,7,-1
 174 120 l 1,8,-1
 492 120 l 1,9,-1
 492 816 l 1,10,-1
 178 816 l 1,11,-1
 178 936 l 1,12,-1
 635 936 l 1,13,-1
 635 120 l 1,14,-1
 954 120 l 1,15,-1
 954 0 l 1,16,-1
 174 0 l 1,7,-1
EndSplineSet
EndChar

StartChar: idieresis
Encoding: 239 239 179
Width: 1126
GlyphClass: 2
Flags: W
LayerCount: 2
Fore
SplineSet
442 1174.5 m 128,-1,1
 409 1141 409 1141 358.5 1141 c 128,-1,2
 308 1141 308 1141 274 1174 c 128,-1,3
 240 1207 240 1207 240 1257.5 c 128,-1,4
 240 1308 240 1308 274 1342 c 128,-1,5
 308 1376 308 1376 358.5 1376 c 128,-1,6
 409 1376 409 1376 442 1342.5 c 128,-1,7
 475 1309 475 1309 475 1258.5 c 128,-1,0
 475 1208 475 1208 442 1174.5 c 128,-1,1
805 1176 m 128,-1,9
 772 1143 772 1143 722.5 1143 c 128,-1,10
 673 1143 673 1143 641 1175.5 c 128,-1,11
 609 1208 609 1208 609 1257.5 c 128,-1,12
 609 1307 609 1307 641 1340.5 c 128,-1,13
 673 1374 673 1374 722.5 1374 c 128,-1,14
 772 1374 772 1374 805 1341 c 128,-1,15
 838 1308 838 1308 838 1258.5 c 128,-1,8
 838 1209 838 1209 805 1176 c 128,-1,9
174 0 m 1,16,-1
 174 120 l 1,17,-1
 492 120 l 1,18,-1
 492 816 l 1,19,-1
 178 816 l 1,20,-1
 178 936 l 1,21,-1
 635 936 l 1,22,-1
 635 120 l 1,23,-1
 954 120 l 1,24,-1
 954 0 l 1,25,-1
 174 0 l 1,16,-1
EndSplineSet
EndChar

StartChar: eth
Encoding: 240 240 180
Width: 1126
GlyphClass: 2
Flags: W
LayerCount: 2
Fore
SplineSet
269.5 109.5 m 128,-1,1
 149 244 149 244 149 463 c 128,-1,2
 149 682 149 682 258.5 819 c 128,-1,3
 368 956 368 956 550 956 c 0,4,5
 708 956 708 956 807 850 c 1,6,7
 738 1013 738 1013 631 1130 c 1,8,-1
 368 1057 l 1,9,-1
 332 1155 l 1,10,-1
 545 1212 l 1,11,12
 450 1292 450 1292 336 1343 c 1,13,-1
 502 1376 l 1,14,15
 602 1321 602 1321 679 1249 c 1,16,-1
 901 1309 l 1,17,-1
 936 1219 l 1,18,-1
 759 1166 l 1,19,20
 870 1036 870 1036 931.5 868 c 128,-1,21
 993 700 993 700 993 503 c 0,22,23
 993 251 993 251 889.5 113 c 128,-1,24
 786 -25 786 -25 588 -25 c 128,-1,0
 390 -25 390 -25 269.5 109.5 c 128,-1,1
291 470 m 128,-1,26
 291 297 291 297 368.5 199.5 c 128,-1,27
 446 102 446 102 571.5 102 c 128,-1,28
 697 102 697 102 770.5 194.5 c 128,-1,29
 844 287 844 287 844 467.5 c 128,-1,30
 844 648 844 648 763 740.5 c 128,-1,31
 682 833 682 833 564 833 c 128,-1,32
 446 833 446 833 368.5 738 c 128,-1,25
 291 643 291 643 291 470 c 128,-1,26
EndSplineSet
EndChar

StartChar: ntilde
Encoding: 241 241 181
Width: 1126
GlyphClass: 2
Flags: W
LayerCount: 2
Fore
SplineSet
534 1374 m 0,0,1
 569 1374 569 1374 607 1354 c 128,-1,2
 645 1334 645 1334 672 1310 c 0,3,4
 745 1245 745 1245 795 1245 c 0,5,6
 825 1245 825 1245 847 1262.5 c 128,-1,7
 869 1280 869 1280 911 1335 c 1,8,-1
 988 1246 l 1,9,10
 931 1168 931 1168 884 1140 c 128,-1,11
 837 1112 837 1112 793.5 1112 c 128,-1,12
 750 1112 750 1112 711 1133.5 c 128,-1,13
 672 1155 672 1155 642 1182 c 0,14,15
 565 1251 565 1251 519 1251 c 0,16,17
 447 1251 447 1251 372 1150 c 1,18,-1
 296 1218 l 1,19,20
 344 1294 344 1294 406.5 1334 c 128,-1,21
 469 1374 469 1374 534 1374 c 0,0,1
192 0 m 1,22,-1
 192 936 l 1,23,-1
 332 936 l 1,24,-1
 332 770 l 1,25,26
 393 852 393 852 496.5 905 c 128,-1,27
 600 958 600 958 705 958 c 0,28,29
 961 958 961 958 961 629 c 2,30,-1
 961 0 l 1,31,-1
 821 0 l 1,32,-1
 821 563 l 2,33,34
 821 712 821 712 786.5 768.5 c 128,-1,35
 752 825 752 825 676 825 c 0,36,37
 621 825 621 825 560.5 802 c 128,-1,38
 500 779 500 779 449 739.5 c 128,-1,39
 398 700 398 700 365 641.5 c 128,-1,40
 332 583 332 583 332 518 c 2,41,-1
 332 0 l 1,42,-1
 192 0 l 1,22,-1
EndSplineSet
EndChar

StartChar: ograve
Encoding: 242 242 182
Width: 1126
GlyphClass: 2
Flags: W
LayerCount: 2
Fore
SplineSet
545 1038 m 1,0,-1
 328 1346 l 1,1,-1
 458 1424 l 1,2,-1
 628 1079 l 1,3,-1
 545 1038 l 1,0,-1
248.5 106.5 m 128,-1,5
 130 238 130 238 130 466 c 128,-1,6
 130 694 130 694 248.5 825 c 128,-1,7
 367 956 367 956 563.5 956 c 128,-1,8
 760 956 760 956 881 825 c 128,-1,9
 1002 694 1002 694 1002 466.5 c 128,-1,10
 1002 239 1002 239 881 107 c 128,-1,11
 760 -25 760 -25 563.5 -25 c 128,-1,4
 367 -25 367 -25 248.5 106.5 c 128,-1,5
348.5 738 m 128,-1,13
 274 640 274 640 274 464.5 c 128,-1,14
 274 289 274 289 348.5 192 c 128,-1,15
 423 95 423 95 563.5 95 c 128,-1,16
 704 95 704 95 781 192 c 128,-1,17
 858 289 858 289 858 464 c 128,-1,18
 858 639 858 639 781 737.5 c 128,-1,19
 704 836 704 836 563.5 836 c 128,-1,12
 423 836 423 836 348.5 738 c 128,-1,13
EndSplineSet
EndChar

StartChar: oacute
Encoding: 243 243 183
Width: 1126
GlyphClass: 2
Flags: W
LayerCount: 2
Fore
SplineSet
513 1038 m 1,0,-1
 430 1079 l 1,1,-1
 600 1424 l 1,2,-1
 730 1346 l 1,3,-1
 513 1038 l 1,0,-1
248.5 106.5 m 128,-1,5
 130 238 130 238 130 466 c 128,-1,6
 130 694 130 694 248.5 825 c 128,-1,7
 367 956 367 956 563.5 956 c 128,-1,8
 760 956 760 956 881 825 c 128,-1,9
 1002 694 1002 694 1002 466.5 c 128,-1,10
 1002 239 1002 239 881 107 c 128,-1,11
 760 -25 760 -25 563.5 -25 c 128,-1,4
 367 -25 367 -25 248.5 106.5 c 128,-1,5
348.5 738 m 128,-1,13
 274 640 274 640 274 464.5 c 128,-1,14
 274 289 274 289 348.5 192 c 128,-1,15
 423 95 423 95 563.5 95 c 128,-1,16
 704 95 704 95 781 192 c 128,-1,17
 858 289 858 289 858 464 c 128,-1,18
 858 639 858 639 781 737.5 c 128,-1,19
 704 836 704 836 563.5 836 c 128,-1,12
 423 836 423 836 348.5 738 c 128,-1,13
EndSplineSet
EndChar

StartChar: ocircumflex
Encoding: 244 244 184
Width: 1126
GlyphClass: 2
Flags: W
LayerCount: 2
Fore
SplineSet
381 1061 m 1,0,-1
 289 1132 l 1,1,-1
 539 1451 l 1,2,-1
 584 1451 l 1,3,-1
 823 1135 l 1,4,-1
 729 1063 l 1,5,-1
 561 1282 l 1,6,-1
 381 1061 l 1,0,-1
248.5 106.5 m 128,-1,8
 130 238 130 238 130 466 c 128,-1,9
 130 694 130 694 248.5 825 c 128,-1,10
 367 956 367 956 563.5 956 c 128,-1,11
 760 956 760 956 881 825 c 128,-1,12
 1002 694 1002 694 1002 466.5 c 128,-1,13
 1002 239 1002 239 881 107 c 128,-1,14
 760 -25 760 -25 563.5 -25 c 128,-1,7
 367 -25 367 -25 248.5 106.5 c 128,-1,8
348.5 738 m 128,-1,16
 274 640 274 640 274 464.5 c 128,-1,17
 274 289 274 289 348.5 192 c 128,-1,18
 423 95 423 95 563.5 95 c 128,-1,19
 704 95 704 95 781 192 c 128,-1,20
 858 289 858 289 858 464 c 128,-1,21
 858 639 858 639 781 737.5 c 128,-1,22
 704 836 704 836 563.5 836 c 128,-1,15
 423 836 423 836 348.5 738 c 128,-1,16
EndSplineSet
EndChar

StartChar: otilde
Encoding: 245 245 185
Width: 1126
GlyphClass: 2
Flags: W
LayerCount: 2
Fore
SplineSet
465 1374 m 0,0,1
 500 1374 500 1374 538 1354 c 128,-1,2
 576 1334 576 1334 604 1310 c 0,3,4
 676 1245 676 1245 726 1245 c 0,5,6
 756 1245 756 1245 778 1262.5 c 128,-1,7
 800 1280 800 1280 842 1335 c 1,8,-1
 919 1246 l 1,9,10
 862 1168 862 1168 815 1140 c 128,-1,11
 768 1112 768 1112 724.5 1112 c 128,-1,12
 681 1112 681 1112 642 1133.5 c 128,-1,13
 603 1155 603 1155 574 1182 c 1,14,15
 496 1251 496 1251 450 1251 c 0,16,17
 378 1251 378 1251 303 1150 c 1,18,-1
 227 1218 l 1,19,20
 275 1294 275 1294 337.5 1334 c 128,-1,21
 400 1374 400 1374 465 1374 c 0,0,1
248.5 106.5 m 128,-1,23
 130 238 130 238 130 466 c 128,-1,24
 130 694 130 694 248.5 825 c 128,-1,25
 367 956 367 956 563.5 956 c 128,-1,26
 760 956 760 956 881 825 c 128,-1,27
 1002 694 1002 694 1002 466.5 c 128,-1,28
 1002 239 1002 239 881 107 c 128,-1,29
 760 -25 760 -25 563.5 -25 c 128,-1,22
 367 -25 367 -25 248.5 106.5 c 128,-1,23
348.5 738 m 128,-1,31
 274 640 274 640 274 464.5 c 128,-1,32
 274 289 274 289 348.5 192 c 128,-1,33
 423 95 423 95 563.5 95 c 128,-1,34
 704 95 704 95 781 192 c 128,-1,35
 858 289 858 289 858 464 c 128,-1,36
 858 639 858 639 781 737.5 c 128,-1,37
 704 836 704 836 563.5 836 c 128,-1,30
 423 836 423 836 348.5 738 c 128,-1,31
EndSplineSet
EndChar

StartChar: odieresis
Encoding: 246 246 186
Width: 1126
GlyphClass: 2
Flags: W
LayerCount: 2
Fore
SplineSet
458 1174.5 m 128,-1,1
 425 1141 425 1141 374.5 1141 c 128,-1,2
 324 1141 324 1141 290 1174 c 128,-1,3
 256 1207 256 1207 256 1257.5 c 128,-1,4
 256 1308 256 1308 290 1342 c 128,-1,5
 324 1376 324 1376 374.5 1376 c 128,-1,6
 425 1376 425 1376 458 1342.5 c 128,-1,7
 491 1309 491 1309 491 1258.5 c 128,-1,0
 491 1208 491 1208 458 1174.5 c 128,-1,1
821 1176 m 128,-1,9
 788 1143 788 1143 738.5 1143 c 128,-1,10
 689 1143 689 1143 657 1175.5 c 128,-1,11
 625 1208 625 1208 625 1257.5 c 128,-1,12
 625 1307 625 1307 657 1340.5 c 128,-1,13
 689 1374 689 1374 738.5 1374 c 128,-1,14
 788 1374 788 1374 821 1341 c 128,-1,15
 854 1308 854 1308 854 1258.5 c 128,-1,8
 854 1209 854 1209 821 1176 c 128,-1,9
248.5 106.5 m 128,-1,17
 130 238 130 238 130 466 c 128,-1,18
 130 694 130 694 248.5 825 c 128,-1,19
 367 956 367 956 563.5 956 c 128,-1,20
 760 956 760 956 881 825 c 128,-1,21
 1002 694 1002 694 1002 466.5 c 128,-1,22
 1002 239 1002 239 881 107 c 128,-1,23
 760 -25 760 -25 563.5 -25 c 128,-1,16
 367 -25 367 -25 248.5 106.5 c 128,-1,17
348.5 738 m 128,-1,25
 274 640 274 640 274 464.5 c 128,-1,26
 274 289 274 289 348.5 192 c 128,-1,27
 423 95 423 95 563.5 95 c 128,-1,28
 704 95 704 95 781 192 c 128,-1,29
 858 289 858 289 858 464 c 128,-1,30
 858 639 858 639 781 737.5 c 128,-1,31
 704 836 704 836 563.5 836 c 128,-1,24
 423 836 423 836 348.5 738 c 128,-1,25
EndSplineSet
EndChar

StartChar: divide
Encoding: 247 247 187
Width: 1126
GlyphClass: 2
Flags: W
LayerCount: 2
Fore
SplineSet
657 891 m 128,-1,1
 621 857 621 857 570.5 857 c 128,-1,2
 520 857 520 857 485 891 c 128,-1,3
 450 925 450 925 450 973.5 c 128,-1,4
 450 1022 450 1022 486 1057 c 128,-1,5
 522 1092 522 1092 571 1092 c 128,-1,6
 620 1092 620 1092 656.5 1057.5 c 128,-1,7
 693 1023 693 1023 693 974 c 128,-1,0
 693 925 693 925 657 891 c 128,-1,1
143 596 m 1,8,-1
 143 721 l 1,9,-1
 985 721 l 1,10,-1
 985 596 l 1,11,-1
 143 596 l 1,8,-1
484.5 237 m 128,-1,13
 450 271 450 271 450 319.5 c 128,-1,14
 450 368 450 368 485 403.5 c 128,-1,15
 520 439 520 439 570 439 c 128,-1,16
 620 439 620 439 656.5 404 c 128,-1,17
 693 369 693 369 693 321 c 128,-1,18
 693 273 693 273 657.5 238 c 128,-1,19
 622 203 622 203 570.5 203 c 128,-1,12
 519 203 519 203 484.5 237 c 128,-1,13
EndSplineSet
EndChar

StartChar: oslash
Encoding: 248 248 188
Width: 1126
GlyphClass: 2
Flags: W
LayerCount: 2
Fore
SplineSet
130 467 m 0,0,1
 130 694 130 694 248.5 825 c 128,-1,2
 367 956 367 956 563 956 c 0,3,4
 668 956 668 956 756 916 c 1,5,-1
 830 1054 l 1,6,-1
 933 1000 l 1,7,-1
 854 852 l 1,8,9
 1002 718 1002 718 1002 467 c 0,10,11
 1002 239 1002 239 881 107 c 128,-1,12
 760 -25 760 -25 563 -25 c 0,13,14
 477 -25 477 -25 399 3 c 1,15,-1
 320 -144 l 1,16,-1
 219 -95 l 1,17,-1
 300 58 l 1,18,19
 219 121 219 121 174.5 225.5 c 128,-1,20
 130 330 130 330 130 467 c 0,0,1
563 836 m 0,21,22
 423 836 423 836 348.5 738 c 128,-1,23
 274 640 274 640 274 456 c 128,-1,24
 274 272 274 272 363 175 c 1,25,-1
 698 806 l 1,26,27
 641 836 641 836 563 836 c 0,21,22
563 95 m 0,28,29
 704 95 704 95 781 192 c 128,-1,30
 858 289 858 289 858 460.5 c 128,-1,31
 858 632 858 632 788 729 c 1,32,-1
 457 112 l 1,33,34
 506 95 506 95 563 95 c 0,28,29
EndSplineSet
EndChar

StartChar: ugrave
Encoding: 249 249 189
Width: 1126
GlyphClass: 2
Flags: W
LayerCount: 2
Fore
SplineSet
545 1038 m 1,0,-1
 328 1346 l 1,1,-1
 458 1424 l 1,2,-1
 628 1079 l 1,3,-1
 545 1038 l 1,0,-1
175 342 m 2,4,-1
 175 936 l 1,5,-1
 315 936 l 1,6,-1
 315 358 l 2,7,8
 315 236 315 236 364.5 171 c 128,-1,9
 414 106 414 106 504 106 c 0,10,11
 619 106 619 106 710 200 c 128,-1,12
 801 294 801 294 801 414 c 2,13,-1
 801 936 l 1,14,-1
 941 936 l 1,15,-1
 941 0 l 1,16,-1
 801 0 l 1,17,-1
 801 166 l 1,18,19
 742 76 742 76 654.5 26.5 c 128,-1,20
 567 -23 567 -23 462 -23 c 0,21,22
 322 -23 322 -23 248.5 69 c 128,-1,23
 175 161 175 161 175 342 c 2,4,-1
EndSplineSet
EndChar

StartChar: uacute
Encoding: 250 250 190
Width: 1126
GlyphClass: 2
Flags: W
LayerCount: 2
Fore
SplineSet
513 1038 m 1,0,-1
 430 1079 l 1,1,-1
 600 1424 l 1,2,-1
 730 1346 l 1,3,-1
 513 1038 l 1,0,-1
175 342 m 2,4,-1
 175 936 l 1,5,-1
 315 936 l 1,6,-1
 315 358 l 2,7,8
 315 236 315 236 364.5 171 c 128,-1,9
 414 106 414 106 504 106 c 0,10,11
 619 106 619 106 710 200 c 128,-1,12
 801 294 801 294 801 414 c 2,13,-1
 801 936 l 1,14,-1
 941 936 l 1,15,-1
 941 0 l 1,16,-1
 801 0 l 1,17,-1
 801 166 l 1,18,19
 742 76 742 76 654.5 26.5 c 128,-1,20
 567 -23 567 -23 462 -23 c 0,21,22
 322 -23 322 -23 248.5 69 c 128,-1,23
 175 161 175 161 175 342 c 2,4,-1
EndSplineSet
EndChar

StartChar: ucircumflex
Encoding: 251 251 191
Width: 1126
GlyphClass: 2
Flags: W
LayerCount: 2
Fore
SplineSet
381 1061 m 1,0,-1
 289 1132 l 1,1,-1
 539 1451 l 1,2,-1
 584 1451 l 1,3,-1
 823 1135 l 1,4,-1
 729 1063 l 1,5,-1
 561 1282 l 1,6,-1
 381 1061 l 1,0,-1
175 342 m 2,7,-1
 175 936 l 1,8,-1
 315 936 l 1,9,-1
 315 358 l 2,10,11
 315 236 315 236 364.5 171 c 128,-1,12
 414 106 414 106 504 106 c 0,13,14
 619 106 619 106 710 200 c 128,-1,15
 801 294 801 294 801 414 c 2,16,-1
 801 936 l 1,17,-1
 941 936 l 1,18,-1
 941 0 l 1,19,-1
 801 0 l 1,20,-1
 801 166 l 1,21,22
 742 76 742 76 654.5 26.5 c 128,-1,23
 567 -23 567 -23 462 -23 c 0,24,25
 322 -23 322 -23 248.5 69 c 128,-1,26
 175 161 175 161 175 342 c 2,7,-1
EndSplineSet
EndChar

StartChar: udieresis
Encoding: 252 252 192
Width: 1126
GlyphClass: 2
Flags: W
LayerCount: 2
Fore
SplineSet
458 1174.5 m 128,-1,1
 425 1141 425 1141 374.5 1141 c 128,-1,2
 324 1141 324 1141 290 1174 c 128,-1,3
 256 1207 256 1207 256 1257.5 c 128,-1,4
 256 1308 256 1308 290 1342 c 128,-1,5
 324 1376 324 1376 374.5 1376 c 128,-1,6
 425 1376 425 1376 458 1342.5 c 128,-1,7
 491 1309 491 1309 491 1258.5 c 128,-1,0
 491 1208 491 1208 458 1174.5 c 128,-1,1
821 1176 m 128,-1,9
 788 1143 788 1143 738.5 1143 c 128,-1,10
 689 1143 689 1143 657 1175.5 c 128,-1,11
 625 1208 625 1208 625 1257.5 c 128,-1,12
 625 1307 625 1307 657 1340.5 c 128,-1,13
 689 1374 689 1374 738.5 1374 c 128,-1,14
 788 1374 788 1374 821 1341 c 128,-1,15
 854 1308 854 1308 854 1258.5 c 128,-1,8
 854 1209 854 1209 821 1176 c 128,-1,9
175 342 m 2,16,-1
 175 936 l 1,17,-1
 315 936 l 1,18,-1
 315 358 l 2,19,20
 315 236 315 236 364.5 171 c 128,-1,21
 414 106 414 106 504 106 c 0,22,23
 619 106 619 106 710 200 c 128,-1,24
 801 294 801 294 801 414 c 2,25,-1
 801 936 l 1,26,-1
 941 936 l 1,27,-1
 941 0 l 1,28,-1
 801 0 l 1,29,-1
 801 166 l 1,30,31
 742 76 742 76 654.5 26.5 c 128,-1,32
 567 -23 567 -23 462 -23 c 0,33,34
 322 -23 322 -23 248.5 69 c 128,-1,35
 175 161 175 161 175 342 c 2,16,-1
EndSplineSet
EndChar

StartChar: yacute
Encoding: 253 253 193
Width: 1126
GlyphClass: 2
Flags: W
LayerCount: 2
Fore
SplineSet
537 1038 m 1,0,-1
 454 1079 l 1,1,-1
 624 1424 l 1,2,-1
 754 1346 l 1,3,-1
 537 1038 l 1,0,-1
309 936 m 1,4,-1
 305 890 l 1,5,6
 305 876 305 876 311 862 c 2,7,-1
 599 201 l 1,8,-1
 795 688 l 2,9,10
 849 821 849 821 864 936 c 1,11,-1
 1022 936 l 1,12,13
 984 782 984 782 936 666 c 2,14,-1
 616 -106 l 2,15,16
 561 -237 561 -237 485.5 -296.5 c 128,-1,17
 410 -356 410 -356 304 -356 c 0,18,19
 173 -356 173 -356 92 -276 c 1,20,-1
 170 -145 l 1,21,22
 176 -152 176 -152 186.5 -171.5 c 128,-1,23
 197 -191 197 -191 206 -203 c 128,-1,24
 215 -215 215 -215 238 -225.5 c 128,-1,25
 261 -236 261 -236 294 -236 c 0,26,27
 356 -236 356 -236 402 -198.5 c 128,-1,28
 448 -161 448 -161 492 -66 c 1,29,-1
 527 21 l 1,30,-1
 133 936 l 1,31,-1
 309 936 l 1,4,-1
EndSplineSet
EndChar

StartChar: thorn
Encoding: 254 254 194
Width: 1126
GlyphClass: 2
Flags: W
LayerCount: 2
Fore
SplineSet
328 -340 m 1,0,-1
 188 -340 l 1,1,-1
 188 1290 l 2,2,3
 188 1312 188 1312 181 1331 c 128,-1,4
 174 1350 174 1350 174 1360 c 1,5,-1
 328 1360 l 1,6,-1
 328 784 l 1,7,8
 456 956 456 956 657 956 c 0,9,10
 782 956 782 956 868 896 c 0,11,12
 1034 780 1034 780 1034 492 c 0,13,14
 1034 258 1034 258 923.5 116.5 c 128,-1,15
 813 -25 813 -25 631 -25 c 0,16,17
 538 -25 538 -25 455.5 11.5 c 128,-1,18
 373 48 373 48 328 106 c 1,19,-1
 328 -340 l 1,0,-1
618 98 m 0,20,21
 733 98 733 98 809 196.5 c 128,-1,22
 885 295 885 295 885 489 c 0,23,24
 885 682 885 682 808 762 c 0,25,26
 739 834 739 834 635 834 c 128,-1,27
 531 834 531 834 457.5 775.5 c 128,-1,28
 384 717 384 717 358 637 c 0,29,30
 338 577 338 577 338 464.5 c 128,-1,31
 338 352 338 352 364.5 275.5 c 128,-1,32
 391 199 391 199 462 148.5 c 128,-1,33
 533 98 533 98 618 98 c 0,20,21
EndSplineSet
EndChar

StartChar: ydieresis
Encoding: 255 255 195
Width: 1126
GlyphClass: 2
Flags: W
LayerCount: 2
Fore
SplineSet
482 1174.5 m 128,-1,1
 449 1141 449 1141 398.5 1141 c 128,-1,2
 348 1141 348 1141 314 1174 c 128,-1,3
 280 1207 280 1207 280 1257.5 c 128,-1,4
 280 1308 280 1308 314 1342 c 128,-1,5
 348 1376 348 1376 398.5 1376 c 128,-1,6
 449 1376 449 1376 482 1342.5 c 128,-1,7
 515 1309 515 1309 515 1258.5 c 128,-1,0
 515 1208 515 1208 482 1174.5 c 128,-1,1
845 1176 m 128,-1,9
 812 1143 812 1143 762.5 1143 c 128,-1,10
 713 1143 713 1143 681 1175.5 c 128,-1,11
 649 1208 649 1208 649 1257.5 c 128,-1,12
 649 1307 649 1307 681 1340.5 c 128,-1,13
 713 1374 713 1374 762.5 1374 c 128,-1,14
 812 1374 812 1374 845 1341 c 128,-1,15
 878 1308 878 1308 878 1258.5 c 128,-1,8
 878 1209 878 1209 845 1176 c 128,-1,9
309 936 m 1,16,-1
 305 890 l 1,17,18
 305 876 305 876 311 862 c 2,19,-1
 599 201 l 1,20,-1
 795 688 l 2,21,22
 849 821 849 821 864 936 c 1,23,-1
 1022 936 l 1,24,25
 984 782 984 782 936 666 c 2,26,-1
 616 -106 l 2,27,28
 561 -237 561 -237 485.5 -296.5 c 128,-1,29
 410 -356 410 -356 304 -356 c 0,30,31
 173 -356 173 -356 92 -276 c 1,32,-1
 170 -145 l 1,33,34
 176 -152 176 -152 186.5 -171.5 c 128,-1,35
 197 -191 197 -191 206 -203 c 128,-1,36
 215 -215 215 -215 238 -225.5 c 128,-1,37
 261 -236 261 -236 294 -236 c 0,38,39
 356 -236 356 -236 402 -198.5 c 128,-1,40
 448 -161 448 -161 492 -66 c 1,41,-1
 527 21 l 1,42,-1
 133 936 l 1,43,-1
 309 936 l 1,16,-1
EndSplineSet
EndChar

StartChar: Amacron
Encoding: 256 256 196
Width: 1126
GlyphClass: 2
Flags: W
LayerCount: 2
Fore
SplineSet
313 1415 m 1,0,-1
 313 1530 l 1,1,-1
 813 1530 l 1,2,-1
 813 1415 l 1,3,-1
 313 1415 l 1,0,-1
57 0 m 1,4,-1
 530 1298 l 1,5,-1
 602 1298 l 1,6,-1
 1075 0 l 1,7,-1
 915 0 l 1,8,-1
 786 373 l 1,9,-1
 334 373 l 1,10,-1
 203 0 l 1,11,-1
 57 0 l 1,4,-1
377 496 m 1,12,-1
 743 496 l 1,13,-1
 561 1021 l 1,14,-1
 377 496 l 1,12,-1
EndSplineSet
EndChar

StartChar: amacron
Encoding: 257 257 197
Width: 1126
GlyphClass: 2
Flags: W
LayerCount: 2
Fore
SplineSet
324 1157 m 1,0,-1
 324 1272 l 1,1,-1
 844 1272 l 1,2,-1
 844 1157 l 1,3,-1
 324 1157 l 1,0,-1
168 238 m 0,4,5
 168 551 168 551 641 551 c 2,6,-1
 817 551 l 1,7,8
 817 712 817 712 761.5 773 c 128,-1,9
 706 834 706 834 578 834 c 0,10,11
 493 834 493 834 427.5 812 c 128,-1,12
 362 790 362 790 328 756 c 0,13,14
 319 747 319 747 306.5 721.5 c 128,-1,15
 294 696 294 696 281 692 c 1,16,-1
 199 827 l 1,17,18
 337 956 337 956 588 956 c 0,19,20
 958 956 958 956 958 580 c 2,21,-1
 958 0 l 1,22,-1
 815 0 l 1,23,-1
 815 143 l 1,24,25
 737 -23 737 -23 483 -23 c 0,26,27
 338 -23 338 -23 253 45.5 c 128,-1,28
 168 114 168 114 168 238 c 0,4,5
315 250 m 0,29,30
 315 90 315 90 514 90 c 0,31,32
 642 90 642 90 728.5 176 c 128,-1,33
 815 262 815 262 815 377 c 2,34,-1
 815 438 l 1,35,-1
 684 440 l 1,36,37
 491 440 491 440 403 395.5 c 128,-1,38
 315 351 315 351 315 250 c 0,29,30
EndSplineSet
EndChar

StartChar: Abreve
Encoding: 258 258 198
Width: 1126
GlyphClass: 2
Flags: W
LayerCount: 2
Fore
SplineSet
563 1360 m 128,-1,1
 481 1360 481 1360 413 1389 c 128,-1,2
 345 1418 345 1418 278 1484 c 1,3,-1
 364 1577 l 1,4,5
 419 1521 419 1521 459 1501 c 128,-1,6
 499 1481 499 1481 563 1481 c 128,-1,7
 627 1481 627 1481 667 1501 c 128,-1,8
 707 1521 707 1521 762 1577 c 1,9,-1
 848 1484 l 1,10,11
 781 1418 781 1418 713 1389 c 128,-1,0
 645 1360 645 1360 563 1360 c 128,-1,1
57 0 m 1,12,-1
 530 1298 l 1,13,-1
 602 1298 l 1,14,-1
 1075 0 l 1,15,-1
 915 0 l 1,16,-1
 786 373 l 1,17,-1
 334 373 l 1,18,-1
 203 0 l 1,19,-1
 57 0 l 1,12,-1
377 496 m 1,20,-1
 743 496 l 1,21,-1
 561 1021 l 1,22,-1
 377 496 l 1,20,-1
EndSplineSet
EndChar

StartChar: abreve
Encoding: 259 259 199
Width: 1126
GlyphClass: 2
Flags: W
LayerCount: 2
Fore
SplineSet
584 1072 m 128,-1,1
 502 1072 502 1072 434 1101 c 128,-1,2
 366 1130 366 1130 299 1196 c 1,3,-1
 385 1289 l 1,4,5
 440 1233 440 1233 480 1213 c 128,-1,6
 520 1193 520 1193 584 1193 c 128,-1,7
 648 1193 648 1193 688 1213 c 128,-1,8
 728 1233 728 1233 783 1289 c 1,9,-1
 869 1196 l 1,10,11
 802 1130 802 1130 734 1101 c 128,-1,0
 666 1072 666 1072 584 1072 c 128,-1,1
168 238 m 0,12,13
 168 551 168 551 641 551 c 2,14,-1
 817 551 l 1,15,16
 817 712 817 712 761.5 773 c 128,-1,17
 706 834 706 834 578 834 c 0,18,19
 493 834 493 834 427.5 812 c 128,-1,20
 362 790 362 790 328 756 c 0,21,22
 319 747 319 747 306.5 721.5 c 128,-1,23
 294 696 294 696 281 692 c 1,24,-1
 199 827 l 1,25,26
 337 956 337 956 588 956 c 0,27,28
 958 956 958 956 958 580 c 2,29,-1
 958 0 l 1,30,-1
 815 0 l 1,31,-1
 815 143 l 1,32,33
 737 -23 737 -23 483 -23 c 0,34,35
 338 -23 338 -23 253 45.5 c 128,-1,36
 168 114 168 114 168 238 c 0,12,13
315 250 m 0,37,38
 315 90 315 90 514 90 c 0,39,40
 642 90 642 90 728.5 176 c 128,-1,41
 815 262 815 262 815 377 c 2,42,-1
 815 438 l 1,43,-1
 684 440 l 1,44,45
 491 440 491 440 403 395.5 c 128,-1,46
 315 351 315 351 315 250 c 0,37,38
EndSplineSet
EndChar

StartChar: Aogonek
Encoding: 260 260 200
Width: 1126
GlyphClass: 2
Flags: W
LayerCount: 2
Fore
SplineSet
908 -209 m 0,0,1
 908 -263 908 -263 964.5 -263 c 128,-1,2
 1021 -263 1021 -263 1079 -217 c 1,3,-1
 1079 -322 l 1,4,5
 1012 -366 1012 -366 937.5 -366 c 128,-1,6
 863 -366 863 -366 817 -328.5 c 128,-1,7
 771 -291 771 -291 771 -236 c 0,8,9
 771 -129 771 -129 940 0 c 1,10,-1
 915 0 l 1,11,-1
 786 373 l 1,12,-1
 334 373 l 1,13,-1
 203 0 l 1,14,-1
 57 0 l 1,15,-1
 530 1298 l 1,16,-1
 602 1298 l 1,17,-1
 1075 0 l 1,18,19
 984 -90 984 -90 946 -136.5 c 128,-1,20
 908 -183 908 -183 908 -209 c 0,0,1
377 496 m 1,21,-1
 743 496 l 1,22,-1
 561 1021 l 1,23,-1
 377 496 l 1,21,-1
EndSplineSet
EndChar

StartChar: aogonek
Encoding: 261 261 201
Width: 1126
GlyphClass: 2
Flags: W
LayerCount: 2
Fore
SplineSet
168 238 m 0,0,1
 168 551 168 551 641 551 c 2,2,-1
 817 551 l 1,3,4
 817 712 817 712 761.5 773 c 128,-1,5
 706 834 706 834 578 834 c 0,6,7
 493 834 493 834 427.5 812 c 128,-1,8
 362 790 362 790 328 756 c 0,9,10
 319 747 319 747 306.5 721.5 c 128,-1,11
 294 696 294 696 281 692 c 1,12,-1
 199 827 l 1,13,14
 337 956 337 956 588 956 c 0,15,16
 958 956 958 956 958 580 c 2,17,-1
 957 0 l 1,18,19
 866 -90 866 -90 828 -136.5 c 128,-1,20
 790 -183 790 -183 790 -209 c 0,21,22
 790 -263 790 -263 846.5 -263 c 128,-1,23
 903 -263 903 -263 961 -217 c 1,24,-1
 961 -322 l 1,25,26
 894 -366 894 -366 819.5 -366 c 128,-1,27
 745 -366 745 -366 699 -328.5 c 128,-1,28
 653 -291 653 -291 653 -236 c 0,29,30
 653 -129 653 -129 822 0 c 1,31,-1
 815 0 l 1,32,-1
 815 143 l 1,33,34
 737 -23 737 -23 483 -23 c 0,35,36
 338 -23 338 -23 253 45.5 c 128,-1,37
 168 114 168 114 168 238 c 0,0,1
315 250 m 0,38,39
 315 90 315 90 514 90 c 0,40,41
 642 90 642 90 728.5 176 c 128,-1,42
 815 262 815 262 815 377 c 2,43,-1
 815 438 l 1,44,-1
 684 440 l 1,45,46
 491 440 491 440 403 395.5 c 128,-1,47
 315 351 315 351 315 250 c 0,38,39
EndSplineSet
EndChar

StartChar: Cacute
Encoding: 262 262 202
Width: 1126
GlyphClass: 2
Flags: W
LayerCount: 2
Fore
SplineSet
481 1363 m 1,0,-1
 441 1441 l 1,1,-1
 832 1668 l 1,2,-1
 901 1534 l 1,3,-1
 481 1363 l 1,0,-1
606 -20 m 0,4,5
 371 -20 371 -20 237.5 152 c 128,-1,6
 104 324 104 324 104 632 c 128,-1,7
 104 940 104 940 239 1115 c 128,-1,8
 374 1290 374 1290 608 1290 c 0,9,10
 888 1290 888 1290 1006 1026 c 1,11,-1
 862 956 l 1,12,13
 861 958 861 958 853.5 978.5 c 128,-1,14
 846 999 846 999 836.5 1020.5 c 128,-1,15
 827 1042 827 1042 806.5 1070 c 128,-1,16
 786 1098 786 1098 759.5 1119 c 128,-1,17
 733 1140 733 1140 690.5 1155 c 128,-1,18
 648 1170 648 1170 596 1170 c 0,19,20
 438 1170 438 1170 345 1025 c 128,-1,21
 252 880 252 880 252 631 c 128,-1,22
 252 382 252 382 348 241 c 128,-1,23
 444 100 444 100 615.5 100 c 128,-1,24
 787 100 787 100 885 260 c 1,25,-1
 991 188 l 1,26,27
 857 -20 857 -20 606 -20 c 0,4,5
EndSplineSet
EndChar

StartChar: cacute
Encoding: 263 263 203
Width: 1126
GlyphClass: 2
Flags: W
LayerCount: 2
Fore
SplineSet
539 1038 m 1,0,-1
 456 1079 l 1,1,-1
 626 1424 l 1,2,-1
 756 1346 l 1,3,-1
 539 1038 l 1,0,-1
260 107 m 128,-1,5
 137 238 137 238 137 466.5 c 128,-1,6
 137 695 137 695 261 826.5 c 128,-1,7
 385 958 385 958 596 958 c 0,8,9
 713 958 713 958 789.5 914 c 128,-1,10
 866 870 866 870 933 775 c 1,11,-1
 829 654 l 1,12,13
 817 665 817 665 815 683 c 0,14,15
 809 731 809 731 744.5 782 c 128,-1,16
 680 833 680 833 578 833 c 0,17,18
 444 833 444 833 364.5 737 c 128,-1,19
 285 641 285 641 285 470.5 c 128,-1,20
 285 300 285 300 369 198 c 128,-1,21
 453 96 453 96 597 96 c 0,22,23
 757 96 757 96 879 233 c 1,24,-1
 965 133 l 1,25,26
 819 -24 819 -24 592 -24 c 0,27,4
 383 -24 383 -24 260 107 c 128,-1,5
EndSplineSet
EndChar

StartChar: Ccircumflex
Encoding: 264 264 204
Width: 1126
GlyphClass: 2
Flags: W
LayerCount: 2
Fore
SplineSet
393 1358 m 1,0,-1
 325 1435 l 1,1,-1
 556 1601 l 1,2,-1
 668 1601 l 1,3,-1
 905 1435 l 1,4,-1
 837 1358 l 1,5,-1
 611 1487 l 1,6,-1
 393 1358 l 1,0,-1
606 -20 m 0,7,8
 371 -20 371 -20 237.5 152 c 128,-1,9
 104 324 104 324 104 632 c 128,-1,10
 104 940 104 940 239 1115 c 128,-1,11
 374 1290 374 1290 608 1290 c 0,12,13
 888 1290 888 1290 1006 1026 c 1,14,-1
 862 956 l 1,15,16
 861 958 861 958 853.5 978.5 c 128,-1,17
 846 999 846 999 836.5 1020.5 c 128,-1,18
 827 1042 827 1042 806.5 1070 c 128,-1,19
 786 1098 786 1098 759.5 1119 c 128,-1,20
 733 1140 733 1140 690.5 1155 c 128,-1,21
 648 1170 648 1170 596 1170 c 0,22,23
 438 1170 438 1170 345 1025 c 128,-1,24
 252 880 252 880 252 631 c 128,-1,25
 252 382 252 382 348 241 c 128,-1,26
 444 100 444 100 615.5 100 c 128,-1,27
 787 100 787 100 885 260 c 1,28,-1
 991 188 l 1,29,30
 857 -20 857 -20 606 -20 c 0,7,8
EndSplineSet
EndChar

StartChar: ccircumflex
Encoding: 265 265 205
Width: 1126
GlyphClass: 2
Flags: W
LayerCount: 2
Fore
SplineSet
407 1061 m 1,0,-1
 315 1132 l 1,1,-1
 565 1451 l 1,2,-1
 610 1451 l 1,3,-1
 849 1135 l 1,4,-1
 755 1063 l 1,5,-1
 587 1282 l 1,6,-1
 407 1061 l 1,0,-1
260 107 m 128,-1,8
 137 238 137 238 137 466.5 c 128,-1,9
 137 695 137 695 261 826.5 c 128,-1,10
 385 958 385 958 596 958 c 0,11,12
 713 958 713 958 789.5 914 c 128,-1,13
 866 870 866 870 933 775 c 1,14,-1
 829 654 l 1,15,16
 817 665 817 665 815 683 c 0,17,18
 809 731 809 731 744.5 782 c 128,-1,19
 680 833 680 833 578 833 c 0,20,21
 444 833 444 833 364.5 737 c 128,-1,22
 285 641 285 641 285 470.5 c 128,-1,23
 285 300 285 300 369 198 c 128,-1,24
 453 96 453 96 597 96 c 0,25,26
 757 96 757 96 879 233 c 1,27,-1
 965 133 l 1,28,29
 819 -24 819 -24 592 -24 c 0,30,7
 383 -24 383 -24 260 107 c 128,-1,8
EndSplineSet
EndChar

StartChar: Cdotaccent
Encoding: 266 266 206
Width: 1126
GlyphClass: 2
Flags: W
LayerCount: 2
Fore
SplineSet
697 1424.5 m 128,-1,1
 664 1391 664 1391 613.5 1391 c 128,-1,2
 563 1391 563 1391 529 1424 c 128,-1,3
 495 1457 495 1457 495 1507.5 c 128,-1,4
 495 1558 495 1558 529 1592 c 128,-1,5
 563 1626 563 1626 613.5 1626 c 128,-1,6
 664 1626 664 1626 697 1592.5 c 128,-1,7
 730 1559 730 1559 730 1508.5 c 128,-1,0
 730 1458 730 1458 697 1424.5 c 128,-1,1
606 -20 m 0,8,9
 371 -20 371 -20 237.5 152 c 128,-1,10
 104 324 104 324 104 632 c 128,-1,11
 104 940 104 940 239 1115 c 128,-1,12
 374 1290 374 1290 608 1290 c 0,13,14
 888 1290 888 1290 1006 1026 c 1,15,-1
 862 956 l 1,16,17
 861 958 861 958 853.5 978.5 c 128,-1,18
 846 999 846 999 836.5 1020.5 c 128,-1,19
 827 1042 827 1042 806.5 1070 c 128,-1,20
 786 1098 786 1098 759.5 1119 c 128,-1,21
 733 1140 733 1140 690.5 1155 c 128,-1,22
 648 1170 648 1170 596 1170 c 0,23,24
 438 1170 438 1170 345 1025 c 128,-1,25
 252 880 252 880 252 631 c 128,-1,26
 252 382 252 382 348 241 c 128,-1,27
 444 100 444 100 615.5 100 c 128,-1,28
 787 100 787 100 885 260 c 1,29,-1
 991 188 l 1,30,31
 857 -20 857 -20 606 -20 c 0,8,9
EndSplineSet
EndChar

StartChar: cdotaccent
Encoding: 267 267 207
Width: 1126
GlyphClass: 2
Flags: W
LayerCount: 2
Fore
SplineSet
664 1174.5 m 128,-1,1
 631 1141 631 1141 580.5 1141 c 128,-1,2
 530 1141 530 1141 496 1174 c 128,-1,3
 462 1207 462 1207 462 1257.5 c 128,-1,4
 462 1308 462 1308 496 1342 c 128,-1,5
 530 1376 530 1376 580.5 1376 c 128,-1,6
 631 1376 631 1376 664 1342.5 c 128,-1,7
 697 1309 697 1309 697 1258.5 c 128,-1,0
 697 1208 697 1208 664 1174.5 c 128,-1,1
260 107 m 128,-1,9
 137 238 137 238 137 466.5 c 128,-1,10
 137 695 137 695 261 826.5 c 128,-1,11
 385 958 385 958 596 958 c 0,12,13
 713 958 713 958 789.5 914 c 128,-1,14
 866 870 866 870 933 775 c 1,15,-1
 829 654 l 1,16,17
 817 665 817 665 815 683 c 0,18,19
 809 731 809 731 744.5 782 c 128,-1,20
 680 833 680 833 578 833 c 0,21,22
 444 833 444 833 364.5 737 c 128,-1,23
 285 641 285 641 285 470.5 c 128,-1,24
 285 300 285 300 369 198 c 128,-1,25
 453 96 453 96 597 96 c 0,26,27
 757 96 757 96 879 233 c 1,28,-1
 965 133 l 1,29,30
 819 -24 819 -24 592 -24 c 0,31,8
 383 -24 383 -24 260 107 c 128,-1,9
EndSplineSet
EndChar

StartChar: Ccaron
Encoding: 268 268 208
Width: 1126
GlyphClass: 2
Flags: W
LayerCount: 2
Fore
SplineSet
566 1358 m 1,0,-1
 329 1524 l 1,1,-1
 397 1601 l 1,2,-1
 623 1472 l 1,3,-1
 841 1601 l 1,4,-1
 909 1524 l 1,5,-1
 678 1358 l 1,6,-1
 566 1358 l 1,0,-1
606 -20 m 0,7,8
 371 -20 371 -20 237.5 152 c 128,-1,9
 104 324 104 324 104 632 c 128,-1,10
 104 940 104 940 239 1115 c 128,-1,11
 374 1290 374 1290 608 1290 c 0,12,13
 888 1290 888 1290 1006 1026 c 1,14,-1
 862 956 l 1,15,16
 861 958 861 958 853.5 978.5 c 128,-1,17
 846 999 846 999 836.5 1020.5 c 128,-1,18
 827 1042 827 1042 806.5 1070 c 128,-1,19
 786 1098 786 1098 759.5 1119 c 128,-1,20
 733 1140 733 1140 690.5 1155 c 128,-1,21
 648 1170 648 1170 596 1170 c 0,22,23
 438 1170 438 1170 345 1025 c 128,-1,24
 252 880 252 880 252 631 c 128,-1,25
 252 382 252 382 348 241 c 128,-1,26
 444 100 444 100 615.5 100 c 128,-1,27
 787 100 787 100 885 260 c 1,28,-1
 991 188 l 1,29,30
 857 -20 857 -20 606 -20 c 0,7,8
EndSplineSet
EndChar

StartChar: ccaron
Encoding: 269 269 209
Width: 1126
GlyphClass: 2
Flags: W
LayerCount: 2
Fore
SplineSet
566 1041 m 1,0,-1
 319 1360 l 1,1,-1
 411 1431 l 1,2,-1
 587 1199 l 1,3,-1
 759 1429 l 1,4,-1
 853 1357 l 1,5,-1
 611 1041 l 1,6,-1
 566 1041 l 1,0,-1
260 107 m 128,-1,8
 137 238 137 238 137 466.5 c 128,-1,9
 137 695 137 695 261 826.5 c 128,-1,10
 385 958 385 958 596 958 c 0,11,12
 713 958 713 958 789.5 914 c 128,-1,13
 866 870 866 870 933 775 c 1,14,-1
 829 654 l 1,15,16
 817 665 817 665 815 683 c 0,17,18
 809 731 809 731 744.5 782 c 128,-1,19
 680 833 680 833 578 833 c 0,20,21
 444 833 444 833 364.5 737 c 128,-1,22
 285 641 285 641 285 470.5 c 128,-1,23
 285 300 285 300 369 198 c 128,-1,24
 453 96 453 96 597 96 c 0,25,26
 757 96 757 96 879 233 c 1,27,-1
 965 133 l 1,28,29
 819 -24 819 -24 592 -24 c 0,30,7
 383 -24 383 -24 260 107 c 128,-1,8
EndSplineSet
EndChar

StartChar: Dcaron
Encoding: 270 270 210
Width: 1126
GlyphClass: 2
Flags: W
LayerCount: 2
Fore
SplineSet
417 1358 m 1,0,-1
 180 1524 l 1,1,-1
 248 1601 l 1,2,-1
 474 1472 l 1,3,-1
 692 1601 l 1,4,-1
 760 1524 l 1,5,-1
 529 1358 l 1,6,-1
 417 1358 l 1,0,-1
154 -2 m 1,7,-1
 154 1276 l 1,8,-1
 453 1276 l 2,9,10
 610 1276 610 1276 703.5 1233.5 c 128,-1,11
 797 1191 797 1191 864 1102 c 0,12,13
 991 931 991 931 991 640.5 c 128,-1,14
 991 350 991 350 850 168 c 0,15,16
 718 -2 718 -2 428 -2 c 2,17,-1
 154 -2 l 1,7,-1
297 121 m 1,18,-1
 422 121 l 2,19,20
 639 121 639 121 741.5 246.5 c 128,-1,21
 844 372 844 372 844 626.5 c 128,-1,22
 844 881 844 881 748 1017 c 128,-1,23
 652 1153 652 1153 444 1153 c 2,24,-1
 297 1153 l 1,25,-1
 297 121 l 1,18,-1
EndSplineSet
EndChar

StartChar: dcaron
Encoding: 271 271 211
Width: 1126
GlyphClass: 2
Flags: W
LayerCount: 2
Fore
SplineSet
956 1037 m 1,0,-1
 1015 1412 l 1,1,-1
 1180 1412 l 1,2,-1
 1038 1010 l 1,3,-1
 956 1037 l 1,0,-1
407 -14 m 0,4,5
 220 -14 220 -14 125 112.5 c 128,-1,6
 30 239 30 239 30 461.5 c 128,-1,7
 30 684 30 684 140.5 825.5 c 128,-1,8
 251 967 251 967 433 967 c 0,9,10
 525 967 525 967 606 931 c 128,-1,11
 687 895 687 895 732 836 c 1,12,-1
 732 1362 l 1,13,-1
 886 1362 l 1,14,15
 886 1352 886 1352 879 1333 c 128,-1,16
 872 1314 872 1314 872 1292 c 2,17,-1
 872 6 l 1,18,-1
 736 6 l 1,19,-1
 736 158 l 1,20,21
 610 -14 610 -14 407 -14 c 0,4,5
606.5 167 m 128,-1,23
 680 225 680 225 706 305 c 0,24,25
 726 365 726 365 726 475 c 128,-1,26
 726 585 726 585 699.5 664 c 128,-1,27
 673 743 673 743 602 793.5 c 128,-1,28
 531 844 531 844 446 844 c 0,29,30
 331 844 331 844 255 745.5 c 128,-1,31
 179 647 179 647 179 453 c 0,32,33
 179 233 179 233 284 154 c 0,34,35
 344 109 344 109 438.5 109 c 128,-1,22
 533 109 533 109 606.5 167 c 128,-1,23
EndSplineSet
EndChar

StartChar: Dcroat
Encoding: 272 272 212
Width: 1126
GlyphClass: 2
Flags: W
LayerCount: 2
Fore
SplineSet
154 -2 m 1,0,-1
 154 611 l 1,1,-1
 43 611 l 1,2,-1
 43 730 l 1,3,-1
 154 730 l 1,4,-1
 154 1276 l 1,5,-1
 453 1276 l 2,6,7
 610 1276 610 1276 703.5 1233.5 c 128,-1,8
 797 1191 797 1191 864 1102 c 0,9,10
 991 931 991 931 991 640.5 c 128,-1,11
 991 350 991 350 850 168 c 0,12,13
 718 -2 718 -2 428 -2 c 2,14,-1
 154 -2 l 1,0,-1
297 121 m 1,15,-1
 422 121 l 2,16,17
 639 121 639 121 741.5 246.5 c 128,-1,18
 844 372 844 372 844 626.5 c 128,-1,19
 844 881 844 881 748 1017 c 128,-1,20
 652 1153 652 1153 444 1153 c 2,21,-1
 297 1153 l 1,22,-1
 297 730 l 1,23,-1
 629 730 l 1,24,-1
 629 611 l 1,25,-1
 297 611 l 1,26,-1
 297 121 l 1,15,-1
EndSplineSet
EndChar

StartChar: dcroat
Encoding: 273 273 213
Width: 1126
GlyphClass: 2
Flags: W
LayerCount: 2
Fore
SplineSet
214 112.5 m 128,-1,1
 119 239 119 239 119 461.5 c 128,-1,2
 119 684 119 684 229.5 825.5 c 128,-1,3
 340 967 340 967 522 967 c 0,4,5
 614 967 614 967 695 931 c 128,-1,6
 776 895 776 895 821 836 c 1,7,-1
 821 1074 l 1,8,-1
 543 1074 l 1,9,-1
 543 1189 l 1,10,-1
 821 1189 l 1,11,-1
 821 1362 l 1,12,-1
 975 1362 l 1,13,14
 975 1352 975 1352 968 1333 c 128,-1,15
 961 1314 961 1314 961 1292 c 2,16,-1
 961 1189 l 1,17,-1
 1063 1189 l 1,18,-1
 1063 1074 l 1,19,-1
 961 1074 l 1,20,-1
 961 6 l 1,21,-1
 825 6 l 1,22,-1
 825 158 l 1,23,24
 699 -14 699 -14 496 -14 c 0,25,0
 309 -14 309 -14 214 112.5 c 128,-1,1
268 453 m 0,26,27
 268 233 268 233 374 154 c 0,28,29
 433 109 433 109 527.5 109 c 128,-1,30
 622 109 622 109 695.5 167 c 128,-1,31
 769 225 769 225 795 305 c 0,32,33
 815 365 815 365 815 475 c 128,-1,34
 815 585 815 585 788.5 664 c 128,-1,35
 762 743 762 743 691 793.5 c 128,-1,36
 620 844 620 844 535 844 c 0,37,38
 420 844 420 844 344 745.5 c 128,-1,39
 268 647 268 647 268 453 c 0,26,27
EndSplineSet
EndChar

StartChar: Emacron
Encoding: 274 274 214
Width: 1126
GlyphClass: 2
Flags: W
LayerCount: 2
Fore
SplineSet
313 1415 m 1,0,-1
 313 1530 l 1,1,-1
 813 1530 l 1,2,-1
 813 1415 l 1,3,-1
 313 1415 l 1,0,-1
182 0 m 1,4,-1
 182 1276 l 1,5,-1
 965 1276 l 1,6,-1
 965 1153 l 1,7,-1
 326 1153 l 1,8,-1
 326 727 l 1,9,-1
 852 727 l 1,10,-1
 852 604 l 1,11,-1
 326 604 l 1,12,-1
 326 123 l 1,13,-1
 958 123 l 1,14,-1
 958 0 l 1,15,-1
 182 0 l 1,4,-1
EndSplineSet
EndChar

StartChar: emacron
Encoding: 275 275 215
Width: 1126
GlyphClass: 2
Flags: W
LayerCount: 2
Fore
SplineSet
357 1157 m 1,0,-1
 357 1272 l 1,1,-1
 877 1272 l 1,2,-1
 877 1157 l 1,3,-1
 357 1157 l 1,0,-1
271 98 m 128,-1,5
 150 221 150 221 150 458.5 c 128,-1,6
 150 696 150 696 272 826 c 128,-1,7
 394 956 394 956 606 956 c 0,8,9
 785 956 785 956 886 842 c 128,-1,10
 987 728 987 728 987 514 c 0,11,12
 987 504 987 504 983 446 c 1,13,-1
 297 446 l 1,14,15
 312 94 312 94 635 94 c 0,16,17
 703 94 703 94 768 123.5 c 128,-1,18
 833 153 833 153 879 203 c 1,19,-1
 961 123 l 1,20,21
 902 54 902 54 813 14.5 c 128,-1,22
 724 -25 724 -25 623 -25 c 0,23,4
 392 -25 392 -25 271 98 c 128,-1,5
838 561 m 1,24,25
 838 688 838 688 774.5 761 c 128,-1,26
 711 834 711 834 596 834 c 128,-1,27
 481 834 481 834 402 760.5 c 128,-1,28
 323 687 323 687 303 561 c 1,29,-1
 838 561 l 1,24,25
EndSplineSet
EndChar

StartChar: Ebreve
Encoding: 276 276 216
Width: 1126
GlyphClass: 2
Flags: W
LayerCount: 2
Fore
SplineSet
563 1360 m 128,-1,1
 481 1360 481 1360 413 1389 c 128,-1,2
 345 1418 345 1418 278 1484 c 1,3,-1
 364 1577 l 1,4,5
 419 1521 419 1521 459 1501 c 128,-1,6
 499 1481 499 1481 563 1481 c 128,-1,7
 627 1481 627 1481 667 1501 c 128,-1,8
 707 1521 707 1521 762 1577 c 1,9,-1
 848 1484 l 1,10,11
 781 1418 781 1418 713 1389 c 128,-1,0
 645 1360 645 1360 563 1360 c 128,-1,1
182 0 m 1,12,-1
 182 1276 l 1,13,-1
 965 1276 l 1,14,-1
 965 1153 l 1,15,-1
 326 1153 l 1,16,-1
 326 727 l 1,17,-1
 852 727 l 1,18,-1
 852 604 l 1,19,-1
 326 604 l 1,20,-1
 326 123 l 1,21,-1
 958 123 l 1,22,-1
 958 0 l 1,23,-1
 182 0 l 1,12,-1
EndSplineSet
EndChar

StartChar: ebreve
Encoding: 277 277 217
Width: 1126
GlyphClass: 2
Flags: W
LayerCount: 2
Fore
SplineSet
617 1072 m 128,-1,1
 535 1072 535 1072 467 1101 c 128,-1,2
 399 1130 399 1130 332 1196 c 1,3,-1
 418 1289 l 1,4,5
 473 1233 473 1233 513 1213 c 128,-1,6
 553 1193 553 1193 617 1193 c 128,-1,7
 681 1193 681 1193 721 1213 c 128,-1,8
 761 1233 761 1233 816 1289 c 1,9,-1
 902 1196 l 1,10,11
 835 1130 835 1130 767 1101 c 128,-1,0
 699 1072 699 1072 617 1072 c 128,-1,1
271 98 m 128,-1,13
 150 221 150 221 150 458.5 c 128,-1,14
 150 696 150 696 272 826 c 128,-1,15
 394 956 394 956 606 956 c 0,16,17
 785 956 785 956 886 842 c 128,-1,18
 987 728 987 728 987 514 c 0,19,20
 987 504 987 504 983 446 c 1,21,-1
 297 446 l 1,22,23
 312 94 312 94 635 94 c 0,24,25
 703 94 703 94 768 123.5 c 128,-1,26
 833 153 833 153 879 203 c 1,27,-1
 961 123 l 1,28,29
 902 54 902 54 813 14.5 c 128,-1,30
 724 -25 724 -25 623 -25 c 0,31,12
 392 -25 392 -25 271 98 c 128,-1,13
838 561 m 1,32,33
 838 688 838 688 774.5 761 c 128,-1,34
 711 834 711 834 596 834 c 128,-1,35
 481 834 481 834 402 760.5 c 128,-1,36
 323 687 323 687 303 561 c 1,37,-1
 838 561 l 1,32,33
EndSplineSet
EndChar

StartChar: Edotaccent
Encoding: 278 278 218
Width: 1126
GlyphClass: 2
Flags: W
LayerCount: 2
Fore
SplineSet
645 1424.5 m 128,-1,1
 612 1391 612 1391 561.5 1391 c 128,-1,2
 511 1391 511 1391 477 1424 c 128,-1,3
 443 1457 443 1457 443 1507.5 c 128,-1,4
 443 1558 443 1558 477 1592 c 128,-1,5
 511 1626 511 1626 561.5 1626 c 128,-1,6
 612 1626 612 1626 645 1592.5 c 128,-1,7
 678 1559 678 1559 678 1508.5 c 128,-1,0
 678 1458 678 1458 645 1424.5 c 128,-1,1
182 0 m 1,8,-1
 182 1276 l 1,9,-1
 965 1276 l 1,10,-1
 965 1153 l 1,11,-1
 326 1153 l 1,12,-1
 326 727 l 1,13,-1
 852 727 l 1,14,-1
 852 604 l 1,15,-1
 326 604 l 1,16,-1
 326 123 l 1,17,-1
 958 123 l 1,18,-1
 958 0 l 1,19,-1
 182 0 l 1,8,-1
EndSplineSet
EndChar

StartChar: edotaccent
Encoding: 279 279 219
Width: 1126
GlyphClass: 2
Flags: W
LayerCount: 2
Fore
SplineSet
692 1174.5 m 128,-1,1
 659 1141 659 1141 608.5 1141 c 128,-1,2
 558 1141 558 1141 524 1174 c 128,-1,3
 490 1207 490 1207 490 1257.5 c 128,-1,4
 490 1308 490 1308 524 1342 c 128,-1,5
 558 1376 558 1376 608.5 1376 c 128,-1,6
 659 1376 659 1376 692 1342.5 c 128,-1,7
 725 1309 725 1309 725 1258.5 c 128,-1,0
 725 1208 725 1208 692 1174.5 c 128,-1,1
271 98 m 128,-1,9
 150 221 150 221 150 458.5 c 128,-1,10
 150 696 150 696 272 826 c 128,-1,11
 394 956 394 956 606 956 c 0,12,13
 785 956 785 956 886 842 c 128,-1,14
 987 728 987 728 987 514 c 0,15,16
 987 504 987 504 983 446 c 1,17,-1
 297 446 l 1,18,19
 312 94 312 94 635 94 c 0,20,21
 703 94 703 94 768 123.5 c 128,-1,22
 833 153 833 153 879 203 c 1,23,-1
 961 123 l 1,24,25
 902 54 902 54 813 14.5 c 128,-1,26
 724 -25 724 -25 623 -25 c 0,27,8
 392 -25 392 -25 271 98 c 128,-1,9
838 561 m 1,28,29
 838 688 838 688 774.5 761 c 128,-1,30
 711 834 711 834 596 834 c 128,-1,31
 481 834 481 834 402 760.5 c 128,-1,32
 323 687 323 687 303 561 c 1,33,-1
 838 561 l 1,28,29
EndSplineSet
EndChar

StartChar: Eogonek
Encoding: 280 280 220
Width: 1126
GlyphClass: 2
Flags: W
LayerCount: 2
Fore
SplineSet
182 0 m 1,0,-1
 182 1276 l 1,1,-1
 965 1276 l 1,2,-1
 965 1153 l 1,3,-1
 326 1153 l 1,4,-1
 326 727 l 1,5,-1
 852 727 l 1,6,-1
 852 604 l 1,7,-1
 326 604 l 1,8,-1
 326 123 l 1,9,-1
 958 123 l 1,10,-1
 958 0 l 1,11,12
 867 -90 867 -90 829 -136.5 c 128,-1,13
 791 -183 791 -183 791 -209 c 0,14,15
 791 -263 791 -263 847.5 -263 c 128,-1,16
 904 -263 904 -263 962 -217 c 1,17,-1
 962 -322 l 1,18,19
 895 -366 895 -366 820.5 -366 c 128,-1,20
 746 -366 746 -366 700 -328.5 c 128,-1,21
 654 -291 654 -291 654 -236 c 0,22,23
 654 -129 654 -129 823 0 c 1,24,-1
 182 0 l 1,0,-1
EndSplineSet
EndChar

StartChar: eogonek
Encoding: 281 281 221
Width: 1126
GlyphClass: 2
Flags: W
LayerCount: 2
Fore
SplineSet
268 101 m 128,-1,1
 150 224 150 224 150 460 c 128,-1,2
 150 696 150 696 272 826 c 128,-1,3
 394 956 394 956 606 956 c 0,4,5
 785 956 785 956 886 842 c 128,-1,6
 987 728 987 728 987 514 c 0,7,8
 987 504 987 504 983 446 c 1,9,-1
 297 446 l 1,10,11
 312 94 312 94 635 94 c 0,12,13
 703 94 703 94 768 123.5 c 128,-1,14
 833 153 833 153 879 203 c 1,15,-1
 961 123 l 1,16,17
 891 39 891 39 776 0 c 1,18,-1
 778 0 l 1,19,20
 687 -90 687 -90 649 -136.5 c 128,-1,21
 611 -183 611 -183 611 -209 c 0,22,23
 611 -263 611 -263 667.5 -263 c 128,-1,24
 724 -263 724 -263 782 -217 c 1,25,-1
 782 -322 l 1,26,27
 715 -366 715 -366 640.5 -366 c 128,-1,28
 566 -366 566 -366 520 -328.5 c 128,-1,29
 474 -291 474 -291 474 -236 c 0,30,31
 474 -141 474 -141 612 -25 c 1,32,0
 386 -22 386 -22 268 101 c 128,-1,1
838 561 m 1,33,34
 838 688 838 688 774.5 761 c 128,-1,35
 711 834 711 834 596 834 c 128,-1,36
 481 834 481 834 402 760.5 c 128,-1,37
 323 687 323 687 303 561 c 1,38,-1
 838 561 l 1,33,34
EndSplineSet
EndChar

StartChar: Ecaron
Encoding: 282 282 222
Width: 1126
GlyphClass: 2
Flags: W
LayerCount: 2
Fore
SplineSet
514 1358 m 1,0,-1
 277 1524 l 1,1,-1
 345 1601 l 1,2,-1
 571 1472 l 1,3,-1
 789 1601 l 1,4,-1
 857 1524 l 1,5,-1
 626 1358 l 1,6,-1
 514 1358 l 1,0,-1
182 0 m 1,7,-1
 182 1276 l 1,8,-1
 965 1276 l 1,9,-1
 965 1153 l 1,10,-1
 326 1153 l 1,11,-1
 326 727 l 1,12,-1
 852 727 l 1,13,-1
 852 604 l 1,14,-1
 326 604 l 1,15,-1
 326 123 l 1,16,-1
 958 123 l 1,17,-1
 958 0 l 1,18,-1
 182 0 l 1,7,-1
EndSplineSet
EndChar

StartChar: ecaron
Encoding: 283 283 223
Width: 1126
GlyphClass: 2
Flags: W
LayerCount: 2
Fore
SplineSet
594 1041 m 1,0,-1
 347 1360 l 1,1,-1
 439 1431 l 1,2,-1
 615 1199 l 1,3,-1
 787 1429 l 1,4,-1
 881 1357 l 1,5,-1
 639 1041 l 1,6,-1
 594 1041 l 1,0,-1
271 98 m 128,-1,8
 150 221 150 221 150 458.5 c 128,-1,9
 150 696 150 696 272 826 c 128,-1,10
 394 956 394 956 606 956 c 0,11,12
 785 956 785 956 886 842 c 128,-1,13
 987 728 987 728 987 514 c 0,14,15
 987 504 987 504 983 446 c 1,16,-1
 297 446 l 1,17,18
 312 94 312 94 635 94 c 0,19,20
 703 94 703 94 768 123.5 c 128,-1,21
 833 153 833 153 879 203 c 1,22,-1
 961 123 l 1,23,24
 902 54 902 54 813 14.5 c 128,-1,25
 724 -25 724 -25 623 -25 c 0,26,7
 392 -25 392 -25 271 98 c 128,-1,8
838 561 m 1,27,28
 838 688 838 688 774.5 761 c 128,-1,29
 711 834 711 834 596 834 c 128,-1,30
 481 834 481 834 402 760.5 c 128,-1,31
 323 687 323 687 303 561 c 1,32,-1
 838 561 l 1,27,28
EndSplineSet
EndChar

StartChar: Gcircumflex
Encoding: 284 284 224
Width: 1126
GlyphClass: 2
Flags: W
LayerCount: 2
Fore
SplineSet
379 1358 m 1,0,-1
 311 1435 l 1,1,-1
 542 1601 l 1,2,-1
 654 1601 l 1,3,-1
 891 1435 l 1,4,-1
 823 1358 l 1,5,-1
 597 1487 l 1,6,-1
 379 1358 l 1,0,-1
586 -20 m 0,7,8
 358 -20 358 -20 229 152 c 128,-1,9
 100 324 100 324 100 632 c 128,-1,10
 100 940 100 940 237.5 1115 c 128,-1,11
 375 1290 375 1290 618 1290 c 0,12,13
 745 1290 745 1290 846.5 1220.5 c 128,-1,14
 948 1151 948 1151 1001 1026 c 1,15,-1
 860 958 l 1,16,17
 857 961 857 961 849.5 989 c 128,-1,18
 842 1017 842 1017 829 1034 c 1,19,20
 739 1170 739 1170 600 1170 c 0,21,22
 435 1170 435 1170 341.5 1027 c 128,-1,23
 248 884 248 884 248 637.5 c 128,-1,24
 248 391 248 391 343.5 246 c 128,-1,25
 439 101 439 101 606 101 c 0,26,27
 720 101 720 101 829 184 c 1,28,-1
 829 487 l 1,29,-1
 598 487 l 1,30,-1
 598 610 l 1,31,-1
 973 610 l 1,32,-1
 973 109 l 1,33,34
 907 52 907 52 797.5 16 c 128,-1,35
 688 -20 688 -20 586 -20 c 0,7,8
EndSplineSet
EndChar

StartChar: gcircumflex
Encoding: 285 285 225
Width: 1126
GlyphClass: 2
Flags: W
LayerCount: 2
Fore
SplineSet
340 1061 m 1,0,-1
 248 1132 l 1,1,-1
 498 1451 l 1,2,-1
 543 1451 l 1,3,-1
 782 1135 l 1,4,-1
 688 1063 l 1,5,-1
 520 1282 l 1,6,-1
 340 1061 l 1,0,-1
113 -131 m 0,7,8
 113 -14 113 -14 262 78 c 1,9,10
 190 117 190 117 190 203 c 128,-1,11
 190 289 190 289 288 372 c 1,12,13
 158 454 158 454 158 635 c 0,14,15
 158 792 158 792 248.5 879.5 c 128,-1,16
 339 967 339 967 497 967 c 128,-1,17
 655 967 655 967 743 887 c 1,18,19
 839 961 839 961 963 961 c 2,20,-1
 989 961 l 1,21,-1
 1008 840 l 1,22,23
 970 844 970 844 952 844 c 0,24,25
 868 844 868 844 803 807 c 1,26,27
 838 735 838 735 838 641 c 0,28,29
 838 489 838 489 749 404 c 128,-1,30
 660 319 660 319 500 319 c 0,31,32
 429 319 429 319 374 335 c 1,33,34
 315 274 315 274 315 240 c 128,-1,35
 315 206 315 206 348 190.5 c 128,-1,36
 381 175 381 175 436.5 171 c 128,-1,37
 492 167 492 167 550 167 c 0,38,39
 723 167 723 167 774 156 c 0,40,41
 871 134 871 134 919 81 c 128,-1,42
 967 28 967 28 967 -66 c 0,43,44
 967 -201 967 -201 853.5 -276.5 c 128,-1,45
 740 -352 740 -352 538.5 -352 c 128,-1,46
 337 -352 337 -352 225 -293.5 c 128,-1,47
 113 -235 113 -235 113 -131 c 0,7,8
498 438 m 128,-1,49
 595 438 595 438 648.5 492 c 128,-1,50
 702 546 702 546 702 643 c 128,-1,51
 702 740 702 740 648 795 c 128,-1,52
 594 850 594 850 497.5 850 c 128,-1,53
 401 850 401 850 347 795 c 128,-1,54
 293 740 293 740 293 643 c 128,-1,55
 293 546 293 546 347 492 c 128,-1,48
 401 438 401 438 498 438 c 128,-1,49
248 -94 m 0,56,57
 248 -163 248 -163 325.5 -202.5 c 128,-1,58
 403 -242 403 -242 541 -242 c 128,-1,59
 679 -242 679 -242 755 -198 c 128,-1,60
 831 -154 831 -154 831 -76 c 0,61,62
 831 35 831 35 653 35 c 128,-1,63
 475 35 475 35 357 50 c 1,64,65
 248 -12 248 -12 248 -94 c 0,56,57
EndSplineSet
EndChar

StartChar: Gbreve
Encoding: 286 286 226
Width: 1126
GlyphClass: 2
Flags: W
LayerCount: 2
Fore
SplineSet
601 1360 m 128,-1,1
 519 1360 519 1360 451 1389 c 128,-1,2
 383 1418 383 1418 316 1484 c 1,3,-1
 402 1577 l 1,4,5
 457 1521 457 1521 497 1501 c 128,-1,6
 537 1481 537 1481 601 1481 c 128,-1,7
 665 1481 665 1481 705 1501 c 128,-1,8
 745 1521 745 1521 800 1577 c 1,9,-1
 886 1484 l 1,10,11
 819 1418 819 1418 751 1389 c 128,-1,0
 683 1360 683 1360 601 1360 c 128,-1,1
586 -20 m 0,12,13
 358 -20 358 -20 229 152 c 128,-1,14
 100 324 100 324 100 632 c 128,-1,15
 100 940 100 940 237.5 1115 c 128,-1,16
 375 1290 375 1290 618 1290 c 0,17,18
 745 1290 745 1290 846.5 1220.5 c 128,-1,19
 948 1151 948 1151 1001 1026 c 1,20,-1
 860 958 l 1,21,22
 857 961 857 961 849.5 989 c 128,-1,23
 842 1017 842 1017 829 1034 c 1,24,25
 739 1170 739 1170 600 1170 c 0,26,27
 435 1170 435 1170 341.5 1027 c 128,-1,28
 248 884 248 884 248 637.5 c 128,-1,29
 248 391 248 391 343.5 246 c 128,-1,30
 439 101 439 101 606 101 c 0,31,32
 720 101 720 101 829 184 c 1,33,-1
 829 487 l 1,34,-1
 598 487 l 1,35,-1
 598 610 l 1,36,-1
 973 610 l 1,37,-1
 973 109 l 1,38,39
 907 52 907 52 797.5 16 c 128,-1,40
 688 -20 688 -20 586 -20 c 0,12,13
EndSplineSet
EndChar

StartChar: gbreve
Encoding: 287 287 227
Width: 1126
GlyphClass: 2
Flags: W
LayerCount: 2
Fore
SplineSet
514 1072 m 128,-1,1
 432 1072 432 1072 364 1101 c 128,-1,2
 296 1130 296 1130 229 1196 c 1,3,-1
 315 1289 l 1,4,5
 370 1233 370 1233 410 1213 c 128,-1,6
 450 1193 450 1193 514 1193 c 128,-1,7
 578 1193 578 1193 618 1213 c 128,-1,8
 658 1233 658 1233 713 1289 c 1,9,-1
 799 1196 l 1,10,11
 732 1130 732 1130 664 1101 c 128,-1,0
 596 1072 596 1072 514 1072 c 128,-1,1
113 -131 m 0,12,13
 113 -14 113 -14 262 78 c 1,14,15
 190 117 190 117 190 203 c 128,-1,16
 190 289 190 289 288 372 c 1,17,18
 158 454 158 454 158 635 c 0,19,20
 158 792 158 792 248.5 879.5 c 128,-1,21
 339 967 339 967 497 967 c 128,-1,22
 655 967 655 967 743 887 c 1,23,24
 839 961 839 961 963 961 c 2,25,-1
 989 961 l 1,26,-1
 1008 840 l 1,27,28
 970 844 970 844 952 844 c 0,29,30
 868 844 868 844 803 807 c 1,31,32
 838 735 838 735 838 641 c 0,33,34
 838 489 838 489 749 404 c 128,-1,35
 660 319 660 319 500 319 c 0,36,37
 429 319 429 319 374 335 c 1,38,39
 315 274 315 274 315 240 c 128,-1,40
 315 206 315 206 348 190.5 c 128,-1,41
 381 175 381 175 436.5 171 c 128,-1,42
 492 167 492 167 550 167 c 0,43,44
 723 167 723 167 774 156 c 0,45,46
 871 134 871 134 919 81 c 128,-1,47
 967 28 967 28 967 -66 c 0,48,49
 967 -201 967 -201 853.5 -276.5 c 128,-1,50
 740 -352 740 -352 538.5 -352 c 128,-1,51
 337 -352 337 -352 225 -293.5 c 128,-1,52
 113 -235 113 -235 113 -131 c 0,12,13
498 438 m 128,-1,54
 595 438 595 438 648.5 492 c 128,-1,55
 702 546 702 546 702 643 c 128,-1,56
 702 740 702 740 648 795 c 128,-1,57
 594 850 594 850 497.5 850 c 128,-1,58
 401 850 401 850 347 795 c 128,-1,59
 293 740 293 740 293 643 c 128,-1,60
 293 546 293 546 347 492 c 128,-1,53
 401 438 401 438 498 438 c 128,-1,54
248 -94 m 0,61,62
 248 -163 248 -163 325.5 -202.5 c 128,-1,63
 403 -242 403 -242 541 -242 c 128,-1,64
 679 -242 679 -242 755 -198 c 128,-1,65
 831 -154 831 -154 831 -76 c 0,66,67
 831 35 831 35 653 35 c 128,-1,68
 475 35 475 35 357 50 c 1,69,70
 248 -12 248 -12 248 -94 c 0,61,62
EndSplineSet
EndChar

StartChar: Gdotaccent
Encoding: 288 288 228
Width: 1126
GlyphClass: 2
Flags: W
LayerCount: 2
Fore
SplineSet
683 1424.5 m 128,-1,1
 650 1391 650 1391 599.5 1391 c 128,-1,2
 549 1391 549 1391 515 1424 c 128,-1,3
 481 1457 481 1457 481 1507.5 c 128,-1,4
 481 1558 481 1558 515 1592 c 128,-1,5
 549 1626 549 1626 599.5 1626 c 128,-1,6
 650 1626 650 1626 683 1592.5 c 128,-1,7
 716 1559 716 1559 716 1508.5 c 128,-1,0
 716 1458 716 1458 683 1424.5 c 128,-1,1
586 -20 m 0,8,9
 358 -20 358 -20 229 152 c 128,-1,10
 100 324 100 324 100 632 c 128,-1,11
 100 940 100 940 237.5 1115 c 128,-1,12
 375 1290 375 1290 618 1290 c 0,13,14
 745 1290 745 1290 846.5 1220.5 c 128,-1,15
 948 1151 948 1151 1001 1026 c 1,16,-1
 860 958 l 1,17,18
 857 961 857 961 849.5 989 c 128,-1,19
 842 1017 842 1017 829 1034 c 1,20,21
 739 1170 739 1170 600 1170 c 0,22,23
 435 1170 435 1170 341.5 1027 c 128,-1,24
 248 884 248 884 248 637.5 c 128,-1,25
 248 391 248 391 343.5 246 c 128,-1,26
 439 101 439 101 606 101 c 0,27,28
 720 101 720 101 829 184 c 1,29,-1
 829 487 l 1,30,-1
 598 487 l 1,31,-1
 598 610 l 1,32,-1
 973 610 l 1,33,-1
 973 109 l 1,34,35
 907 52 907 52 797.5 16 c 128,-1,36
 688 -20 688 -20 586 -20 c 0,8,9
EndSplineSet
EndChar

StartChar: gdotaccent
Encoding: 289 289 229
Width: 1126
GlyphClass: 2
Flags: W
LayerCount: 2
Fore
SplineSet
636 1134.5 m 128,-1,1
 603 1101 603 1101 552.5 1101 c 128,-1,2
 502 1101 502 1101 468 1134 c 128,-1,3
 434 1167 434 1167 434 1217.5 c 128,-1,4
 434 1268 434 1268 468 1302 c 128,-1,5
 502 1336 502 1336 552.5 1336 c 128,-1,6
 603 1336 603 1336 636 1302.5 c 128,-1,7
 669 1269 669 1269 669 1218.5 c 128,-1,0
 669 1168 669 1168 636 1134.5 c 128,-1,1
113 -131 m 0,8,9
 113 -14 113 -14 262 78 c 1,10,11
 190 117 190 117 190 203 c 128,-1,12
 190 289 190 289 288 372 c 1,13,14
 158 454 158 454 158 635 c 0,15,16
 158 792 158 792 248.5 879.5 c 128,-1,17
 339 967 339 967 497 967 c 128,-1,18
 655 967 655 967 743 887 c 1,19,20
 839 961 839 961 963 961 c 2,21,-1
 989 961 l 1,22,-1
 1008 840 l 1,23,24
 970 844 970 844 952 844 c 0,25,26
 868 844 868 844 803 807 c 1,27,28
 838 735 838 735 838 641 c 0,29,30
 838 489 838 489 749 404 c 128,-1,31
 660 319 660 319 500 319 c 0,32,33
 429 319 429 319 374 335 c 1,34,35
 315 274 315 274 315 240 c 128,-1,36
 315 206 315 206 348 190.5 c 128,-1,37
 381 175 381 175 436.5 171 c 128,-1,38
 492 167 492 167 550 167 c 0,39,40
 723 167 723 167 774 156 c 0,41,42
 871 134 871 134 919 81 c 128,-1,43
 967 28 967 28 967 -66 c 0,44,45
 967 -201 967 -201 853.5 -276.5 c 128,-1,46
 740 -352 740 -352 538.5 -352 c 128,-1,47
 337 -352 337 -352 225 -293.5 c 128,-1,48
 113 -235 113 -235 113 -131 c 0,8,9
498 438 m 128,-1,50
 595 438 595 438 648.5 492 c 128,-1,51
 702 546 702 546 702 643 c 128,-1,52
 702 740 702 740 648 795 c 128,-1,53
 594 850 594 850 497.5 850 c 128,-1,54
 401 850 401 850 347 795 c 128,-1,55
 293 740 293 740 293 643 c 128,-1,56
 293 546 293 546 347 492 c 128,-1,49
 401 438 401 438 498 438 c 128,-1,50
248 -94 m 0,57,58
 248 -163 248 -163 325.5 -202.5 c 128,-1,59
 403 -242 403 -242 541 -242 c 128,-1,60
 679 -242 679 -242 755 -198 c 128,-1,61
 831 -154 831 -154 831 -76 c 0,62,63
 831 35 831 35 653 35 c 128,-1,64
 475 35 475 35 357 50 c 1,65,66
 248 -12 248 -12 248 -94 c 0,57,58
EndSplineSet
EndChar

StartChar: uni0122
Encoding: 290 290 230
Width: 1126
GlyphClass: 2
Flags: W
LayerCount: 2
Fore
SplineSet
586 -20 m 0,0,1
 358 -20 358 -20 229 152 c 128,-1,2
 100 324 100 324 100 632 c 128,-1,3
 100 940 100 940 237.5 1115 c 128,-1,4
 375 1290 375 1290 618 1290 c 0,5,6
 745 1290 745 1290 846.5 1220.5 c 128,-1,7
 948 1151 948 1151 1001 1026 c 1,8,-1
 860 958 l 1,9,10
 857 961 857 961 849.5 989 c 128,-1,11
 842 1017 842 1017 829 1034 c 1,12,13
 739 1170 739 1170 600 1170 c 0,14,15
 435 1170 435 1170 341.5 1027 c 128,-1,16
 248 884 248 884 248 637.5 c 128,-1,17
 248 391 248 391 343.5 246 c 128,-1,18
 439 101 439 101 606 101 c 0,19,20
 720 101 720 101 829 184 c 1,21,-1
 829 487 l 1,22,-1
 598 487 l 1,23,-1
 598 610 l 1,24,-1
 973 610 l 1,25,-1
 973 109 l 1,26,27
 907 52 907 52 797.5 16 c 128,-1,28
 688 -20 688 -20 586 -20 c 0,0,1
506 -88 m 1,29,-1
 656 -127 l 1,30,-1
 478 -443 l 1,31,-1
 394 -396 l 1,32,-1
 506 -88 l 1,29,-1
EndSplineSet
EndChar

StartChar: uni0123
Encoding: 291 291 231
Width: 1126
GlyphClass: 2
Flags: W
LayerCount: 2
Fore
SplineSet
456 1096 m 1,0,-1
 634 1412 l 1,1,-1
 718 1365 l 1,2,-1
 606 1057 l 1,3,-1
 456 1096 l 1,0,-1
113 -131 m 0,4,5
 113 -14 113 -14 262 78 c 1,6,7
 190 117 190 117 190 203 c 128,-1,8
 190 289 190 289 288 372 c 1,9,10
 158 454 158 454 158 635 c 0,11,12
 158 792 158 792 248.5 879.5 c 128,-1,13
 339 967 339 967 497 967 c 128,-1,14
 655 967 655 967 743 887 c 1,15,16
 839 961 839 961 963 961 c 2,17,-1
 989 961 l 1,18,-1
 1008 840 l 1,19,20
 970 844 970 844 952 844 c 0,21,22
 868 844 868 844 803 807 c 1,23,24
 838 735 838 735 838 641 c 0,25,26
 838 489 838 489 749 404 c 128,-1,27
 660 319 660 319 500 319 c 0,28,29
 429 319 429 319 374 335 c 1,30,31
 315 274 315 274 315 240 c 128,-1,32
 315 206 315 206 348 190.5 c 128,-1,33
 381 175 381 175 436.5 171 c 128,-1,34
 492 167 492 167 550 167 c 0,35,36
 723 167 723 167 774 156 c 0,37,38
 871 134 871 134 919 81 c 128,-1,39
 967 28 967 28 967 -66 c 0,40,41
 967 -201 967 -201 853.5 -276.5 c 128,-1,42
 740 -352 740 -352 538.5 -352 c 128,-1,43
 337 -352 337 -352 225 -293.5 c 128,-1,44
 113 -235 113 -235 113 -131 c 0,4,5
498 438 m 128,-1,46
 595 438 595 438 648.5 492 c 128,-1,47
 702 546 702 546 702 643 c 128,-1,48
 702 740 702 740 648 795 c 128,-1,49
 594 850 594 850 497.5 850 c 128,-1,50
 401 850 401 850 347 795 c 128,-1,51
 293 740 293 740 293 643 c 128,-1,52
 293 546 293 546 347 492 c 128,-1,45
 401 438 401 438 498 438 c 128,-1,46
248 -94 m 0,53,54
 248 -163 248 -163 325.5 -202.5 c 128,-1,55
 403 -242 403 -242 541 -242 c 128,-1,56
 679 -242 679 -242 755 -198 c 128,-1,57
 831 -154 831 -154 831 -76 c 0,58,59
 831 35 831 35 653 35 c 128,-1,60
 475 35 475 35 357 50 c 1,61,62
 248 -12 248 -12 248 -94 c 0,53,54
EndSplineSet
EndChar

StartChar: Hcircumflex
Encoding: 292 292 232
Width: 1126
GlyphClass: 2
Flags: W
LayerCount: 2
Fore
SplineSet
345 1358 m 1,0,-1
 277 1435 l 1,1,-1
 508 1601 l 1,2,-1
 620 1601 l 1,3,-1
 857 1435 l 1,4,-1
 789 1358 l 1,5,-1
 563 1487 l 1,6,-1
 345 1358 l 1,0,-1
139 0 m 1,7,-1
 139 1276 l 1,8,-1
 297 1276 l 1,9,10
 297 1266 297 1266 290 1247 c 128,-1,11
 283 1228 283 1228 283 1206 c 2,12,-1
 283 731 l 1,13,-1
 844 731 l 1,14,-1
 844 1276 l 1,15,-1
 1002 1276 l 1,16,17
 1002 1266 1002 1266 995 1247 c 128,-1,18
 988 1228 988 1228 988 1206 c 2,19,-1
 988 0 l 1,20,-1
 842 0 l 1,21,-1
 842 608 l 1,22,-1
 277 608 l 1,23,-1
 277 0 l 1,24,-1
 139 0 l 1,7,-1
EndSplineSet
EndChar

StartChar: hcircumflex
Encoding: 293 293 233
Width: 1126
GlyphClass: 2
Flags: W
LayerCount: 2
Fore
SplineSet
220 1415 m 1,0,-1
 152 1492 l 1,1,-1
 383 1658 l 1,2,-1
 495 1658 l 1,3,-1
 732 1492 l 1,4,-1
 664 1415 l 1,5,-1
 438 1544 l 1,6,-1
 220 1415 l 1,0,-1
179 0 m 1,7,-1
 179 1362 l 1,8,-1
 333 1362 l 1,9,10
 333 1352 333 1352 326 1333 c 128,-1,11
 319 1314 319 1314 319 1292 c 2,12,-1
 319 770 l 1,13,14
 475 958 475 958 696 958 c 0,15,16
 825 958 825 958 887 885.5 c 128,-1,17
 949 813 949 813 949 639 c 2,18,-1
 949 0 l 1,19,-1
 809 0 l 1,20,-1
 809 613 l 2,21,22
 809 734 809 734 771 779.5 c 128,-1,23
 733 825 733 825 655 825 c 128,-1,24
 577 825 577 825 501 785 c 128,-1,25
 425 745 425 745 372 674.5 c 128,-1,26
 319 604 319 604 319 528 c 2,27,-1
 319 0 l 1,28,-1
 179 0 l 1,7,-1
EndSplineSet
EndChar

StartChar: Hbar
Encoding: 294 294 234
Width: 1126
GlyphClass: 2
Flags: W
LayerCount: 2
Fore
SplineSet
139 0 m 1,0,-1
 139 968 l 1,1,-1
 37 968 l 1,2,-1
 37 1091 l 1,3,-1
 139 1091 l 1,4,-1
 139 1276 l 1,5,-1
 297 1276 l 1,6,7
 297 1266 297 1266 290 1247 c 128,-1,8
 283 1228 283 1228 283 1206 c 2,9,-1
 283 1091 l 1,10,-1
 844 1091 l 1,11,-1
 844 1276 l 1,12,-1
 1002 1276 l 1,13,14
 1002 1266 1002 1266 995 1247 c 128,-1,15
 988 1228 988 1228 988 1206 c 2,16,-1
 988 1091 l 1,17,-1
 1074 1091 l 1,18,-1
 1074 968 l 1,19,-1
 988 968 l 1,20,-1
 988 0 l 1,21,-1
 842 0 l 1,22,-1
 842 608 l 1,23,-1
 283 608 l 1,24,-1
 283 0 l 1,25,-1
 139 0 l 1,0,-1
283 731 m 1,26,-1
 844 731 l 1,27,-1
 844 968 l 1,28,-1
 283 968 l 1,29,-1
 283 731 l 1,26,-1
EndSplineSet
EndChar

StartChar: hbar
Encoding: 295 295 235
Width: 1126
GlyphClass: 2
Flags: W
LayerCount: 2
Fore
SplineSet
179 0 m 1,0,-1
 179 1033 l 1,1,-1
 71 1033 l 1,2,-1
 71 1148 l 1,3,-1
 179 1148 l 1,4,-1
 179 1362 l 1,5,-1
 333 1362 l 1,6,7
 333 1352 333 1352 326 1333 c 128,-1,8
 319 1314 319 1314 319 1292 c 2,9,-1
 319 1148 l 1,10,-1
 741 1148 l 1,11,-1
 741 1033 l 1,12,-1
 319 1033 l 1,13,-1
 319 730 l 1,14,15
 475 918 475 918 696 918 c 0,16,17
 825 918 825 918 887 845.5 c 128,-1,18
 949 773 949 773 949 599 c 2,19,-1
 949 0 l 1,20,-1
 809 0 l 1,21,-1
 809 573 l 2,22,23
 809 694 809 694 771 739.5 c 128,-1,24
 733 785 733 785 655 785 c 128,-1,25
 577 785 577 785 501 745 c 128,-1,26
 425 705 425 705 372 634.5 c 128,-1,27
 319 564 319 564 319 488 c 2,28,-1
 319 0 l 1,29,-1
 179 0 l 1,0,-1
EndSplineSet
EndChar

StartChar: Itilde
Encoding: 296 296 236
Width: 1126
GlyphClass: 2
Flags: W
LayerCount: 2
Fore
SplineSet
471 1611 m 0,0,1
 510 1611 510 1611 550.5 1591.5 c 128,-1,2
 591 1572 591 1572 620 1548 c 0,3,4
 696 1485 696 1485 746 1485 c 0,5,6
 776 1485 776 1485 798 1502.5 c 128,-1,7
 820 1520 820 1520 862 1575 c 1,8,-1
 931 1508 l 1,9,10
 872 1426 872 1426 828 1395.5 c 128,-1,11
 784 1365 784 1365 739 1365 c 128,-1,12
 694 1365 694 1365 653.5 1385.5 c 128,-1,13
 613 1406 613 1406 586 1430 c 0,14,15
 511 1495 511 1495 471 1495 c 128,-1,16
 431 1495 431 1495 398.5 1475 c 128,-1,17
 366 1455 366 1455 323 1393 c 1,18,-1
 237 1448 l 1,19,20
 292 1537 292 1537 348 1574 c 128,-1,21
 404 1611 404 1611 471 1611 c 0,0,1
213 0 m 1,22,-1
 213 125 l 1,23,-1
 485 125 l 1,24,-1
 485 1153 l 1,25,-1
 227 1153 l 1,26,-1
 227 1276 l 1,27,-1
 901 1276 l 1,28,-1
 901 1153 l 1,29,-1
 629 1153 l 1,30,-1
 629 123 l 1,31,-1
 913 123 l 1,32,-1
 913 0 l 1,33,-1
 213 0 l 1,22,-1
EndSplineSet
EndChar

StartChar: itilde
Encoding: 297 297 237
Width: 1126
GlyphClass: 2
Flags: W
LayerCount: 2
Fore
SplineSet
449 1374 m 0,0,1
 484 1374 484 1374 522 1354 c 128,-1,2
 560 1334 560 1334 588 1310 c 0,3,4
 660 1245 660 1245 710 1245 c 0,5,6
 740 1245 740 1245 762 1262.5 c 128,-1,7
 784 1280 784 1280 826 1335 c 1,8,-1
 903 1246 l 1,9,10
 846 1168 846 1168 799 1140 c 128,-1,11
 752 1112 752 1112 708.5 1112 c 128,-1,12
 665 1112 665 1112 626 1133.5 c 128,-1,13
 587 1155 587 1155 558 1182 c 1,14,15
 480 1251 480 1251 434 1251 c 0,16,17
 362 1251 362 1251 287 1150 c 1,18,-1
 211 1218 l 1,19,20
 259 1294 259 1294 321.5 1334 c 128,-1,21
 384 1374 384 1374 449 1374 c 0,0,1
174 0 m 1,22,-1
 174 120 l 1,23,-1
 492 120 l 1,24,-1
 492 816 l 1,25,-1
 178 816 l 1,26,-1
 178 936 l 1,27,-1
 635 936 l 1,28,-1
 635 120 l 1,29,-1
 954 120 l 1,30,-1
 954 0 l 1,31,-1
 174 0 l 1,22,-1
EndSplineSet
EndChar

StartChar: Imacron
Encoding: 298 298 238
Width: 1126
GlyphClass: 2
Flags: W
LayerCount: 2
Fore
SplineSet
313 1415 m 1,0,-1
 313 1530 l 1,1,-1
 813 1530 l 1,2,-1
 813 1415 l 1,3,-1
 313 1415 l 1,0,-1
213 0 m 1,4,-1
 213 125 l 1,5,-1
 485 125 l 1,6,-1
 485 1153 l 1,7,-1
 227 1153 l 1,8,-1
 227 1276 l 1,9,-1
 901 1276 l 1,10,-1
 901 1153 l 1,11,-1
 629 1153 l 1,12,-1
 629 123 l 1,13,-1
 913 123 l 1,14,-1
 913 0 l 1,15,-1
 213 0 l 1,4,-1
EndSplineSet
EndChar

StartChar: imacron
Encoding: 299 299 239
Width: 1126
GlyphClass: 2
Flags: W
LayerCount: 2
Fore
SplineSet
287 1157 m 1,0,-1
 287 1272 l 1,1,-1
 807 1272 l 1,2,-1
 807 1157 l 1,3,-1
 287 1157 l 1,0,-1
174 0 m 1,4,-1
 174 120 l 1,5,-1
 492 120 l 1,6,-1
 492 816 l 1,7,-1
 178 816 l 1,8,-1
 178 936 l 1,9,-1
 635 936 l 1,10,-1
 635 120 l 1,11,-1
 954 120 l 1,12,-1
 954 0 l 1,13,-1
 174 0 l 1,4,-1
EndSplineSet
EndChar

StartChar: Ibreve
Encoding: 300 300 240
Width: 1126
GlyphClass: 2
Flags: W
LayerCount: 2
Fore
SplineSet
542 1360 m 128,-1,1
 460 1360 460 1360 392 1389 c 128,-1,2
 324 1418 324 1418 257 1484 c 1,3,-1
 343 1577 l 1,4,5
 398 1521 398 1521 438 1501 c 128,-1,6
 478 1481 478 1481 542 1481 c 128,-1,7
 606 1481 606 1481 646 1501 c 128,-1,8
 686 1521 686 1521 741 1577 c 1,9,-1
 827 1484 l 1,10,11
 760 1418 760 1418 692 1389 c 128,-1,0
 624 1360 624 1360 542 1360 c 128,-1,1
213 0 m 1,12,-1
 213 125 l 1,13,-1
 485 125 l 1,14,-1
 485 1153 l 1,15,-1
 227 1153 l 1,16,-1
 227 1276 l 1,17,-1
 901 1276 l 1,18,-1
 901 1153 l 1,19,-1
 629 1153 l 1,20,-1
 629 123 l 1,21,-1
 913 123 l 1,22,-1
 913 0 l 1,23,-1
 213 0 l 1,12,-1
EndSplineSet
EndChar

StartChar: ibreve
Encoding: 301 301 241
Width: 1126
GlyphClass: 2
Flags: W
LayerCount: 2
Fore
SplineSet
547 1072 m 128,-1,1
 465 1072 465 1072 397 1101 c 128,-1,2
 329 1130 329 1130 262 1196 c 1,3,-1
 348 1289 l 1,4,5
 403 1233 403 1233 443 1213 c 128,-1,6
 483 1193 483 1193 547 1193 c 128,-1,7
 611 1193 611 1193 651 1213 c 128,-1,8
 691 1233 691 1233 746 1289 c 1,9,-1
 832 1196 l 1,10,11
 765 1130 765 1130 697 1101 c 128,-1,0
 629 1072 629 1072 547 1072 c 128,-1,1
174 0 m 1,12,-1
 174 120 l 1,13,-1
 492 120 l 1,14,-1
 492 816 l 1,15,-1
 178 816 l 1,16,-1
 178 936 l 1,17,-1
 635 936 l 1,18,-1
 635 120 l 1,19,-1
 954 120 l 1,20,-1
 954 0 l 1,21,-1
 174 0 l 1,12,-1
EndSplineSet
EndChar

StartChar: Iogonek
Encoding: 302 302 242
Width: 1126
GlyphClass: 2
Flags: W
LayerCount: 2
Fore
SplineSet
213 0 m 1,0,-1
 213 125 l 1,1,-1
 485 125 l 1,2,-1
 485 1153 l 1,3,-1
 227 1153 l 1,4,-1
 227 1276 l 1,5,-1
 901 1276 l 1,6,-1
 901 1153 l 1,7,-1
 629 1153 l 1,8,-1
 629 123 l 1,9,-1
 913 123 l 1,10,-1
 913 0 l 1,11,12
 822 -90 822 -90 784 -136.5 c 128,-1,13
 746 -183 746 -183 746 -209 c 0,14,15
 746 -263 746 -263 802.5 -263 c 128,-1,16
 859 -263 859 -263 917 -217 c 1,17,-1
 917 -322 l 1,18,19
 850 -366 850 -366 775.5 -366 c 128,-1,20
 701 -366 701 -366 655 -328.5 c 128,-1,21
 609 -291 609 -291 609 -236 c 0,22,23
 609 -129 609 -129 778 0 c 1,24,-1
 213 0 l 1,0,-1
EndSplineSet
EndChar

StartChar: iogonek
Encoding: 303 303 243
Width: 1126
GlyphClass: 2
Flags: W
LayerCount: 2
Fore
SplineSet
598 1174.5 m 128,-1,1
 565 1141 565 1141 514.5 1141 c 128,-1,2
 464 1141 464 1141 430 1174 c 128,-1,3
 396 1207 396 1207 396 1257.5 c 128,-1,4
 396 1308 396 1308 430 1342 c 128,-1,5
 464 1376 464 1376 514.5 1376 c 128,-1,6
 565 1376 565 1376 598 1342.5 c 128,-1,7
 631 1309 631 1309 631 1258.5 c 128,-1,0
 631 1208 631 1208 598 1174.5 c 128,-1,1
174 0 m 1,8,-1
 174 120 l 1,9,-1
 492 120 l 1,10,-1
 492 816 l 1,11,-1
 178 816 l 1,12,-1
 178 936 l 1,13,-1
 632 936 l 1,14,-1
 632 120 l 1,15,-1
 951 120 l 1,16,-1
 950 0 l 1,17,18
 859 -90 859 -90 821 -136.5 c 128,-1,19
 783 -183 783 -183 783 -209 c 0,20,21
 783 -263 783 -263 839.5 -263 c 128,-1,22
 896 -263 896 -263 954 -217 c 1,23,-1
 954 -322 l 1,24,25
 887 -366 887 -366 812.5 -366 c 128,-1,26
 738 -366 738 -366 692 -328.5 c 128,-1,27
 646 -291 646 -291 646 -236 c 0,28,29
 646 -129 646 -129 815 0 c 1,30,-1
 174 0 l 1,8,-1
EndSplineSet
EndChar

StartChar: Idotaccent
Encoding: 304 304 244
Width: 1126
GlyphClass: 2
Flags: W
LayerCount: 2
Fore
SplineSet
626 1424.5 m 128,-1,1
 593 1391 593 1391 542.5 1391 c 128,-1,2
 492 1391 492 1391 458 1424 c 128,-1,3
 424 1457 424 1457 424 1507.5 c 128,-1,4
 424 1558 424 1558 458 1592 c 128,-1,5
 492 1626 492 1626 542.5 1626 c 128,-1,6
 593 1626 593 1626 626 1592.5 c 128,-1,7
 659 1559 659 1559 659 1508.5 c 128,-1,0
 659 1458 659 1458 626 1424.5 c 128,-1,1
213 0 m 1,8,-1
 213 125 l 1,9,-1
 485 125 l 1,10,-1
 485 1153 l 1,11,-1
 227 1153 l 1,12,-1
 227 1276 l 1,13,-1
 901 1276 l 1,14,-1
 901 1153 l 1,15,-1
 629 1153 l 1,16,-1
 629 123 l 1,17,-1
 913 123 l 1,18,-1
 913 0 l 1,19,-1
 213 0 l 1,8,-1
EndSplineSet
EndChar

StartChar: dotlessi
Encoding: 305 305 245
Width: 1126
GlyphClass: 2
Flags: W
LayerCount: 2
Fore
SplineSet
174 0 m 1,0,-1
 174 120 l 1,1,-1
 492 120 l 1,2,-1
 492 816 l 1,3,-1
 178 816 l 1,4,-1
 178 936 l 1,5,-1
 635 936 l 1,6,-1
 635 120 l 1,7,-1
 954 120 l 1,8,-1
 954 0 l 1,9,-1
 174 0 l 1,0,-1
EndSplineSet
EndChar

StartChar: IJ
Encoding: 306 306 246
Width: 1126
GlyphClass: 2
Flags: W
LayerCount: 2
Fore
SplineSet
700 112 m 0,0,1
 792 112 792 112 833 182.5 c 128,-1,2
 874 253 874 253 874 426 c 2,3,-1
 874 1153 l 1,4,-1
 498 1153 l 1,5,-1
 498 1276 l 1,6,-1
 1018 1276 l 1,7,-1
 1018 348 l 2,8,9
 1018 169 1018 169 937.5 73 c 128,-1,10
 857 -23 857 -23 703 -23 c 0,11,12
 520 -23 520 -23 407 111 c 1,13,-1
 513 228 l 1,14,15
 520 219 520 219 522 207 c 0,16,17
 532 160 532 160 590 136 c 128,-1,18
 648 112 648 112 700 112 c 0,0,1
135 0 m 1,19,-1
 135 1276 l 1,20,-1
 279 1276 l 1,21,-1
 279 0 l 1,22,-1
 135 0 l 1,19,-1
EndSplineSet
EndChar

StartChar: ij
Encoding: 307 307 247
Width: 1126
GlyphClass: 2
Flags: W
LayerCount: 2
Fore
SplineSet
926 1174.5 m 128,-1,1
 893 1141 893 1141 842.5 1141 c 128,-1,2
 792 1141 792 1141 758 1174 c 128,-1,3
 724 1207 724 1207 724 1257.5 c 128,-1,4
 724 1308 724 1308 758 1342 c 128,-1,5
 792 1376 792 1376 842.5 1376 c 128,-1,6
 893 1376 893 1376 926 1342.5 c 128,-1,7
 959 1309 959 1309 959 1258.5 c 128,-1,0
 959 1208 959 1208 926 1174.5 c 128,-1,1
328 1174.5 m 128,-1,9
 295 1141 295 1141 244.5 1141 c 128,-1,10
 194 1141 194 1141 160 1174 c 128,-1,11
 126 1207 126 1207 126 1257.5 c 128,-1,12
 126 1308 126 1308 160 1342 c 128,-1,13
 194 1376 194 1376 244.5 1376 c 128,-1,14
 295 1376 295 1376 328 1342.5 c 128,-1,15
 361 1309 361 1309 361 1258.5 c 128,-1,8
 361 1208 361 1208 328 1174.5 c 128,-1,9
611 -229 m 0,16,17
 694 -229 694 -229 753.5 -162 c 128,-1,18
 813 -95 813 -95 813 37 c 2,19,-1
 813 816 l 1,20,-1
 484 816 l 1,21,-1
 484 936 l 1,22,-1
 953 936 l 1,23,-1
 953 45 l 2,24,25
 953 -152 953 -152 861.5 -254 c 128,-1,26
 770 -356 770 -356 591 -356 c 128,-1,27
 412 -356 412 -356 306 -225 c 1,28,-1
 402 -98 l 1,29,30
 410 -106 410 -106 421.5 -131 c 128,-1,31
 433 -156 433 -156 445 -168 c 0,32,33
 506 -229 506 -229 611 -229 c 0,16,17
173 0 m 1,34,-1
 173 936 l 1,35,-1
 313 936 l 1,36,-1
 313 0 l 1,37,-1
 173 0 l 1,34,-1
EndSplineSet
EndChar

StartChar: Jcircumflex
Encoding: 308 308 248
Width: 1126
GlyphClass: 2
Flags: W
LayerCount: 2
Fore
SplineSet
451 1358 m 1,0,-1
 383 1435 l 1,1,-1
 614 1601 l 1,2,-1
 726 1601 l 1,3,-1
 963 1435 l 1,4,-1
 895 1358 l 1,5,-1
 669 1487 l 1,6,-1
 451 1358 l 1,0,-1
274 184 m 0,7,8
 329 115 329 115 442.5 115 c 128,-1,9
 556 115 556 115 602 186 c 128,-1,10
 648 257 648 257 648 426 c 2,11,-1
 648 1153 l 1,12,-1
 292 1153 l 1,13,-1
 292 1276 l 1,14,-1
 997 1276 l 1,15,-1
 997 1153 l 1,16,-1
 792 1153 l 1,17,-1
 792 408 l 2,18,19
 792 211 792 211 702.5 94 c 128,-1,20
 613 -23 613 -23 452 -23 c 0,21,22
 272 -23 272 -23 151 119 c 1,23,-1
 247 236 l 1,24,25
 252 231 252 231 261 210 c 128,-1,26
 270 189 270 189 274 184 c 0,7,8
EndSplineSet
EndChar

StartChar: jcircumflex
Encoding: 309 309 249
Width: 1126
GlyphClass: 2
Flags: W
LayerCount: 2
Fore
SplineSet
438 1061 m 1,0,-1
 346 1132 l 1,1,-1
 596 1451 l 1,2,-1
 641 1451 l 1,3,-1
 880 1135 l 1,4,-1
 786 1063 l 1,5,-1
 618 1282 l 1,6,-1
 438 1061 l 1,0,-1
446 -229 m 0,7,8
 543 -229 543 -229 600 -164 c 128,-1,9
 657 -99 657 -99 657 37 c 2,10,-1
 657 816 l 1,11,-1
 268 816 l 1,12,-1
 268 936 l 1,13,-1
 797 936 l 1,14,-1
 797 45 l 2,15,16
 797 -152 797 -152 705.5 -254 c 128,-1,17
 614 -356 614 -356 435 -356 c 128,-1,18
 256 -356 256 -356 150 -225 c 1,19,-1
 246 -98 l 1,20,21
 253 -105 253 -105 264 -130.5 c 128,-1,22
 275 -156 275 -156 294.5 -172.5 c 128,-1,23
 314 -189 314 -189 358 -209 c 128,-1,24
 402 -229 402 -229 446 -229 c 0,7,8
EndSplineSet
EndChar

StartChar: uni0136
Encoding: 310 310 250
Width: 1126
GlyphClass: 2
Flags: W
LayerCount: 2
Fore
SplineSet
156 0 m 1,0,-1
 156 1276 l 1,1,-1
 314 1276 l 1,2,3
 314 1266 314 1266 307 1247 c 128,-1,4
 300 1228 300 1228 300 1206 c 2,5,-1
 300 689 l 1,6,-1
 831 1286 l 1,7,8
 883 1276 883 1276 938 1276 c 2,9,-1
 991 1276 l 1,10,-1
 559 796 l 1,11,-1
 1024 0 l 1,12,-1
 872 -20 l 1,13,-1
 465 692 l 1,14,-1
 300 509 l 1,15,-1
 300 0 l 1,16,-1
 156 0 l 1,0,-1
476 -88 m 1,17,-1
 626 -127 l 1,18,-1
 448 -443 l 1,19,-1
 364 -396 l 1,20,-1
 476 -88 l 1,17,-1
EndSplineSet
EndChar

StartChar: uni0137
Encoding: 311 311 251
Width: 1126
GlyphClass: 2
Flags: W
LayerCount: 2
Fore
SplineSet
194 0 m 1,0,-1
 194 1362 l 1,1,-1
 348 1362 l 1,2,3
 348 1352 348 1352 341 1333 c 128,-1,4
 334 1314 334 1314 334 1292 c 2,5,-1
 334 503 l 1,6,-1
 817 952 l 1,7,8
 879 936 879 936 936 936 c 2,9,-1
 981 936 l 1,10,-1
 574 567 l 1,11,-1
 1030 0 l 1,12,-1
 854 -8 l 1,13,-1
 469 472 l 1,14,-1
 334 349 l 1,15,-1
 334 0 l 1,16,-1
 194 0 l 1,0,-1
506 -88 m 1,17,-1
 656 -127 l 1,18,-1
 478 -443 l 1,19,-1
 394 -396 l 1,20,-1
 506 -88 l 1,17,-1
EndSplineSet
EndChar

